<svg xmlns="http://www.w3.org/2000/svg" xmlns:xlink="http://www.w3.org/1999/xlink" viewBox="0 0 77.69 85.13"><defs><style>.cls-1{isolation:isolate;}.cls-2{fill:#673e0e;}.cls-3{fill:#a45727;}.cls-4{fill:#bb642f;}.cls-5{fill:#d1d3d4;}.cls-6{fill:#bcbec0;}.cls-7{fill:#f5f5f5;}.cls-8{opacity:0.7;fill:url(#linear-gradient);}.cls-19,.cls-20,.cls-8{mix-blend-mode:multiply;}.cls-9{fill:#8e4b20;stroke:#000;stroke-miterlimit:10;stroke-width:0.1px;}.cls-10{fill:#482620;}.cls-11{fill:#6f3912;}.cls-12{fill:#d1924d;}.cls-13{fill:#785b2b;}.cls-14{fill:#e5b46b;}.cls-15{fill:#9a5123;}.cls-16{fill:#b4602d;}.cls-17{fill:#e61220;}.cls-18{fill:#f2bebd;}.cls-19{fill:#a74c15;opacity:0.23;}.cls-20{opacity:0.3;}.cls-21,.cls-22{fill:#aa800d;}.cls-21{opacity:0.4;}.cls-23{fill:#aa6e0d;}</style><linearGradient id="linear-gradient" x1="157.19" y1="163.76" x2="243.67" y2="28.13" gradientTransform="translate(-170.99 -39)" gradientUnits="userSpaceOnUse"><stop offset="0" stop-color="#fff"/><stop offset="1"/></linearGradient></defs><title>answer_pancard</title><g class="cls-1"><g id="Layer_2" data-name="Layer 2"><g id="Layer_1-2" data-name="Layer 1"><path class="cls-2" d="M3.71,79.63l-.06,0a.08.08,0,0,1,0-.11L7.29,77a.09.09,0,0,1,.11,0,.11.11,0,0,1,0,.11L3.75,79.61Z"/><path class="cls-3" d="M3.2,5.16c-.12,0-.26.28-.41,1-.07.36-.24.49-.45.49a1.6,1.6,0,0,1-.67-.26,1.49,1.49,0,0,0-.53-.28.11.11,0,0,0-.1.11C1,6.76,3.93,75.07,4.18,75.07c0,0,0,0,0-.06,0-.43.19-.59.38-.59a1.8,1.8,0,0,1,.9.52c.3.26.58.51.69.51s.07,0,0-.14C6.07,74.46,3.4,5.68,3.4,5.68,3.36,5.37,3.29,5.16,3.2,5.16Z"/><path class="cls-4" d="M1.81,10.46S3.11,32,3.45,29.61,4.48,74.94,5.08,73,3.88,17.26,3.62,20.88,2,5.7,1.81,10.46Z"/><path class="cls-5" d="M7.31,78.72a.44.44,0,1,1-.88,0,.44.44,0,1,1,.88,0Z"/><path class="cls-6" d="M6.88,79.25a.53.53,0,0,1-.52-.53.52.52,0,0,1,.52-.53.53.53,0,0,1,.52.53A.54.54,0,0,1,6.88,79.25Zm0-.91a.37.37,0,0,0-.37.38.37.37,0,0,0,.37.36.36.36,0,0,0,.35-.36A.37.37,0,0,0,6.88,78.34Z"/><path class="cls-7" d="M6.93,78.75c0,.13-.14.2-.24.17a.2.2,0,0,1-.11-.27.22.22,0,0,1,.24-.18A.23.23,0,0,1,6.93,78.75Z"/><ellipse class="cls-5" cx="4.96" cy="77.14" rx="0.44" ry="0.45"/><path class="cls-6" d="M5,77.67a.53.53,0,0,1-.52-.53.52.52,0,1,1,1,0A.53.53,0,0,1,5,77.67Zm0-.91a.37.37,0,0,0-.36.38.36.36,0,0,0,.36.36.36.36,0,0,0,.36-.36A.37.37,0,0,0,5,76.76Z"/><path class="cls-7" d="M5,77.14c0,.14-.14.21-.23.18s-.14-.15-.11-.29.16-.2.24-.17A.21.21,0,0,1,5,77.14Z"/><path class="cls-8" d="M.06,5.41,77.69,4.09s.09,74.06-2.54,78.78c0,0-50.89,4.75-73.35.46Z"/><path class="cls-9" d="M.26,2S3.64,78.19,3.71,79.54s70.35.61,70.72.53S76.63.77,76.63.39,7.68.63.26,2Z"/><path class="cls-10" d="M.26,2C.93,13.65,1.39,51.1,2.4,65c.14,1.89.34,4.73.59,8.24.12,1.76.27,3.68.41,5.75l0,.38c0,.12-.09,0,.13.37a.56.56,0,0,0,.3.15,4.33,4.33,0,0,0,.81.14c.52.07,1.05.11,1.59.15q1.63.09,3.31.14c9,.27,19.67.27,29.84.26s19.88-.09,27.05-.16l4.86-.05,2,0h.89c.09,0,.13,0,.27,0,.45-.46.16-.29.27-.44l0-.42c.16-2.1.21-3.29.21-3.29s.9-48.48,1.67-69.33l.15-3.93.07-2,0-.5C76.58,0,76.5,0,76.41.07a.13.13,0,0,1-.17,0l-1,0c-2.58,0-5.14,0-7.67,0-5.06,0-10,.05-14.48.1-9,.09-16.41.22-20.1.29C19.37.76,11.61.76.26,2,11.62,1.13,19.38,1.32,33,1,36.7.89,44.1.77,53.12.68c4.5,0,9.41-.09,14.47-.11,2.52,0,5.1,0,7.66,0l.95,0s.1,0,.17,0,.26.08,0-.2l0,.49-.07,2-.14,3.92c-.77,20.85-1.63,69.33-1.67,69.33s-.05,1.19-.21,3.27l0,.4c.11.1-.27,0,.23.22-.08-.33-.11-.3-.14-.26s0,0-.07,0l-.89,0-2,0-4.86.06c-7.17.07-16.88.15-27.06.17s-20.81,0-29.81-.27q-1.69-.05-3.29-.14c-.53,0-1.05-.08-1.56-.14A6.23,6.23,0,0,1,4,79.39c-.08-.06-.09,0-.07,0s.07.12.06,0L4,79c-.14-2.07-.28-4-.41-5.75C3.29,69.73,3.09,66.89,3,65,2,51.06,1.29,13.62.26,2Z"/><path class="cls-11" d="M3.58,4s3.08,72.16,3.15,73.4S71,78,71.31,77.9s2-75,2-75.32S10.35,2.79,3.58,4Z"/><path class="cls-12" d="M4.35,4.51s3,71.2,3.09,72.42,62.8.53,63.13.46,2-74,2-74.29S11,3.3,4.35,4.51Z"/><path class="cls-13" d="M4.35,4.51c.57,10.42,1,47,1.89,59.47.11,1.69.3,4.21.51,7.35.12,1.58.25,3.3.37,5.14l0,.34c0,.11-.09,0,.12.34.18.15.18.1.28.15a7.35,7.35,0,0,0,.73.12c.47.06.94.09,1.42.12,1,.06,1.94.1,3,.14,8.05.24,17.55.24,26.64.24s17.75-.09,24.16-.15l4.35-.05,1.8,0h.8l.23,0c.17,0,.3-.44.26-.42l0-.37c.15-1.89.19-2.94.19-2.94s.81-46.45,1.49-65.06l.13-3.51.07-1.76V3.16c-.32-.46-.39-.43-.48-.38a.13.13,0,0,1-.16,0l-.87,0c-2.29,0-4.58,0-6.85,0-4.51,0-8.9,0-12.93.08-8.05.08-14.65.2-18,.26-12.16.33-19.1.34-29.23,1.45C14.5,3.77,21.43,4,33.59,3.63c3.3-.06,9.9-.17,17.94-.25,4,0,8.41-.08,12.93-.08,2.25,0,4.55,0,6.85,0l.85,0s.07,0,.15,0,.24.08-.05-.2v.43l-.07,1.76L72,8.85c-.68,18.62-1.46,65.06-1.49,65.05s0,1.06-.19,2.92l0,.35c0,.11,0,.06,0,0s.08-.14.23.22c-.07-.35-.1-.31-.13-.27s0,0-.07,0c-.25,0-.51,0-.79,0l-1.79,0-4.35,0c-6.4.08-15.07.13-24.15.15s-18.58,0-26.61-.24c-1,0-2-.08-2.94-.13-.47,0-.94-.07-1.39-.12a5,5,0,0,1-.64-.1h0s0,0-.06.09a.19.19,0,0,1-.12.09c.45,0,.13,0,.23-.06l0-.09,0-.35c-.13-1.84-.25-3.56-.36-5.12-.23-3.15-.41-5.67-.53-7.36C5.9,51.49,5.29,14.9,4.35,4.51Z"/><path class="cls-14" d="M6.48,5.82S9.3,74.43,9.37,75.57s58.9.5,59.2.44S70.42,4.81,70.42,4.5,12.68,4.68,6.48,5.82Z"/><path class="cls-2" d="M74.43,80.15h0l-3.73-2.58a.09.09,0,0,1,0-.11.08.08,0,0,1,.12,0L74.48,80a.08.08,0,0,1,0,.11l-.06,0Z"/><path class="cls-3" d="M67.46,78h-.84l-.27,0c-1.56.12-14.17.16-27.24.16-15.1,0-30.81,0-30.81,0-.68,0,1.47.75-.21,1.17-1.25.31-.44.35.79.35h1.29c1.19,0,29.21.16,46.5.16,8.16,0,13.92,0,13.34-.14C66.32,79,68.58,78.08,67.46,78Z"/><path class="cls-15" d="M67.18,78l-.56,0h.56Z"/><path class="cls-3" d="M64.6.65C49.21.65,5.34,1.9,5.34,1.9c-1.28,0-1,.33.07.61s-.47,1.19-.21,1.19h.07c.54-.14,12.55-.68,27.57-1,3.68-.07,8-.1,12.27-.1l8.24,0c5.3-.05,10-.08,13.56-.08l3.57,0c.22,0,.24-.08,0-.13-2.22-.55,3-.87-.81-1.58C69.21.7,67.37.65,64.6.65Z"/><path class="cls-3" d="M73,28.19c-.34,0,1.19-18.31,1.19-18.31a5.22,5.22,0,0,1,.19-1.19c.07,0,0,1.8,0,3.58a29,29,0,0,0,0,3.58,10.62,10.62,0,0,0,.3-2.16,14.41,14.41,0,0,1,.22-1.79c.08,0-.11,3.48-.31,7s-.41,7-.36,7,0,0,0-.11,0-.12,0-.12S73.6,70.43,73.1,72.86c0,.16-.07.24-.09.24a70,70,0,0,1,0-7.74c.1-3.88.18-37.27,0-37.27,0,0,0,0,0,.05s0,.05,0,.05ZM75.85,2.26c-.18,0-.44.53-.63,1.55-.34,1.79-2,1.11-1.88,3.58s-2,68.37-1.52,68.37c0,0,0,0,0-.06.13-.35.31-.49.5-.49s.72.44,1.06.86.62.85.73.85,0,0,.05-.06c.14-.54,1.88-73.74,1.88-73.74,0-.58-.1-.87-.24-.87Z"/><path class="cls-16" d="M74.35,8.7a5.22,5.22,0,0,0-.19,1.19S72.63,28.19,73,28.19c0,0,0,0,0-.05s0-.05,0-.05c.18,0,.09,33.39,0,37.27a70,70,0,0,0,0,7.74s0-.08.09-.24c.5-2.43,1.26-47.24,1.11-47.24s0,0,0,.12,0,.11,0,.11.16-3.48.36-7,.39-7,.31-7a14.41,14.41,0,0,0-.22,1.79,10.62,10.62,0,0,1-.3,2.16,29,29,0,0,1,0-3.58c0-1.79.09-3.58,0-3.58Z"/><path class="cls-4" d="M20.91,78.37s23.93-.23,21.23.23,18.54-.15,13.93.47-43.16.61-38.37.23S16.74,78.37,20.91,78.37Z"/><path class="cls-4" d="M12.13,1.81S37.36.67,34.94,1.37s2.76.44,7.32.44-2.75.17-12.9.8S11.79,3,14.72,2.52,1.64,2.7,12.13,1.81Z"/><ellipse class="cls-5" cx="72.37" cy="77.06" rx="0.44" ry="0.45"/><path class="cls-6" d="M72.37,77.59a.52.52,0,0,1-.51-.53.52.52,0,0,1,.51-.53.53.53,0,0,1,.52.53A.53.53,0,0,1,72.37,77.59Zm0-.91a.37.37,0,0,0-.36.38.37.37,0,0,0,.36.37.36.36,0,0,0,.36-.37A.37.37,0,0,0,72.37,76.68Z"/><path class="cls-7" d="M72.41,77.1c0,.12-.15.2-.24.17s-.13-.15-.1-.27a.2.2,0,0,1,.22-.17C72.4,76.84,72.44,77,72.41,77.1Z"/><path class="cls-5" d="M70.84,78.57a.45.45,0,1,1-.45.45.44.44,0,0,1,.45-.45Z"/><path class="cls-6" d="M70.84,79.54a.53.53,0,0,1,0-1.05.53.53,0,0,1,0,1.05Zm0-.9a.37.37,0,0,0,0,.74.37.37,0,0,0,0-.74Z"/><path class="cls-7" d="M70.87,79.06a.22.22,0,0,1-.24.17.21.21,0,0,1-.1-.28c0-.12.13-.2.22-.17s.14.16.11.28Z"/><path class="cls-17" d="M69.73,22.85Zm0,0Zm0,0v0Zm0,0Zm0,0Zm0,0Zm0,0Zm0,0Zm0,0v0Zm0,0h0Zm0,0Zm0,0v0Zm0,0Zm0,0Zm0,0Zm0,0Zm0,0Zm0,0Zm0,0Zm0,0Zm0,0Zm0,0Zm0,0Zm0,0Zm0,0v0Zm0,0Z"/><path class="cls-18" d="M69.73,22.85Zm0,0Zm0,0Zm0,0h0Zm0,0Zm0,0v0Zm0,0Zm0,0Zm0,0Zm0,0Zm0,0Zm0,0Zm0,0Zm0,0Zm0,0h0Zm0,0Zm0,0h0Zm0,0Zm0,0h0Zm0,0Zm0,0Zm0,0v0Zm0,0Zm0,0v0Zm0,0Zm0,0Zm0,0Z"/><path class="cls-19" d="M76.15.2A.13.13,0,0,1,76,.2l-1,0c-2.58,0-5.14,0-7.67,0-5.07,0-10,.05-14.48.1-9,.09-16.41.22-20.11.29C20.55.86,13,.9,3.46,1.77,1.93,1.88.65,2,0,2.1.39,8.79.7,14.26,1.09,20.32,4,15.11,8.72,11.28,16.23,11c23.39-.87,49.12,42.66,54,69.56h.78l2,0H74c.09,0,.13,0,.27,0,.45-.46.16-.29.27-.44l0-.42c.16-2.11.21-3.29.22-3.29S75.65,27.85,76.41,7l.15-3.93.06-2,0-.5C76.32.13,76.24.17,76.15.2Z"/><g class="cls-20"><path class="cls-21" d="M41.78,76.21a7.83,7.83,0,0,0,1.2.35c4.65,1,10.57.58,15.56.56,1.75,0,3.49,0,5.23,0,2.45-.25,4.9-.52,7.36-.63v-.11a49.93,49.93,0,0,1-10.42-.57c-.17,0-.33-.17-.11-.22a50.38,50.38,0,0,1,10.52-1c0-.14,0-.27,0-.41-5.06.16-10.12.37-15.18.53-2.92.09-5.88.17-8.74.45a31.27,31.27,0,0,0-4,.58C43,75.79,41.58,76.13,41.78,76.21Z"/><path class="cls-22" d="M71.12,74.83a51.6,51.6,0,0,0-9.69.9,51.48,51.48,0,0,0,9.7.44C71.13,75.72,71.12,75.27,71.12,74.83Z"/><path class="cls-22" d="M7.1,77l.29.11h0c1.92-.41,3.84-.84,5.69-1.3s4-1,5-1.79l-3.78.14-7.7.3q.12,1.23.22,2.46Z"/><path class="cls-22" d="M8.36,77.37c.93.08,1.87.08,2.81.11l2.14.11h.41c1.21-.42,2.39-.86,3.63-1.27a92.9,92.9,0,0,1,9.88-2.64L18.68,74a10.87,10.87,0,0,1-3.8,1.61c-2,.57-4.22,1.06-6.38,1.53l-.59.13Z"/><path class="cls-21" d="M22.21,77.64c3.09-.1,6.17-.26,9.26-.28H34a14.83,14.83,0,0,1-5.25-1.21c-1.7-1,.95-1.36,2.84-1.65,5.06-.77,10.44-1.2,15.84-1.51q-9.32.25-18.61.62A95.24,95.24,0,0,0,16.2,77l-1.65.59.77,0C17.61,77.72,19.91,77.71,22.21,77.64Z"/><path class="cls-22" d="M56.17,77.39c-2.16,0-4.35,0-6.51,0l2.43.15a62.56,62.56,0,0,0,8.49-.08l.68-.06C59.57,77.38,57.87,77.37,56.17,77.39Z"/><path class="cls-22" d="M41.37,77.59a3.22,3.22,0,0,1,2-.62l.79,0a10.4,10.4,0,0,1-3-.79c-.09,0-.11-.13,0-.17,3.81-1.5,10.2-1.44,15-1.6,5-.16,10-.37,15-.52q0-.65,0-1.3h-1q-6.39,0-12.79.15-3.77.17-7.54.38c-4.4.25-8.84.51-13.16,1-2.11.22-4.18.49-6.21.83-.86.15-2.4.37-1.51.9a6.1,6.1,0,0,0,1.89.72,54.52,54.52,0,0,0,6.56.87q1.71,0,3.41.13Z"/><path class="cls-22" d="M71.12,72.31l-3.36.08h3.36Z"/><path class="cls-22" d="M71.16,70.13c0-.06,0-.11,0-.17-4.49.06-9,0-13.46.19a175.05,175.05,0,0,0-22.94,2.37c-1.54.25-3,.53-4.51.81q9.09-.31,18.2-.56l8.12-.21,1.22-.05q6.65-.3,13.33-.45C71.13,71.42,71.14,70.77,71.16,70.13Z"/><path class="cls-22" d="M17.73,73.54c-.51,0-1-.06-1.55-.06-1.42,0-2.83.08-4.21.21s-3,.32-4.41.5l10.9-.42C18.57,73.63,18.42,73.59,17.73,73.54Z"/><path class="cls-22" d="M71.24,68.6c-14.49.73-29.1,1-43.45,2.22-7.24.59-14.11,1.79-21.27,2.52l.07.7c3.88-.5,8.36-1.2,12.31-.63.15,0,.15.11.13.16a1.25,1.25,0,0,1-.1.16l9.67-.35q3.14-.64,6.46-1.17a173.35,173.35,0,0,1,22-2.27c4.7-.16,9.42-.13,14.12-.2C71.2,69.36,71.22,69,71.24,68.6Z"/><path class="cls-21" d="M71.43,66.39c-4.33,0-8.66-.07-13,0-9.25.21-18.52.54-27.59,1.37-8.38.76-16.46,2-24.57,3.18l.21,2.19c7.41-.77,14.53-2,22-2.58,14.12-1.12,28.46-1.44,42.7-2.16Q71.32,67.4,71.43,66.39Z"/><path class="cls-23" d="M70.08,64.59c-19.18.31-38.34.81-57.5,1.31l-6.73.18.05.8v0c1.8,0,3.58.14,5.32.34.21,0,.37.13.21.21A19.27,19.27,0,0,1,6.12,69c.05.54.1,1.08.15,1.61,8.14-1.19,16.25-2.43,24.68-3.16,9.1-.79,18.35-1.13,27.61-1.33,4.29-.09,8.6,0,12.9,0q.09-.79.2-1.58Z"/><path class="cls-21" d="M5.93,67.14c.06.57.11,1.13.17,1.7a20.45,20.45,0,0,0,5-1.41C9.37,67.25,7.65,67.17,5.93,67.14Z"/><path class="cls-22" d="M65.56,25.49c-4.35.08-8.71.1-13.06.18-15.77.28-31.55.05-47.32.24q.12,1.07.21,2.15L8.12,28c9.53-.21,19.09-.28,28.63-.43,11.76-.19,23.53-.38,35.3-.49,0-.61.09-1.22.16-1.83C70,25.38,67.78,25.45,65.56,25.49Z"/><path class="cls-21" d="M16,21.26A73.72,73.72,0,0,0,4.53,19.88c.1,1.25.22,2.5.38,3.75,0,.27.07.53.1.79,2.85-.17,5.69-.41,8.36-.8,1.31-.19,4.53-.64,4.46-1.45C17.78,21.73,16.8,21.44,16,21.26Z"/><path class="cls-22" d="M72.41,17.3l-3.19-.05c-7.54-.11-15.1,0-22.63.07-14.08.12-28.15,0-42.23,0q.07,1.15.16,2.3A76.71,76.71,0,0,1,15.74,21c.84.19,2,.48,2.23.92s-.67,1-1.62,1.27a36.23,36.23,0,0,1-6.81,1.06c-1.49.13-3,.24-4.5.34l.13,1.13q9.76-.13,19.54-.1c9.61,0,19.23.05,28.83-.15,6.12-.12,12.58,0,18.71-.4h0c0-.16,0-.31.06-.47s0-.45,0-.67C72.25,21.7,72.3,19.5,72.41,17.3Z"/><path class="cls-22" d="M63,15.27c-4.7.2-9.43.21-14.14.15-9.56-.13-19.09-.56-28.66-.57-5.33,0-10.66,0-16,.12q.05,1.06.12,2.12H5.45c9.51,0,19,.13,28.53.08S53.16,17,62.75,17c3.22,0,6.45.06,9.68.12,0-.09,0-.16,0-.25,0-.71.07-1.42.1-2.13C69.37,14.92,66.2,15.13,63,15.27Z"/><path class="cls-21" d="M49.25,14.21c-9.5-.17-19-.5-28.43-.83q-8.35-.29-16.71-.56c0,.48.06,1,.08,1.43l0,.43c7.51-.1,15-.15,22.54,0,9.55.17,19.09.59,28.66.53,5.3,0,10.52-.31,15.72-.65C63.83,14.52,56.52,14.34,49.25,14.21Z"/><path class="cls-22" d="M69.22,12.73c-9.62,0-19.25,0-28.87-.11s-19.2-.46-28.82-.79Q7.79,11.7,4,11.61c0,.32,0,.65,0,1,9,.3,18.08.64,27.12.94,9.53.32,19.08.48,28.64.62,4.2.07,8.46.17,12.71.18,0-.52,0-1,.06-1.57Z"/><path class="cls-23" d="M19,10.22C14,10.06,9,9.85,4,9.65c0,.58,0,1.15,0,1.73,7.5.24,15,.55,22.48.75,15.35.4,30.73.31,46.1.37,0-.41,0-.81,0-1.22C54.77,10.8,36.83,10.82,19,10.22Z"/><path class="cls-22" d="M68.57,8.21c-19-.55-37.9-1.46-56.89-2L4.39,6.09c0,.52-.09,1-.15,1.57,9.18.28,18.41.33,27.54.43,13.67.15,27.34.19,41,.24h0Z"/><path class="cls-21" d="M30.53,8.28C21.8,8.18,13,8.12,4.21,7.85c-.06.51-.11,1-.15,1.54,8.58.35,17.16.69,25.78.86,14.27.28,28.57.38,42.82.77,0-.83.07-1.66.11-2.49C58.69,8.49,44.61,8.44,30.53,8.28Z"/><path class="cls-22" d="M73,5.4c-.08-.5-.16-1-.23-1.5-4.3.15-8.6.27-12.91.31A141.19,141.19,0,0,0,45,4.78c-.62.07-3.2.38-2.31.86a10.24,10.24,0,0,0,3.07.59c4.14.42,8.5.49,12.74.55q7.19.1,14.39,0Q72.93,6.09,73,5.4Z"/><path class="cls-22" d="M69.18,7.06c-6.1,0-12.25,0-18.32-.24-1.78-.08-3.57-.17-5.31-.35a12.14,12.14,0,0,1-3-.55c-2-.87,2.37-1.38,3.57-1.48C50.79,4,55.68,4,60.47,4c4.09,0,8.18-.16,12.26-.3,0-.35-.08-.71-.1-1.06H70.7c-4.63,0-9.26,0-13.9,0-9.35-.06-18.74-.1-28.07.2-8.15.27-16.32.54-24.5.55a4.11,4.11,0,0,1,.2,1.12c0,.47,0,.93,0,1.39l3.29.07c9.5.22,19,.53,28.48.89,12.2.46,24.41,1,36.63,1.27,0-.34,0-.68.06-1Z"/><path class="cls-21" d="M32.39,1.91c-6.25.1-12.5.26-18.74.61-3.17.18-6.35.37-9.52.53v0c8.88,0,17.7-.37,26.56-.6,9.16-.24,18.34-.22,27.52-.15h3.59C52,2.22,42.2,1.76,32.39,1.91Z"/><path class="cls-21" d="M72.61,2.28l-1.14,0h1.14Z"/><path class="cls-21" d="M7.56,33.33A12,12,0,0,0,5.69,33s0,.08,0,.12c0,.33,0,30.18,0,30.51l.83-.1C7.12,63.39,8.44,33.6,7.56,33.33Z"/><path class="cls-21" d="M50.36,27.56c-15,.23-30,.44-44.94.74,0,.58.09,1.15.13,1.73,15.55-.26,31.11-.6,46.65-1,5.66-.13,11.28-.32,16.93-.51L72,28.47c0-.4,0-.8.05-1.2Q61.2,27.39,50.36,27.56Z"/><path class="cls-22" d="M70.67,28.73c-3.29.1-6.57.24-9.85.35-8.86.31-17.79.41-26.67.58-9.53.18-19.06.4-28.59.58.05.84.09,1.67.12,2.52A5.16,5.16,0,0,1,8,33.34c.52.53-1.23,30.36-2.22,30.46,0,.7.07,1.39.11,2.09,11.41-.29,22.81-.62,34.22-.9q15.81-.38,31.63-.63l0-.12q.07-.48.17-1c0-1.1.07-31.73.08-32.84,0-.58,0-1.16,0-1.74Z"/></g></g></g></g></svg>