<svg xmlns="http://www.w3.org/2000/svg" viewBox="0 0 132.11 70.59"><defs><style>.cls-1{isolation:isolate;}.cls-2{fill:#c89e6f;}.cls-3{fill:#2a0f00;}.cls-4{fill:#603a17;}.cls-5{fill:#f05f71;}.cls-5,.cls-7,.cls-8{opacity:0.56;}.cls-16,.cls-18,.cls-25,.cls-27,.cls-5,.cls-7,.cls-8{mix-blend-mode:multiply;}.cls-6,.cls-7{fill:#8c6339;}.cls-8{fill:#b38879;}.cls-9{fill:#005127;}.cls-11,.cls-9{opacity:0.69;}.cls-10{fill:#009144;}.cls-11{fill:#f9ed25;}.cls-12,.cls-26{fill:#fff;}.cls-12{opacity:0.55;}.cls-13{fill:#95d2ff;}.cls-14{fill:#dcd9bd;}.cls-15{fill:#c9c190;}.cls-16,.cls-20{fill:#989a9d;}.cls-16,.cls-26{opacity:0.62;}.cls-17{fill:#4e4f51;}.cls-18{fill:#292929;opacity:0.28;}.cls-19{fill:#4d4d4d;}.cls-21{fill:#7e8081;}.cls-22{fill:#b2b4b7;opacity:0.74;}.cls-23{fill:#d8df21;}.cls-24{fill:none;}.cls-25{fill:#e9da16;}.cls-27{fill:#e6e3c5;opacity:0.5;}.cls-28{fill:#f0edcf;}.cls-29{fill:#fffcd8;}.cls-30{fill:#e8debb;}.cls-31{fill:#ffd600;}</style></defs><title>question_pancard</title><g class="cls-1"><g id="Layer_2" data-name="Layer 2"><g id="Layer_1-2" data-name="Layer 1"><polygon class="cls-2" points="7.17 70.18 7.17 67.35 6.11 67.59 6.23 69.84 7.17 70.2 7.17 70.18"/><path class="cls-3" d="M7.13,70.23l-1-.37L6,67.57l1.2-.27v2.89h0a0,0,0,0,1,0,0h0l-.06,0h0Zm-.95-2.61.12,2.2.8.3V67.41l-.92.21Z"/><polygon class="cls-4" points="7.52 67.07 7.17 67.15 7.17 70.19 10.92 70.16 10.92 66.95 7.52 67.07"/><path class="cls-3" d="M7.12,70.21s0,0,0,0h0v-3s0,0,0,0h0L7.49,67h0l3.4-.12H11s0,0,0,0h0v3.21s0,0-.07,0h0l-3.76,0Zm.12-3v3l3.62,0V67l-3.32.12-.3.07Z"/><polygon class="cls-5" points="7.21 68.39 10.92 68.34 10.92 67.15 7.52 67.27 7.17 67.35 7.17 68.38 7.21 68.39"/><polygon class="cls-5" points="7.17 67.35 6.11 67.59 6.11 68.06 7.17 68.38 7.17 67.35"/><polygon class="cls-6" points="123.03 70.18 123.03 67.03 121.97 67.28 122.09 69.83 123.02 70.2 123.03 70.18"/><path class="cls-3" d="M123,70.23l-1-.37-.12-2.6,1.2-.28v3.2h0a0,0,0,0,1,0,0h0l-.06,0h0ZM122,67.3l.12,2.51.8.31v-3l-.92.21Z"/><polygon class="cls-4" points="123.38 66.75 123.03 66.83 123.03 70.19 126.78 70.16 126.78 66.62 123.38 66.75"/><path class="cls-3" d="M123,70.21a0,0,0,0,1,0,0h0V66.83s0,0,0,0h0l.35-.08h0l3.4-.12h.05s0,0,0,0h0v3.54s0,0-.07,0h0l-3.76,0Zm.12-3.36v3.29l3.62,0V66.66l-3.32.12-.3.07Z"/><polygon class="cls-5" points="123.07 68.1 126.78 68.04 126.78 66.83 123.38 66.95 123.03 67.03 123.03 68.08 123.07 68.1"/><polygon class="cls-5" points="123.03 67.03 121.97 67.28 121.97 67.76 123.03 68.08 123.03 67.03"/><polygon class="cls-6" points="1.42 66.59 131.85 66.59 131.27 65.83 0.21 65.91 1.42 66.59 1.42 66.59"/><path class="cls-3" d="M1.38,66.64.17,66a.06.06,0,0,1,0-.07h0a.07.07,0,0,1,.07,0h0l131.06-.08a.07.07,0,0,1,.06,0h0l.58.76a.06.06,0,0,1,0,.07h0a.07.07,0,0,1-.06,0H1.38ZM.46,66l1,.55H131.71l-.48-.63L.46,66Z"/><polygon class="cls-4" points="132.04 66.84 131.85 66.59 1.42 66.59 1.42 69.28 131.83 69.28 132.04 66.84"/><path class="cls-3" d="M1.42,69.35l0,0h0a.06.06,0,0,1,0,0h0v-2.7a.06.06,0,0,1,0,0h0l0,0H131.85a.07.07,0,0,1,.06,0h0l.19.25-.06,0,.06,0v0l-.21,2.44a.07.07,0,0,1-.07.06H1.42Zm.07-.13H131.77l.2-2.36-.16-.21H1.49v2.57Z"/><polygon class="cls-2" points="0.21 65.91 0.07 65.91 0.17 68.69 1.42 69.28 1.42 66.59 0.21 65.91"/><path class="cls-3" d="M.1,68.73,0,65.85H.23l1.26.7v2.84L.1,68.73Zm.14-.08,1.11.52V66.62L.19,66h0l.09,2.68ZM.17,66l0-.05,0,.05Z"/><polygon class="cls-2" points="7.17 66.36 7.17 5.54 6.11 5.95 6.23 65.78 7.17 66.39 7.17 66.36"/><path class="cls-3" d="M7.13,66.44l-1-.62L6,5.91l1.2-.46V66.36h0v0h0a.06.06,0,0,1,0,0h0a.07.07,0,0,1-.06,0h0ZM6.18,6,6.3,65.75l.8.52V5.64L6.18,6Z"/><polygon class="cls-4" points="7.52 5.07 7.17 5.21 7.17 66.37 10.92 66.33 10.92 4.87 7.52 5.07"/><path class="cls-3" d="M7.12,66.42a.06.06,0,0,1,0,0h0V5.21a.06.06,0,0,1,0-.06h0L7.49,5h0l3.4-.2.05,0h0a.06.06,0,0,1,0,0h0V66.33a.07.07,0,0,1-.07.06h0l-3.76,0,0,0ZM7.24,5.25V66.31l3.62,0V4.94l-3.32.2-.3.12Z"/><polygon class="cls-7" points="7.21 7.31 10.92 7.22 10.92 5.21 7.52 5.41 7.17 5.54 7.17 7.29 7.21 7.31"/><polygon class="cls-7" points="7.17 5.54 6.11 5.95 6.11 6.76 7.17 7.29 7.17 5.54"/><polygon class="cls-6" points="122.86 66.48 122.86 5.54 121.81 5.95 121.92 65.78 122.86 66.48"/><path class="cls-3" d="M122.79,66.48V5.64l-.92.35L122,65.78a.07.07,0,0,1-.07.06h0a.07.07,0,0,1-.07-.06h0l-.12-59.87,1.2-.46v61a.07.07,0,0,1-.07.06h0a.07.07,0,0,1-.07-.06Z"/><polygon class="cls-4" points="123.22 5.41 122.86 5.54 122.86 66.46 126.62 66.46 126.62 5.21 123.22 5.41"/><path class="cls-3" d="M122.86,66.52l0,0h0a.06.06,0,0,1,0,0h0V5.55a.06.06,0,0,1,0-.06h0l.35-.14h0l3.4-.2.05,0h0a.06.06,0,0,1,0,0h0V66.45a.06.06,0,0,1,0,0h0l0,0h-3.76Zm.07-60.93V66.39h3.62V5.27l-3.32.2-.3.11Z"/><polygon class="cls-5" points="122.91 7.31 126.62 7.22 126.62 5.21 123.22 5.41 122.86 5.54 122.86 7.29 122.91 7.31"/><polygon class="cls-8" points="122.86 5.54 121.81 5.95 121.81 6.76 122.86 7.29 122.86 5.54"/><polygon class="cls-6" points="3.3 3.73 130.81 3.73 130.25 2.97 2.13 3.06 3.3 3.73 3.3 3.73"/><path class="cls-3" d="M3.28,3.79h0L1.89,3l128.4-.08.65.89H3.28Zm127.39-.12L130.21,3,2.37,3.12l1,.55Z"/><polygon class="cls-4" points="130.99 3.98 130.81 3.73 3.3 3.73 3.3 6.43 130.9 6.43 130.99 3.98"/><path class="cls-3" d="M3.3,6.49l0,0h0a.06.06,0,0,1,0,0h0V3.73a.06.06,0,0,1,0,0h0l0,0H130.81a.07.07,0,0,1,.06,0h0l.19.25L131,4l.06,0V4L131,6.43a.07.07,0,0,1-.07.06H3.3Zm.07-.13H130.83L130.92,4l-.15-.21H3.37V6.36Z"/><polygon class="cls-2" points="2.13 3.06 2 3.06 2.09 5.84 3.3 6.43 3.3 3.73 2.13 3.06"/><path class="cls-3" d="M2,5.88,1.92,3h.23l1.22.7V6.53L2,5.88Zm0-2.76L2.16,5.8l1.07.52V3.76L2.11,3.12Zm0,0,0-.05,0,.05Z"/><path class="cls-9" d="M8,5.72a.59.59,0,0,1,.24-1,1.19,1.19,0,0,1,1.32.17.58.58,0,0,1-.24,1A1.19,1.19,0,0,1,8,5.72Z"/><path class="cls-10" d="M8,5.7a.58.58,0,0,1,.24-1,1.19,1.19,0,0,1,1.32.17.58.58,0,0,1-.24,1A1.19,1.19,0,0,1,8,5.7Z"/><path class="cls-11" d="M8,5.67a.54.54,0,0,1,.22-.9,1.11,1.11,0,0,1,1.23.16.54.54,0,0,1-.22.9A1.11,1.11,0,0,1,8,5.67Z"/><path class="cls-9" d="M9.48,4.88l-1.55.79,0,0,.05,0L9.56,5l0-.05Z"/><path class="cls-10" d="M8,5.72l1.55-.78h0l0,0,0,0-1.55.79,0,0,0,0Z"/><path class="cls-12" d="M7.86,5.25S8,4.63,8.93,4.66C8.84,4.67,8.07,4.73,7.86,5.25Z"/><path class="cls-12" d="M9.65,5.37S9.54,6,8.58,6C8.67,5.95,9.44,5.89,9.65,5.37Z"/><path class="cls-9" d="M8,68.26a.58.58,0,0,1,.24-1,1.19,1.19,0,0,1,1.32.17.58.58,0,0,1-.24,1A1.19,1.19,0,0,1,8,68.26Z"/><path class="cls-10" d="M8,68.23a.58.58,0,0,1,.24-1,1.19,1.19,0,0,1,1.32.17.59.59,0,0,1-.24,1A1.19,1.19,0,0,1,8,68.23Z"/><path class="cls-11" d="M8,68.21a.54.54,0,0,1,.22-.9,1.11,1.11,0,0,1,1.23.16.54.54,0,0,1-.22.9A1.11,1.11,0,0,1,8,68.21Z"/><path class="cls-9" d="M9.48,67.41l-1.55.78,0,0,.05,0,1.55-.78,0-.05Z"/><path class="cls-10" d="M8,68.26l1.55-.78h0l0,0,0,0-1.55.78,0,0,0,0Z"/><path class="cls-12" d="M7.86,67.79s.11-.62,1.07-.59C8.84,67.2,8.07,67.26,7.86,67.79Z"/><path class="cls-12" d="M9.65,67.9s-.11.62-1.07.59C8.67,68.48,9.44,68.42,9.65,67.9Z"/><path class="cls-9" d="M124.24,67.94a.59.59,0,0,1,.24-1,1.19,1.19,0,0,1,1.32.17.58.58,0,0,1-.24,1A1.19,1.19,0,0,1,124.24,67.94Z"/><path class="cls-10" d="M124.21,67.91a.58.58,0,0,1,.24-1,1.19,1.19,0,0,1,1.32.17.59.59,0,0,1-.24,1A1.19,1.19,0,0,1,124.21,67.91Z"/><path class="cls-11" d="M124.26,67.88a.54.54,0,0,1,.22-.9,1.11,1.11,0,0,1,1.23.16.54.54,0,0,1-.22.9A1.11,1.11,0,0,1,124.26,67.88Z"/><path class="cls-9" d="M125.73,67.09l-1.55.78,0,0,.05,0,1.55-.78,0-.05Z"/><path class="cls-10" d="M124.24,67.93l1.55-.78h0l0,0,0,0-1.55.78,0,0,0,0Z"/><path class="cls-12" d="M124.11,67.46s.11-.62,1.07-.59C125.09,66.88,124.32,66.94,124.11,67.46Z"/><path class="cls-12" d="M125.9,67.58s-.11.62-1.07.59C124.92,68.16,125.69,68.1,125.9,67.58Z"/><path class="cls-9" d="M124.24,5.4a.58.58,0,0,1,.24-1,1.19,1.19,0,0,1,1.32.17.58.58,0,0,1-.24,1A1.19,1.19,0,0,1,124.24,5.4Z"/><path class="cls-10" d="M124.21,5.37a.59.59,0,0,1,.24-1,1.19,1.19,0,0,1,1.32.17.58.58,0,0,1-.24,1A1.19,1.19,0,0,1,124.21,5.37Z"/><path class="cls-11" d="M124.26,5.34a.54.54,0,0,1,.22-.9,1.11,1.11,0,0,1,1.23.16.54.54,0,0,1-.22.9A1.11,1.11,0,0,1,124.26,5.34Z"/><path class="cls-9" d="M125.73,4.55l-1.55.79,0,0,.05,0,1.55-.78,0-.05Z"/><path class="cls-10" d="M124.24,5.4l1.55-.79h0l0,0,0,0-1.55.79,0,0,0,0Z"/><path class="cls-12" d="M124.11,4.92s.11-.62,1.07-.59C125.09,4.34,124.32,4.4,124.11,4.92Z"/><path class="cls-12" d="M125.9,5s-.11.62-1.07.59C124.92,5.62,125.69,5.56,125.9,5Z"/><path class="cls-13" d="M15.1,5.63a5.34,5.34,0,0,1-.69-2h0a.78.78,0,0,1,.49-.81h0a.84.84,0,0,1,.33-.07h0c.59,0,.94.63.94,1.42h0a3.37,3.37,0,0,1-.39,1.52h0a.33.33,0,0,1-.31.26h0a.45.45,0,0,1-.37-.28Zm.49,0h0A3.21,3.21,0,0,0,16,4.13h0a1.72,1.72,0,0,0-.22-.91h0a.61.61,0,0,0-.51-.33h0a.61.61,0,0,0-.25.06h0l0-.08,0,.09c-.26.09-.36.32-.36.64h0a3.62,3.62,0,0,0,.33,1.28h0a7.05,7.05,0,0,0,.33.68h0c.08.15.16.18.19.17h0s.09,0,.12-.13Z"/><path class="cls-13" d="M13.12,66.12A.44.44,0,0,1,13,65.8h0a1.51,1.51,0,0,1,.21-.65h0v0h0a1.42,1.42,0,0,1,.68-.27h0a.33.33,0,0,1,.29.14h0a.51.51,0,0,1,.07.29h0a2.3,2.3,0,0,1-.24.89h0l0,0h0a2,2,0,0,1-.42.05h0a.6.6,0,0,1-.43-.14Zm.08-.32c0,.17,0,.27.35.28h0a1.66,1.66,0,0,0,.32,0h0a2.15,2.15,0,0,0,.2-.77h0c0-.18,0-.24-.16-.24h0a1.21,1.21,0,0,0-.55.22h0a1.37,1.37,0,0,0-.18.55Z"/><path class="cls-13" d="M34.9,4.89h-.05l0,0a5.43,5.43,0,0,1-.25-1.41h0c0-.39.08-.77.43-.92h0a1.14,1.14,0,0,1,.43-.09h0a.79.79,0,0,1,.62.27h0a1.25,1.25,0,0,1,.25.83h0A4.45,4.45,0,0,1,36,5h0V5l0,0a.22.22,0,0,1-.15,0h0a5.11,5.11,0,0,1-.91-.19Zm.41-.09a2.69,2.69,0,0,0,.5.09h0a4.22,4.22,0,0,0,.29-1.38h0c0-.7-.32-.91-.66-.92h0a.9.9,0,0,0-.35.07h0l0-.08,0,.08c-.21.08-.31.38-.31.75h0A5.12,5.12,0,0,0,35,4.72h0l.29.08Z"/><path class="cls-13" d="M123.75,29l-.11-.08.11-.07a3.81,3.81,0,0,1,1.62-.6h0a.71.71,0,0,1,.71.43h0l-.1,0,.1,0a1,1,0,0,1,.08.36h0a.52.52,0,0,1-.22.44h0a.91.91,0,0,1-.54.15h0a3,3,0,0,1-1.65-.63Zm1.65.45c.37,0,.55-.14.56-.4h0a.8.8,0,0,0-.07-.29h0a.5.5,0,0,0-.52-.31h0a2.52,2.52,0,0,0-1,.28h0l-.4.21h0a2.72,2.72,0,0,0,1.41.52Z"/><path class="cls-13" d="M52.33,4.36c-.16-.09-.95-.53-1-1.16h0a1,1,0,0,1,.51-.78h0a1.63,1.63,0,0,1,.95-.29h0a1.82,1.82,0,0,1,1.85,1.63h0a1.44,1.44,0,0,1-.25.8h0c-.4.61-.71.89-1,.9h0c-.46,0-.71-.5-1-1.09ZM51.57,3.2a1,1,0,0,0,.44.71h0a2.67,2.67,0,0,0,.45.31h0v0c.33.62.63,1,.88,1h0c.18,0,.48-.2.87-.81h0a1.28,1.28,0,0,0,.22-.7h0a1.63,1.63,0,0,0-1.65-1.45h0a1.4,1.4,0,0,0-.82.26h0c-.33.23-.43.44-.43.63Z"/><path class="cls-13" d="M9.13,27.89a.8.8,0,0,1-.43-.58h0A.41.41,0,0,1,9,26.95H9a2.08,2.08,0,0,1,.83-.13h0a4.9,4.9,0,0,1,1.48.15h0a.44.44,0,0,1,.31.37h0a.29.29,0,0,0,.11.18h0l.14.11-.18,0a10.05,10.05,0,0,1-2,.32h0a1.15,1.15,0,0,1-.58-.11Zm-.06-.78c-.13.07-.17.13-.17.2h0c0,.12.14.3.34.43h0a1,1,0,0,0,.46.08h0a9.08,9.08,0,0,0,1.8-.28h0a.49.49,0,0,1-.07-.16h0a.31.31,0,0,0-.07-.17h0c-.08-.09-.42-.19-1.51-.2h0v0H9.8a1.87,1.87,0,0,0-.73.11Z"/><path class="cls-13" d="M9.81,48.53a1.32,1.32,0,0,1-.42-.88h0a.54.54,0,0,1,.48-.57H10a2.87,2.87,0,0,1,2,1.49h0l.06.1-.12,0a5,5,0,0,1-1.1.14h0a1.45,1.45,0,0,1-1-.31Zm.09-1.26a.35.35,0,0,0-.31.39h0a1.14,1.14,0,0,0,.37.75h0a1.25,1.25,0,0,0,.87.25h0a4.67,4.67,0,0,0,.91-.11h0A2.65,2.65,0,0,0,10,47.26H9.9l0-.09,0,.09Z"/><path class="cls-13" d="M71.49,4.4a2.26,2.26,0,0,1-.5-1.1h0c0-.27.18-.53.62-.58h0l.29,0h0c.48,0,.84.21.84.55h0c0,.36-.35.77-1.11,1.18h0l-.08,0-.05-.07Zm.16-1.5c-.37.06-.44.2-.45.4h0a1.43,1.43,0,0,0,.23.65h0a2.9,2.9,0,0,0,.18.27h0c.68-.38.94-.75.93-1h0c0-.21-.2-.36-.63-.37h0l-.26,0h0l0-.09,0,.09Z"/><path class="cls-13" d="M124.07,49.83l-.08-.08.1-.06a3.33,3.33,0,0,1,1.3-.38h0a.78.78,0,0,1,.65.28h0a.69.69,0,0,1,.14.42h0a.67.67,0,0,1-.7.67h0a2.1,2.1,0,0,1-1.42-.84Zm1.42.66A.47.47,0,0,0,126,50h0a.52.52,0,0,0-.11-.31h0a.57.57,0,0,0-.49-.2h0a2.39,2.39,0,0,0-.79.18h0l-.29.12h0a1.8,1.8,0,0,0,1.18.69Z"/><path class="cls-13" d="M88.1,5.59l-.05,0,0,0a5.55,5.55,0,0,1-.24-1.4h0c0-.38.07-.76.41-.91h0a1.05,1.05,0,0,1,.42-.09h0a.75.75,0,0,1,.59.27h0a1.27,1.27,0,0,1,.24.83h0a4.56,4.56,0,0,1-.31,1.47h0v0l0,0a.22.22,0,0,1-.15,0h0a4.83,4.83,0,0,1-.87-.19Zm.39-.09a2.47,2.47,0,0,0,.48.09h0a4.32,4.32,0,0,0,.28-1.37h0c0-.7-.3-.91-.62-.91h0a.83.83,0,0,0-.33.07h0l0-.08,0,.08c-.2.08-.29.38-.29.75h0a5.27,5.27,0,0,0,.21,1.3h0l.28.07Z"/><path class="cls-13" d="M106,5.07c-.15-.09-.9-.53-.92-1.15h0a1,1,0,0,1,.49-.77h0a1.52,1.52,0,0,1,.91-.29h0a1.76,1.76,0,0,1,1.77,1.62h0a1.47,1.47,0,0,1-.24.79h0c-.38.6-.67.88-1,.89h0c-.44,0-.68-.49-1-1.08Zm-.3-1.78a.8.8,0,0,0-.41.63h0a1,1,0,0,0,.42.7h0a2.61,2.61,0,0,0,.43.3h0l0,0V5c.31.61.6,1,.83,1h0c.17,0,.45-.2.83-.8h0a1.29,1.29,0,0,0,.21-.7h0A1.58,1.58,0,0,0,106.48,3h0a1.31,1.31,0,0,0-.78.25h0l-.06-.07.06.07Z"/><path class="cls-14" d="M123.1,48.66c-5.83-5.67-1.66-18.91.51-18.22s3.89-1.11,2.36-2.3-2,.94-3-.11c-5.62-6.17,0-21.14,0-21.14.82-2.48.67-4.82-1.41-4.56s-1.12,2.25-.76,3.36c.19.57-1.23,2.05-2.64,3.19a5.69,5.69,0,0,1-4.89,1.51c-6-.86-5.52-3-4.52-4.52a2.38,2.38,0,0,0-2.9-3.33c-2.17.85-.81,1.62-.54,3.92s-3,3.37-3,3.37c-5.37,2-12.34-3.58-12.69-4,.89-1.17.53-3.45-1.24-3.4s-1,3.51-1.24,3.62c-1,.47-1.82,1.67-2.71,2.3a10.76,10.76,0,0,1-2.79,1.48c-3.8,1.29-8.93.35-8.75-4.09.86-2.5.91-3.38-1.27-3.12s-1,1.29-.67,2.41S67.44,10.06,61,9.7c-4.34-.25-6.82-2.8-5.84-4.54a2.45,2.45,0,0,0-3-3.36c-2.28.86-.86,1.64-.57,4s-3.15,3.4-3.15,3.4c-4.63,1.83-11.58-3.62-12-4.08.93-1.18.56-3.48-1.3-3.43s-1.06,3.54-1.3,3.65c-.48.53-1.29,1.12-1.76,1.55-8.67,7.89-15.84-1.44-15.84-1.44s-.09,0-.22-.17c1.31-2.7,0-3.6-1.12-3.43s-1.49.9-.74,2.7-.12,6.07-.44,12.37-.62,10.34-1.49,10.17c-1.55-1.29-3.17-1.24-3.91.11s2,1.91,3,1.24,1.18-.67,1.74-.45c2,2.92.06,17.87-.37,20.18C12,47,8.83,45.27,8.83,47.63s2.95,1.74,3.69,1.46c.75,2.19.75,14.22.31,15.85-.43.73-.31,1.46.56,1.57s1.18-.79,1.3-2.31C21.77,60,29.53,64.55,32,65.67c11.49-5.51,17-.67,19.15.51,9.13-5.45,17-.15,17.38-.37.4-.73,4.43-3.62,10.64-2.33a37,37,0,0,1,6.17,2.35c10.93-5.46,17.53-.67,19.54.5a17.6,17.6,0,0,1,15.53-1.17,18.94,18.94,0,0,0,3.65.84c.59-1.11.12-1.88-.38-4-.54-2.3-1-10.91-.36-10.91s3.44.75,3.08-1.38S124.12,49.65,123.1,48.66Zm2.89-20c.39.95-.84,1.15-2.17.21C123.81,28.9,125.6,27.74,126,28.69ZM9.18,27.81c-.5-.31-.73-.91.67-.9,2.19,0,1.43.37,1.83.67C11.68,27.59,9.68,28.12,9.18,27.81Zm.7,20.66c-.53-.53-.53-1.21,0-1.29s1.46.51,2,1.43C11.9,48.61,10.41,49,9.88,48.47Zm4.07,17.65c-1.4.32-.65-.93-.65-.93C14.65,64.35,14.09,65.86,13.95,66.12ZM15.19,5.58s-1.33-2.33-.25-2.73c.93-.39,1.58,1.12.75,2.75C15.62,5.84,15.38,5.92,15.19,5.58ZM35.9,5c-.09.08-1-.17-1-.17s-.62-1.91.12-2.22S36.71,2.77,35.9,5Zm18.44-.46c-.94,1.43-1.35.85-1.93-.21,0,0-1.76-.9-.47-1.8S55.27,3.08,54.34,4.51Zm17.3-1.7c1.17-.16,1.52.69-.06,1.54C71.58,4.35,70.46,3,71.63,2.81ZM89.05,5.67c-.09.08-.92-.17-.92-.17s-.59-1.89.12-2.2S89.82,3.49,89.05,5.67Zm18.87-.45c-.89,1.42-1.28.84-1.84-.21,0,0-1.67-.89-.45-1.79S108.81,3.8,107.92,5.21Zm13.49-.16s-.93-2.34.18-2.5S122.92,4.22,121.42,5.06Zm1.16,45s2.94-1,3.4-.4S124,51.62,122.57,50Z"/><path class="cls-15" d="M13.53,66.61h-.16a.89.89,0,0,1-.89-.89h0a1.63,1.63,0,0,1,.25-.81h0A43.25,43.25,0,0,0,13,58.61h0c0-3.78-.18-8.07-.57-9.4h0a5.5,5.5,0,0,1-1.61.26h0A2.55,2.55,0,0,1,9.4,49.1h0a1.66,1.66,0,0,1-.68-1.47h0a1.36,1.36,0,0,1,.31-1H9a1.05,1.05,0,0,1,.79-.3h0a4.43,4.43,0,0,1,2.83,1.52h0a104.74,104.74,0,0,0,1.21-14h0c0-2.65-.23-4.89-.85-5.83h0a1.2,1.2,0,0,0-.45-.11h0c-.23,0-.53.14-1.16.56h0a2.24,2.24,0,0,1-1.23.3h0c-.95,0-2-.39-2-1.17h0a1,1,0,0,1,.14-.48h0A2,2,0,0,1,10.08,26h0a3.63,3.63,0,0,1,2.24.94h0c.1,0,.29-.19.43-.66h0a12.13,12.13,0,0,0,.38-2h0c.22-1.77.37-4.31.52-7.4h0c.22-4.5.73-8,.73-10.23h0a5.73,5.73,0,0,0-.29-2.1h0A4.29,4.29,0,0,1,13.71,3h0c0-.75.47-1.15,1.22-1.26h0l.28,0h0a1.52,1.52,0,0,1,1,.38h0a1.58,1.58,0,0,1,.47,1.21h0a4.64,4.64,0,0,1-.53,1.94h0a.3.3,0,0,0,.07.07h0l.06,0,0,.06a8.28,8.28,0,0,0,.6.72h0a13,13,0,0,0,1.75,1.58h0A11,11,0,0,0,25.36,10h0c2.89,0,4.37-1.17,8.45-4.72h0v0h0a.9.9,0,0,0,0-.14h0c0-.26-.05-.76-.05-1.29h0A3.61,3.61,0,0,1,34,2.33h0a1.24,1.24,0,0,1,1.17-.77h.07a1.85,1.85,0,0,1,1.83,2h0a2.55,2.55,0,0,1-.46,1.49h0a17.11,17.11,0,0,0,3.45,2.31h0c2,1.06,2.92,2.07,5.88,2.07h0a8,8,0,0,0,2.46-.38h0A7.28,7.28,0,0,0,50,8.32h0A2.89,2.89,0,0,0,51.51,6h0a2.07,2.07,0,0,0,0-.26h0c-.16-1.32-.7-2.12-.7-2.79h0c0-.51.35-.9,1.34-1.27h0a2.61,2.61,0,0,1,.92-.17h0a2.66,2.66,0,0,1,2.57,2.59h0A1.9,1.9,0,0,1,55.3,5.2h0a1.82,1.82,0,0,0-.33,1h0c0,1.36,1.69,3,6.72,3.4h0q.55,0,1.08,0h0a9,9,0,0,0,5.59-1.84h0c1.6-1,2.5-2.16,2.49-2.7h0a.39.39,0,0,0,0-.13h0a7.37,7.37,0,0,1-.64-1.66h0c0-.44.39-.76,1.39-.87h0a5.69,5.69,0,0,1,.66,0h0a1.53,1.53,0,0,1,1,.25h0a.94.94,0,0,1,.31.78h0A8,8,0,0,1,73,5.71h0c0,.07,0,.14,0,.21h0c0,3,2.58,4.3,5.44,4.3h0a10.08,10.08,0,0,0,3.18-.52h0a10.71,10.71,0,0,0,2.77-1.46h0c.87-.61,1.69-1.81,2.71-2.3h0a1,1,0,0,0,0-.14h0C87.07,5.52,87,5,87,4.5h0A3.71,3.71,0,0,1,87.25,3h0a1.19,1.19,0,0,1,1.11-.76h.07a1.81,1.81,0,0,1,1.75,2h0a2.59,2.59,0,0,1-.44,1.48h0A16.14,16.14,0,0,0,93,8.06h0c1.93,1.05,3.51,2.06,6.32,2.06h0a11.24,11.24,0,0,0,2.92-.38h0A6.69,6.69,0,0,0,103.76,9h0a2.87,2.87,0,0,0,1.47-2.27h0a2.35,2.35,0,0,0,0-.26h0c-.15-1.31-.66-2.1-.67-2.76h0c0-.5.34-.89,1.27-1.26h0a2.4,2.4,0,0,1,.88-.17h0a2.59,2.59,0,0,1,2.45,2.57h0a1.94,1.94,0,0,1-.3,1.06h0a1.85,1.85,0,0,0-.31,1h0c0,1.35,0,3,4.75,3.37h0c.35,0,.69,0,1,0h0c2.6,0,2.52-.84,4-1.82h0c1.52-1,2.38-2.14,2.37-2.67h0a.41.41,0,0,0,0-.12h0a7.39,7.39,0,0,1-.54-2.11h0c0-.66.35-1.26,1.39-1.37h0l.31,0h0a1.48,1.48,0,0,1,1.29.63h0a2.73,2.73,0,0,1,.38,1.55h0a8.36,8.36,0,0,1-.47,2.53h0s-.62,1.65-1.24,4.09h0a36.93,36.93,0,0,0-1.24,8.77h0c0,3.13.63,6.16,2.48,8.19h0a.65.65,0,0,0,.47.27h0c.37,0,.8-.55,1.5-.57h0a1.6,1.6,0,0,1,1,.4h0a1.41,1.41,0,0,1,.63,1.1h0c0,.82-.91,1.52-2.09,1.52h0a3.27,3.27,0,0,1-1-.16h0l-.13,0h0c-.27,0-.64.26-1,.78h0a9.36,9.36,0,0,0-1.07,2.17h0a20.48,20.48,0,0,0-1.15,6.73h0c0,3.12.78,6.31,2.94,8.41h0l-.07.06-.08.06c-2.22-2.16-3-5.39-3-8.54h0c0-3.75,1.1-7.39,2.24-9h0c.38-.53.77-.86,1.18-.87h0a.67.67,0,0,1,.2,0h0a3.05,3.05,0,0,0,.92.15h0c1.1,0,1.89-.65,1.89-1.34h0a1.23,1.23,0,0,0-.55-1h0a1.39,1.39,0,0,0-.85-.35h0c-.56,0-.95.55-1.5.57h0a.86.86,0,0,1-.63-.33h0c-1.9-2.09-2.53-5.16-2.53-8.31h0a43,43,0,0,1,2.48-12.92h0a8.18,8.18,0,0,0,.46-2.47h0c0-1.21-.43-2-1.47-2h0l-.29,0h0c-1,.13-1.2.58-1.21,1.19h0a7.28,7.28,0,0,0,.53,2.06h0a.59.59,0,0,1,0,.18h0c0,.67-.91,1.81-2.46,2.82h0c-1.55,1-1.51,1.86-4.16,1.86h0c-.34,0-.69,0-1.05,0h0c-4.82-.4-4.94-2.05-4.94-3.56h0a2,2,0,0,1,.34-1.11h0a1.76,1.76,0,0,0,.28-1h0a2.51,2.51,0,0,0-.65-1.63h0a2.15,2.15,0,0,0-1.6-.75h0a2.16,2.16,0,0,0-.8.16h0c-.92.37-1.15.67-1.15,1.09h0c0,.57.51,1.41.67,2.74h0a2.35,2.35,0,0,1,0,.28h0c0,2.21-3.08,3.18-3.09,3.19h0a11.42,11.42,0,0,1-3,.39h0c-2.87,0-4.48-1-6.43-2.08h0a15.22,15.22,0,0,1-3.39-2.39h0l0-.05,0-.05A2.4,2.4,0,0,0,90,4.3h0c0-1-.51-1.82-1.54-1.82h-.06a1,1,0,0,0-.93.65h0a3.54,3.54,0,0,0-.22,1.38h0c0,.52.05,1,.05,1.28h0c0,.13,0,.21-.1.3h0c-.95.44-1.79,1.64-2.7,2.3h0a10.9,10.9,0,0,1-2.82,1.49h0a10.29,10.29,0,0,1-3.25.54h0a6.9,6.9,0,0,1-3.91-1.06h0a4,4,0,0,1-1.73-3.43h0c0-.07,0-.15,0-.23h0a7.94,7.94,0,0,0,.55-2.21h0c0-.61-.26-.82-1.08-.84h0a5.31,5.31,0,0,0-.63,0h0c-1,.13-1.21.37-1.22.68h0A7.93,7.93,0,0,0,71,5h0a.55.55,0,0,1,0,.18h0C71,5.82,70.1,7,68.48,8h0a9.25,9.25,0,0,1-5.7,1.87h0c-.36,0-.73,0-1.1,0h0c-5.06-.41-6.9-2.07-6.9-3.59h0a2,2,0,0,1,.36-1.12h0a1.73,1.73,0,0,0,.29-1h0a2.48,2.48,0,0,0-.68-1.64h0a2.29,2.29,0,0,0-1.68-.76h0a2.37,2.37,0,0,0-.85.16h0C51.24,2.25,51,2.56,51,3h0c0,.58.53,1.42.7,2.77h0a2.22,2.22,0,0,1,0,.28h0c0,2.23-3.24,3.21-3.25,3.22h0a8.19,8.19,0,0,1-2.52.39h0c-3,0-3.93-1-6-2.1h0A16,16,0,0,1,36.4,5.13h0l0-.05,0-.05a2.35,2.35,0,0,0,.47-1.44h0a1.66,1.66,0,0,0-1.63-1.84h-.06a1,1,0,0,0-1,.65h0A3.45,3.45,0,0,0,34,3.79h0c0,.52.05,1,.05,1.29h0a1,1,0,0,1,0,.17h0a.18.18,0,0,1-.07.12h0c-4.1,3.58-5.63,4.78-8.59,4.78h0A12,12,0,0,1,16.22,5.5h0A.42.42,0,0,1,16,5.29h0l0,0a4.1,4.1,0,0,1-.17.38h0a.33.33,0,0,1-.31.26h0a.45.45,0,0,1-.37-.28h0a5.35,5.35,0,0,1-.69-2h0a.78.78,0,0,1,.49-.81h0a.86.86,0,0,1,.33-.07h0c.59,0,.94.63.94,1.42h0a3.16,3.16,0,0,1-.18,1h0A4.47,4.47,0,0,0,16.5,3.3h0a1.26,1.26,0,0,0-1.3-1.41h0l-.24,0h0c-.69.11-1,.4-1,1.07h0a4.14,4.14,0,0,0,.38,1.5h0a5.89,5.89,0,0,1,.3,2.17h0c0,2.28-.51,5.74-.73,10.23h0c-.23,4.63-.45,8-.91,9.48h0c-.16.47-.32.77-.63.79h-.1l0,0a3.43,3.43,0,0,0-2.12-.91h0a1.79,1.79,0,0,0-1.63,1h0a.83.83,0,0,0-.12.4h0c0,.3.22.54.57.72h0a3,3,0,0,0,1.27.27h0a2,2,0,0,0,1.1-.27h0a2.51,2.51,0,0,1,1.28-.6h0a1.51,1.51,0,0,1,.56.14h0l0,0c.68,1,.89,3.26.9,5.95h0a103.53,103.53,0,0,1-1.26,14.29h0l0,.26-.14-.23a4.21,4.21,0,0,0-2.8-1.63h0c-.52,0-.88.25-.89,1.08h0c0,1.34.94,1.64,1.92,1.66h0A5.16,5.16,0,0,0,12.48,49h0l.1,0,0,.1c.43,1.28.61,5.67.61,9.55h0a42.19,42.19,0,0,1-.3,6.34h0a1.46,1.46,0,0,0-.23.73h0c0,.38.21.64.71.71h.13c.33,0,.55-.18.73-.56h0a5.33,5.33,0,0,0,.33-1.66h0v0l0,0a13.67,13.67,0,0,1,7-1.75h0c5.41,0,8.6,2.38,10.38,3.18h0A24.52,24.52,0,0,1,42.66,63h0c5.67,0,7.09,2.27,8.51,3.07h0a17.3,17.3,0,0,1,9-2.45h0a17.15,17.15,0,0,1,7.48,1.78h0a8.38,8.38,0,0,0,.88.32h0a6,6,0,0,1,2.25-1.55h0a12.88,12.88,0,0,1,5.34-1.11h0a15.4,15.4,0,0,1,3.14.33h0a36.83,36.83,0,0,1,6.14,2.33h0c3.8-1.89,6.19-2.55,9.1-2.55h0a19.92,19.92,0,0,1,10.44,3h0a17.58,17.58,0,0,1,9.56-2.42h0c3.25,0,2.89.53,5.28,1.06h0c2.3.51,4,1,4.27,1.06h0a2.05,2.05,0,0,0,.24-1h0A16.77,16.77,0,0,0,123.6,62h0a52.18,52.18,0,0,1-.67-8.44h0a9.87,9.87,0,0,1,.17-2.32h0c0-.12.08-.23.24-.25h0c.29,0,.91.13,1.52.13h0c.79,0,1.48-.18,1.49-1.06h0a2,2,0,0,0,0-.34h0c-.15-.79-.44-.93-.85-.93h0c-.45,0-1,.23-1.59.24h0a1.17,1.17,0,0,1-.85-.32h0l.08-.06.07-.06a1,1,0,0,0,.7.26h0c.49,0,1.08-.23,1.59-.24h0c.5,0,.93.27,1.05,1.09h0a2.2,2.2,0,0,1,0,.37h0a1.08,1.08,0,0,1-.54,1h0a2.35,2.35,0,0,1-1.15.24h0c-.63,0-1.26-.12-1.51-.13h0a.42.42,0,0,0-.05.11h0a2.69,2.69,0,0,0-.09.5h0a17.15,17.15,0,0,0-.07,1.77h0A52.26,52.26,0,0,0,123.8,62h0a16.7,16.7,0,0,1,.66,3h0a2.25,2.25,0,0,1-.28,1.09h0v0h0l-.09,0h0c-.35,0-2-.53-4.35-1.06h0c-2.38-.53-2-1.06-5.23-1.06h0A17.3,17.3,0,0,0,105,66.4h0l-.06,0-.06,0a19.75,19.75,0,0,0-10.39-3h0c-2.89,0-5.26.65-9.05,2.55h0l0,0,0,0a36.78,36.78,0,0,0-6.15-2.34h0a15,15,0,0,0-3.09-.33h0a12.64,12.64,0,0,0-5.25,1.09h0a5.63,5.63,0,0,0-2.18,1.51h0v0h0a.17.17,0,0,1-.09,0h0a4.67,4.67,0,0,1-1-.33h0c-.5-.2-1.19-.46-2-.72h0a14.68,14.68,0,0,0-5.39-1h0a17.09,17.09,0,0,0-8.9,2.46h0l-.05,0-.06,0c-1.38-.77-2.77-3.07-8.46-3.07h0a24.31,24.31,0,0,0-10.59,2.57h0l0,0,0,0C30.25,65,27,62.57,21.64,62.57h0a13.46,13.46,0,0,0-6.85,1.69h0a5.39,5.39,0,0,1-.34,1.68h0a1,1,0,0,1-.91.68h0Zm2.06-61h0A3.21,3.21,0,0,0,16,4.12h0a1.71,1.71,0,0,0-.22-.91h0a.62.62,0,0,0-.51-.33h0a.65.65,0,0,0-.25.06h0c-.26.09-.36.32-.36.64h0a3.59,3.59,0,0,0,.33,1.28h0a6.93,6.93,0,0,0,.33.68h0l-.09,0,.09,0c.08.15.16.18.19.17h0s.09,0,.12-.13ZM13.12,66.12A.44.44,0,0,1,13,65.8h0a1.51,1.51,0,0,1,.21-.65h0v0h0a1.41,1.41,0,0,1,.68-.27h0a.33.33,0,0,1,.29.14h0a.5.5,0,0,1,.07.29h0a2.31,2.31,0,0,1-.24.89h0l0,0h0a2,2,0,0,1-.42.05h0a.61.61,0,0,1-.43-.14Zm.08-.32c0,.17,0,.27.35.28h0a1.66,1.66,0,0,0,.32,0h0a2.16,2.16,0,0,0,.2-.77h0c0-.18,0-.24-.16-.24h0a1.2,1.2,0,0,0-.55.22h0a1.36,1.36,0,0,0-.18.55ZM122.49,50.1l.08-.06,0,.09,0-.09-.08.06-.09-.1.13,0a11.7,11.7,0,0,1,2.79-.6h0a.9.9,0,0,1,.73.23h0a.35.35,0,0,1,.07.22h0c0,.26-.24.51-.59.71h0a2.66,2.66,0,0,1-1.31.35h0a2.29,2.29,0,0,1-1.73-.76Zm1.73.58a2.46,2.46,0,0,0,1.2-.32h0c.32-.18.5-.41.49-.56h0a.18.18,0,0,0,0-.11h0c-.06-.09-.27-.15-.56-.15h0a10.74,10.74,0,0,0-2.58.54h0a2.07,2.07,0,0,0,1.48.6ZM9.81,48.53l.08-.06.08-.06a1.25,1.25,0,0,0,.87.25h0a4.67,4.67,0,0,0,.91-.11h0A2.65,2.65,0,0,0,10,47.26H9.9a.35.35,0,0,0-.31.39h0a1.14,1.14,0,0,0,.37.75h0l-.08.06-.08.06a1.32,1.32,0,0,1-.42-.88h0a.54.54,0,0,1,.48-.57H10a2.88,2.88,0,0,1,2,1.49h0l.06.1-.12,0a5,5,0,0,1-1.1.14h0a1.45,1.45,0,0,1-1-.31ZM123.75,29l-.11-.08.11-.07a3.82,3.82,0,0,1,1.62-.6h0a.71.71,0,0,1,.71.43h0l-.1,0-.1,0a.5.5,0,0,0-.52-.31h0a2.52,2.52,0,0,0-1,.28h0l-.4.21h0a2.73,2.73,0,0,0,1.41.52h0c.37,0,.55-.14.56-.4h0a.78.78,0,0,0-.07-.29h0l.1,0,.1,0a1,1,0,0,1,.08.36h0a.52.52,0,0,1-.22.44h0a.92.92,0,0,1-.54.15h0a3,3,0,0,1-1.65-.63ZM9.13,27.89l.06-.08.06-.08a1,1,0,0,0,.46.08h0a9.08,9.08,0,0,0,1.8-.28h0a.51.51,0,0,1-.07-.16h0a.3.3,0,0,0-.07-.17h0c-.08-.09-.42-.19-1.51-.2h0a1.86,1.86,0,0,0-.74.11h0c-.13.07-.17.13-.17.2h0c0,.12.14.3.34.43h0l-.06.08-.06.08a.8.8,0,0,1-.43-.58h0A.41.41,0,0,1,9,26.95H9a2.08,2.08,0,0,1,.83-.13h0a4.9,4.9,0,0,1,1.48.15h0a.44.44,0,0,1,.31.37h0a.29.29,0,0,0,.11.18h0l.15.11-.18,0a10,10,0,0,1-2,.32h0a1.15,1.15,0,0,1-.58-.11ZM106,5.07c-.15-.09-.9-.53-.92-1.15h0a1,1,0,0,1,.49-.77h0a1.53,1.53,0,0,1,.91-.29h0a1.76,1.76,0,0,1,1.77,1.62h0a1.46,1.46,0,0,1-.24.79h0c-.38.6-.67.88-1,.89h0c-.44,0-.68-.49-1-1.08Zm-.3-1.78a.81.81,0,0,0-.41.63h0a1,1,0,0,0,.42.7h0a2.61,2.61,0,0,0,.43.3h0V5c.31.61.6,1,.83,1h0c.17,0,.45-.2.83-.8h0a1.31,1.31,0,0,0,.21-.7h0A1.58,1.58,0,0,0,106.48,3h0a1.32,1.32,0,0,0-.78.25ZM88.1,5.59l-.05,0,0,0a5.55,5.55,0,0,1-.24-1.4h0c0-.38.07-.76.41-.91h0a1,1,0,0,1,.42-.09h0a.74.74,0,0,1,.59.27h0a1.27,1.27,0,0,1,.24.83h0a4.55,4.55,0,0,1-.31,1.47h0v0h0a.21.21,0,0,1-.15,0h0a4.83,4.83,0,0,1-.87-.19Zm.39-.09a2.55,2.55,0,0,0,.48.09h0a4.33,4.33,0,0,0,.28-1.37h0c0-.7-.3-.91-.62-.91h0a.84.84,0,0,0-.33.07h0c-.2.08-.29.38-.29.75h0a5.19,5.19,0,0,0,.21,1.3h0l.28.07ZM52.33,4.36c-.16-.09-.95-.53-1-1.16h0a1,1,0,0,1,.51-.78h0a1.63,1.63,0,0,1,.95-.29h0a1.82,1.82,0,0,1,1.85,1.63h0a1.45,1.45,0,0,1-.25.8h0c-.4.61-.71.89-1,.9h0c-.46,0-.71-.5-1-1.09ZM52,2.57c-.33.23-.43.44-.43.63h0a1,1,0,0,0,.44.71h0a2.77,2.77,0,0,0,.45.31h0v0c.33.62.63,1,.88,1h0c.18,0,.48-.2.87-.81h0a1.28,1.28,0,0,0,.22-.7h0a1.63,1.63,0,0,0-1.65-1.45h0a1.41,1.41,0,0,0-.82.26Zm69.32,2.52a5.52,5.52,0,0,1-.37-1.67h0c0-.44.14-.87.63-.95h.15a.89.89,0,0,1,.86,1h0a2,2,0,0,1-1.12,1.69h0l-.11.06,0-.11Zm.1,0,.1,0-.1,0Zm.2-2.41c-.34,0-.46.34-.46.76h0a5,5,0,0,0,.32,1.5h0a1.8,1.8,0,0,0,.91-1.47h0c0-.47-.25-.8-.65-.8h-.12ZM34.9,4.89h-.05v0a5.43,5.43,0,0,1-.25-1.41h0c0-.39.08-.77.43-.92h0a1.14,1.14,0,0,1,.44-.09h0a.79.79,0,0,1,.62.27h0a1.25,1.25,0,0,1,.25.83h0A4.46,4.46,0,0,1,36,5h0V5l0,0a.23.23,0,0,1-.15,0h0a5.16,5.16,0,0,1-.91-.19Zm.41-.09a2.69,2.69,0,0,0,.5.09h0a4.23,4.23,0,0,0,.29-1.38h0c0-.7-.32-.91-.66-.92h0a.9.9,0,0,0-.35.07h0c-.21.08-.31.38-.31.75h0A5.12,5.12,0,0,0,35,4.72h0l.29.08Zm36.18-.39a2.26,2.26,0,0,1-.5-1.1h0c0-.27.18-.53.62-.58h0l.29,0h0c.48,0,.83.21.84.55h0c0,.36-.35.77-1.11,1.18h0l-.08,0-.05-.07Zm-.29-1.1a1.45,1.45,0,0,0,.23.65h0a3,3,0,0,0,.18.27h0c.68-.38.94-.75.93-1h0c0-.21-.2-.36-.63-.37h0l-.26,0h0c-.37.06-.44.2-.45.4Z"/><path class="cls-16" d="M12.14,26.33a2.26,2.26,0,0,1-1.92-.13c-.83-.34-1.4-.86-1.38-1.23-.12.36.46.93,1.34,1.29S11.91,26.64,12.14,26.33Z"/><path class="cls-17" d="M10.11,25.78,9,27.51s.27.44.59.06,1.28-1.47,1.28-1.47Z"/><path class="cls-18" d="M9.59,27.57c.42-.46,1.28-1.47,1.28-1.47l-.77-.32-.28.45a2.84,2.84,0,0,0,.38.25c0,.11-.61,1.09-1.15,1.11A.31.31,0,0,0,9.59,27.57Z"/><path class="cls-19" d="M12.16,26.33c-.19.38-1.08.38-2,0s-1.5-1-1.31-1.36,1.08-.38,2,0S12.34,26,12.16,26.33Z"/><path class="cls-20" d="M12.17,26.28c-.18.36-1.07.35-2,0s-1.51-1-1.33-1.33,1.07-.35,2,0S12.35,25.92,12.17,26.28Z"/><path class="cls-21" d="M10.17,26.32c-.81-.34-1.39-.83-1.4-1.25h0a.36.36,0,0,1,0-.17h0c.11-.21.4-.3.75-.3h0a3.6,3.6,0,0,1,1.32.29h0c.81.34,1.39.83,1.4,1.25h0a.36.36,0,0,1,0,.16h0l-.06,0,.06,0c-.11.21-.4.3-.75.3h0a3.64,3.64,0,0,1-1.32-.29ZM8.93,25a.24.24,0,0,0,0,.11h0c0,.31.53.81,1.32,1.13h0a3.49,3.49,0,0,0,1.26.28h0c.34,0,.56-.09.63-.23h0a.26.26,0,0,0,0-.11h0c0-.31-.53-.81-1.32-1.13h0a3.48,3.48,0,0,0-1.26-.28h0c-.34,0-.56.09-.62.23Z"/><path class="cls-22" d="M12,26.25c-.11.22-.64.21-1.18,0s-.9-.58-.79-.79.64-.21,1.18,0S12.12,26,12,26.25Z"/><path class="cls-16" d="M11.64,45.4c-.09.36-.78.73-1.66.87s-1.69,0-1.9-.31c.12.36,1,.53,1.91.38S11.65,45.77,11.64,45.4Z"/><path class="cls-17" d="M9.62,46l.17,2s.5.23.52-.26.14-1.87.14-1.87Z"/><path class="cls-18" d="M10.31,47.72c.06-.6.14-1.87.14-1.87L9.62,46l0,.52a3.2,3.2,0,0,0,.47,0c0,.11.18,1.21-.26,1.5C10,48.05,10.3,48.08,10.31,47.72Z"/><path class="cls-19" d="M11.65,45.39c.08.41-.66.87-1.64,1s-1.85,0-1.93-.45.66-.87,1.64-1S11.57,45,11.65,45.39Z"/><path class="cls-20" d="M11.64,45.34c.08.39-.66.83-1.65,1s-1.85,0-1.93-.42.66-.83,1.65-1S11.56,45,11.64,45.34Z"/><path class="cls-21" d="M8,45.93a.3.3,0,0,1,0-.07H8c0-.45.76-.84,1.71-1h0a4.38,4.38,0,0,1,.7-.06h0c.68,0,1.23.17,1.31.53h0a.39.39,0,0,1,0,.07h0c0,.45-.76.84-1.71,1h0a4.4,4.4,0,0,1-.7.06h0c-.68,0-1.23-.17-1.31-.53Zm2.4-1a4.4,4.4,0,0,0-.67.06h0c-.93.14-1.62.57-1.6.88h0a.23.23,0,0,0,0,0h0c0,.23.51.43,1.17.42h0a4.27,4.27,0,0,0,.67-.05h0c.93-.14,1.62-.57,1.6-.88h0a.22.22,0,0,0,0,0h0c0-.23-.5-.42-1.15-.42h0Z"/><path class="cls-22" d="M10.42,45.6c0,.23-.39.5-1,.59s-1.1,0-1.15-.25.4-.5,1-.59S10.37,45.37,10.42,45.6Z"/><path class="cls-18" d="M15.3,3.25s-.18.1.11.08.33-.11.33-.21S15.3,3.25,15.3,3.25Z"/><path class="cls-23" d="M71.58,4.67A11.34,11.34,0,0,1,70.83,7c-.44.84-.82,1.61-.26,1.8S71.83,5.43,71.58,4.67Z"/><path class="cls-23" d="M71.78,4.68a4,4,0,0,1,.63,2c-.12.81.54,1.12,1,.78S72.72,5.16,71.78,4.68Z"/><path class="cls-24" d="M69.84,4.84A1.38,1.38,0,0,0,71,4.64h0l0,0a1.59,1.59,0,0,0-1.66-.18c-.06,0-.09,0-.1.06l.06,0-.06,0C69.24,4.56,69.44,4.66,69.84,4.84Z"/><path class="cls-24" d="M69.38,4.44c-.25.08-.06.16.45.41S71,4.62,71,4.62A1.59,1.59,0,0,0,69.38,4.44Z"/><path class="cls-23" d="M71.29,4.26C71,4,69.6,3.06,69.09,3.38s-.21,1.61.38,2,2-.76,2-.76S71.52,4.45,71.29,4.26Zm-1.45.59c-.51-.25-.7-.33-.45-.41A1.59,1.59,0,0,1,71,4.62S70.35,5.09,69.84,4.84Z"/><path class="cls-25" d="M69.84,4.84c-.39-.19-.59-.28-.56-.35s-.06,0,0,.12a1.06,1.06,0,0,0,1,.52,2.69,2.69,0,0,0,.87-.49H71A1.38,1.38,0,0,1,69.84,4.84Z"/><path class="cls-25" d="M71.43,4.65l0,0s.07-.18-.16-.37-1.69-1.2-2.19-.88a.83.83,0,0,0-.25.82A1.71,1.71,0,0,1,69.24,4,3.56,3.56,0,0,1,71.43,4.65Z"/><path class="cls-25" d="M71.27,4.43a5.54,5.54,0,0,0-1.52-.79c-.48-.05-.12.16.19.29s.16,0,0-.07,0-.13.33,0Z"/><path class="cls-23" d="M71.88,4.58S73.45,5.52,74,5s.58-1.8,0-2-1.74.91-2,1.19S71.88,4.58,71.88,4.58Zm.4-.07a1.58,1.58,0,0,1,1.61-.42c.26,0,.09.15-.38.47S72.28,4.51,72.28,4.51Z"/><path class="cls-25" d="M73.5,4.56c.36-.24.54-.36.49-.42s.1.08.09.18a1,1,0,0,1-.92.59,2.81,2.81,0,0,1-.94-.36l.09,0A1.39,1.39,0,0,0,73.5,4.56Z"/><path class="cls-25" d="M71.9,4.6h0s-.1-.17.09-.39S73.43,2.76,74,3a.86.86,0,0,1,.39.77A1.75,1.75,0,0,0,74,3.66C73.28,3.55,72.3,4.27,71.9,4.6Z"/><path class="cls-25" d="M72,4.35a5.3,5.3,0,0,1,1.36-1c.46-.12.15.14-.14.32s-.16,0,0-.06,0-.13-.32.08Z"/><path class="cls-24" d="M73.92,3.82c-.37-.46-1.86.59-1.86.59C73.37,4.8,74.29,4.29,73.92,3.82Z"/><path class="cls-25" d="M71.62,4.87A12.64,12.64,0,0,1,70.9,8.2c-.21.36-.12.6-.44.53l.11.05C71.1,9,71.73,5.91,71.62,4.87Z"/><path class="cls-25" d="M72.58,6.37A2.65,2.65,0,0,0,72,5.13a3.08,3.08,0,0,1,.39,1.57c-.09.63.28,1,.68.91C72.65,7.42,72.58,6.86,72.58,6.37Z"/><path class="cls-26" d="M73.35,7.48s.29-.06.06-.7a2.89,2.89,0,0,0-.24-.52,2.74,2.74,0,0,1,.2.61c0,.17,0,.47-.15.53S73.18,7.59,73.35,7.48Z"/><path class="cls-23" d="M72.08,4.48c0,.17-.07.31-.17.31l-.43,0c-.11,0-.2-.12-.21-.29h0c0-.17.07-.3.17-.31l.43,0c.11,0,.2.12.21.29Z"/><path class="cls-25" d="M71.52,4.52c.2,0,.34-.12.43-.1h.13c0-.14-.11-.24-.21-.24l-.43,0c-.1,0-.17.12-.17.26C71.3,4.43,71.39,4.52,71.52,4.52Z"/><path class="cls-16" d="M37.94,1.27c-.21.31-1,.47-1.88.35s-1.61-.48-1.7-.84c0,.38.73.78,1.68.91S37.81,1.63,37.94,1.27Z"/><path class="cls-17" d="M35.81,1.25,35.28,3.2s.39.36.58-.1.78-1.73.78-1.73Z"/><path class="cls-18" d="M35.87,3.1c.26-.55.78-1.73.78-1.73l-.84-.12-.14.5a2.85,2.85,0,0,0,.44.14c0,.11-.25,1.2-.76,1.35A.31.31,0,0,0,35.87,3.1Z"/><path class="cls-19" d="M37.95,1.27c-.07.41-.92.63-1.92.5s-1.74-.57-1.68-1,.92-.63,1.92-.5S38,.86,37.95,1.27Z"/><path class="cls-20" d="M38,1.22c-.06.39-.92.6-1.91.47S34.3,1.14,34.36.75s.92-.6,1.91-.47S38,.83,38,1.22Z"/><path class="cls-21" d="M36,1.75c-1-.13-1.73-.51-1.75-1h0a.23.23,0,0,1,0-.06h0c.08-.38.67-.56,1.4-.57h0a4.48,4.48,0,0,1,.59,0h0c1,.13,1.73.51,1.75,1h0a.47.47,0,0,1,0,.05h0c-.08.38-.67.56-1.41.57h0a4.56,4.56,0,0,1-.58,0Zm-1.6-1a.17.17,0,0,0,0,0h0c0,.31.68.72,1.63.84h0a4.24,4.24,0,0,0,.56,0h0c.72,0,1.24-.21,1.27-.46h0a.22.22,0,0,0,0,0h0c0-.31-.68-.72-1.63-.84h0a4.26,4.26,0,0,0-.57,0h0c-.71,0-1.22.21-1.24.46Z"/><path class="cls-22" d="M36.67,1c0,.23-.55.36-1.14.28s-1-.33-1-.56S35.07.33,35.67.4,36.71.73,36.67,1Z"/><path class="cls-16" d="M74.13,1.44c-.21.31-1,.47-1.88.35s-1.61-.48-1.7-.84c0,.38.73.78,1.68.91S74,1.8,74.13,1.44Z"/><path class="cls-17" d="M72,1.42l-.53,1.95s.39.36.58-.1.78-1.73.78-1.73Z"/><path class="cls-18" d="M72.06,3.27c.26-.55.78-1.73.78-1.73L72,1.42l-.14.5a3,3,0,0,0,.44.14c0,.11-.25,1.2-.77,1.35A.31.31,0,0,0,72.06,3.27Z"/><path class="cls-19" d="M74.14,1.43c-.06.41-.92.63-1.92.5s-1.74-.57-1.68-1,.92-.63,1.92-.5S74.21,1,74.14,1.43Z"/><path class="cls-20" d="M74.15,1.39c-.06.39-.92.6-1.91.47s-1.75-.55-1.68-.95.92-.6,1.91-.47S74.21,1,74.15,1.39Z"/><path class="cls-21" d="M72.23,1.92c-1-.14-1.73-.51-1.75-1h0a.24.24,0,0,1,0-.06h0c.08-.38.67-.56,1.41-.57h0a4.54,4.54,0,0,1,.58,0h0c1,.13,1.73.51,1.75,1h0a.39.39,0,0,1,0,.05h0c-.08.38-.67.56-1.41.57h0a4.7,4.7,0,0,1-.58,0Zm-1.6-1a.17.17,0,0,0,0,0h0c0,.31.68.72,1.63.84h0a4.25,4.25,0,0,0,.56,0h0c.72,0,1.24-.21,1.27-.46h0s0,0,0,0h0C74.1,1,73.4.62,72.45.5h0a4.42,4.42,0,0,0-.56,0h0c-.71,0-1.22.21-1.24.46Z"/><path class="cls-22" d="M72.86,1.14c0,.23-.55.36-1.14.28s-1-.33-1-.56.55-.36,1.14-.28S72.9.9,72.86,1.14Z"/><path class="cls-16" d="M108.86,1.47a2.23,2.23,0,0,1-1.88.35c-.9-.12-1.61-.48-1.7-.84,0,.38.73.78,1.68.91S108.74,1.82,108.86,1.47Z"/><path class="cls-17" d="M106.74,1.44l-.53,1.95s.39.36.58-.1.78-1.73.78-1.73Z"/><path class="cls-18" d="M106.79,3.3c.26-.55.78-1.73.78-1.73l-.84-.12-.14.5a2.91,2.91,0,0,0,.44.14c0,.11-.25,1.2-.77,1.35A.31.31,0,0,0,106.79,3.3Z"/><path class="cls-19" d="M108.87,1.46c-.06.41-.92.63-1.92.5s-1.74-.57-1.68-1,.92-.63,1.92-.5S108.94,1.05,108.87,1.46Z"/><path class="cls-20" d="M108.88,1.41c-.06.39-.92.6-1.91.47s-1.75-.55-1.68-.95.92-.6,1.91-.47S108.94,1,108.88,1.41Z"/><path class="cls-21" d="M107,1.95c-1-.13-1.73-.51-1.75-1h0a.27.27,0,0,1,0-.06h0c.08-.38.67-.56,1.41-.57h0a4.4,4.4,0,0,1,.59,0h0c1,.13,1.73.51,1.75,1h0a.33.33,0,0,1,0,.05h0c-.08.38-.67.56-1.41.57h0a4.52,4.52,0,0,1-.58,0Zm-1.6-1a.15.15,0,0,0,0,0h0c0,.31.68.72,1.63.84h0a4.41,4.41,0,0,0,.56,0h0c.72,0,1.24-.21,1.27-.46h0s0,0,0,0h0c0-.31-.68-.72-1.63-.84h0a4.51,4.51,0,0,0-.56,0h0c-.71,0-1.22.21-1.24.46Z"/><path class="cls-22" d="M107.6,1.16c0,.23-.55.36-1.14.28s-1-.33-1-.56S106,.52,106.59.6,107.63.93,107.6,1.16Z"/><path class="cls-16" d="M16.39.38c0,.37-.56.88-1.38,1.22a2.21,2.21,0,0,1-1.93.12c.22.32,1.08.3,2-.06S16.49.74,16.39.38Z"/><path class="cls-17" d="M14.58,1.4l.71,1.9s.54.11.44-.36-.37-1.84-.37-1.84Z"/><path class="cls-18" d="M15.73,2.93c-.11-.59-.37-1.84-.37-1.84l-.78.31.18.49a3.18,3.18,0,0,0,.46-.1c.06.1.5,1.13.16,1.51C15.54,3.31,15.81,3.28,15.73,2.93Z"/><path class="cls-19" d="M16.4.37c.19.38-.4,1-1.31,1.36s-1.81.37-2,0,.4-1,1.31-1.36S16.21,0,16.4.37Z"/><path class="cls-20" d="M16.37.33c.18.36-.42,1-1.33,1.33s-1.8.39-2,0,.41-1,1.33-1.33S16.19,0,16.37.33Z"/><path class="cls-21" d="M13,1.71a.37.37,0,0,1,0-.17h0c0-.42.59-.91,1.4-1.25h0A3.65,3.65,0,0,1,15.68,0h0c.36,0,.64.09.75.3h0l-.06,0-.06,0C16.24.21,16,.13,15.68.13h0a3.46,3.46,0,0,0-1.26.28h0c-.79.32-1.33.83-1.32,1.13h0a.26.26,0,0,0,0,.11h0c.06.14.29.23.63.22h0A3.48,3.48,0,0,0,15,1.6h0c.79-.32,1.33-.83,1.32-1.13h0a.24.24,0,0,0,0-.11h0l.06,0,.06,0a.37.37,0,0,1,0,.17h0c0,.42-.59.91-1.4,1.25h0A3.65,3.65,0,0,1,13.75,2h0c-.35,0-.64-.09-.75-.3Z"/><path class="cls-22" d="M15.14.74c.11.21-.25.57-.79.79s-1.07.23-1.18,0S13.41,1,14,.76,15,.53,15.14.74Z"/><path class="cls-16" d="M53,.57c0,.37-.56.88-1.38,1.22a2.21,2.21,0,0,1-1.93.12c.22.32,1.08.3,2-.06S53.14.93,53,.57Z"/><path class="cls-17" d="M51.23,1.59l.71,1.9s.54.11.43-.36S52,1.28,52,1.28Z"/><path class="cls-18" d="M52.38,3.12C52.27,2.53,52,1.28,52,1.28l-.78.31.18.49a3.22,3.22,0,0,0,.46-.1c.06.1.5,1.13.16,1.51C52.18,3.5,52.46,3.47,52.38,3.12Z"/><path class="cls-19" d="M53,.56c.19.38-.4,1-1.31,1.36s-1.81.37-2,0,.4-1,1.31-1.36S52.85.18,53,.56Z"/><path class="cls-20" d="M53,.52c.18.36-.41,1-1.33,1.33s-1.8.39-2,0S50.12.92,51,.54,52.84.16,53,.52Z"/><path class="cls-21" d="M49.64,1.9a.37.37,0,0,1,0-.17h0c0-.42.59-.91,1.4-1.25h0A3.62,3.62,0,0,1,52.33.19h0c.35,0,.64.09.75.3h0L53,.52,53,.54c-.07-.14-.29-.23-.63-.23h0A3.45,3.45,0,0,0,51.07.6h0c-.79.32-1.33.83-1.32,1.13h0a.25.25,0,0,0,0,.11h0c.07.14.29.23.63.23h0a3.48,3.48,0,0,0,1.26-.28h0C52.45,1.47,53,1,53,.66h0a.26.26,0,0,0,0-.11h0l.06,0,.06,0a.37.37,0,0,1,0,.17h0c0,.42-.59.91-1.4,1.25h0a3.65,3.65,0,0,1-1.32.29h0c-.35,0-.64-.09-.75-.3Z"/><path class="cls-22" d="M51.79.93c.11.21-.25.57-.79.79s-1.07.23-1.18,0,.25-.57.79-.79S51.68.72,51.79.93Z"/><path class="cls-16" d="M122.63.57c0,.37-.56.88-1.38,1.22a2.21,2.21,0,0,1-1.93.12c.22.32,1.08.3,2-.06S122.74.93,122.63.57Z"/><path class="cls-17" d="M120.83,1.59l.71,1.9s.54.11.43-.36-.37-1.84-.37-1.84Z"/><path class="cls-18" d="M122,3.12c-.11-.59-.37-1.84-.37-1.84l-.78.31.18.49a3.21,3.21,0,0,0,.46-.1c.06.1.5,1.13.16,1.51C121.78,3.5,122.06,3.47,122,3.12Z"/><path class="cls-19" d="M122.64.56c.19.38-.4,1-1.31,1.36s-1.81.37-2,0,.4-1,1.31-1.36S122.45.18,122.64.56Z"/><path class="cls-20" d="M122.61.52c.18.36-.41,1-1.33,1.33s-1.8.39-2,0,.41-1,1.33-1.33S122.43.16,122.61.52Z"/><path class="cls-21" d="M119.24,1.9a.38.38,0,0,1,0-.17h0c0-.42.59-.91,1.4-1.25h0a3.62,3.62,0,0,1,1.32-.29h0c.35,0,.64.09.75.3h0l-.06,0-.06,0c-.07-.14-.29-.23-.63-.23h0a3.45,3.45,0,0,0-1.26.28h0c-.79.32-1.33.83-1.32,1.13h0a.26.26,0,0,0,0,.11h0c.07.14.29.23.63.23h0a3.48,3.48,0,0,0,1.26-.28h0c.79-.32,1.33-.83,1.32-1.13h0a.26.26,0,0,0,0-.11h0l.06,0,.06,0a.37.37,0,0,1,0,.17h0c0,.42-.59.91-1.4,1.25h0A3.65,3.65,0,0,1,120,2.2h0c-.36,0-.64-.09-.75-.3Z"/><path class="cls-22" d="M121.38.93c.11.21-.25.57-.79.79s-1.07.23-1.18,0,.25-.57.79-.79S121.28.72,121.38.93Z"/><path class="cls-16" d="M89.47.76c0,.37-.56.88-1.38,1.21a2.21,2.21,0,0,1-1.93.12c.22.32,1.08.3,2-.06S89.57,1.12,89.47.76Z"/><path class="cls-17" d="M87.66,1.78l.71,1.9s.54.11.43-.37-.37-1.84-.37-1.84Z"/><path class="cls-18" d="M88.81,3.31c-.11-.59-.37-1.84-.37-1.84l-.78.31.18.49a3.13,3.13,0,0,0,.46-.1c.06.1.5,1.13.16,1.51C88.62,3.69,88.89,3.66,88.81,3.31Z"/><path class="cls-19" d="M89.48.75c.19.38-.4,1-1.31,1.36s-1.81.37-2,0,.4-1,1.31-1.36S89.29.37,89.48.75Z"/><path class="cls-20" d="M89.45.71c.18.36-.41,1-1.33,1.33s-1.8.39-2,0,.41-1,1.33-1.33S89.27.35,89.45.71Z"/><path class="cls-21" d="M86.08,2.09a.36.36,0,0,1,0-.17h0c0-.42.59-.91,1.4-1.25h0A3.62,3.62,0,0,1,88.76.38h0c.36,0,.64.09.75.3h0l-.06,0-.06,0c-.07-.14-.29-.23-.63-.23h0A3.5,3.5,0,0,0,87.5.79h0c-.79.32-1.33.83-1.32,1.13h0a.25.25,0,0,0,0,.11h0c.07.14.29.23.63.23h0A3.52,3.52,0,0,0,88.09,2h0c.79-.32,1.33-.83,1.32-1.13h0a.25.25,0,0,0,0-.11h0l.06,0,.06,0a.39.39,0,0,1,0,.17h0c0,.42-.59.91-1.4,1.25h0a3.65,3.65,0,0,1-1.32.29h0c-.36,0-.64-.09-.75-.3Z"/><path class="cls-22" d="M88.22,1.12c.11.22-.25.57-.79.79s-1.07.23-1.18,0,.25-.57.79-.79S88.11.91,88.22,1.12Z"/><path class="cls-27" d="M17,6.08s4.6,5.21,9.15,5.42S22.17,14.82,17,6.08Z"/><path class="cls-27" d="M34.06,5.78s-2.93,3.3-5.69,3.88S31.15,11.28,34.06,5.78Z"/><path class="cls-27" d="M34.8,5.77s-.85,2.6-2.6,3.6S34.85,9.51,34.8,5.77Z"/><path class="cls-27" d="M36.6,5.43a13.15,13.15,0,0,0,6.26,4C46.53,10.33,39.79,11.29,36.6,5.43Z"/><path class="cls-27" d="M52.21,6.15s-.58,3.4-8.16,4.21S51.43,11.93,52.21,6.15Z"/><path class="cls-27" d="M53.16,6.06s.11,3.46-1.27,3.65S53.22,7.79,53.16,6.06Z"/><path class="cls-27" d="M54.6,5.82s0,3.31,4.72,4S54.81,12,54.6,5.82Z"/><path class="cls-27" d="M71.1,6.2c.07-.21-3,4.95-11.68,5.43S68.34,14.08,71.1,6.2Z"/><path class="cls-28" d="M54.12,7.69a7.06,7.06,0,0,0,7.71,3C66.78,9.61,56.75,14.25,54.12,7.69Z"/><path class="cls-28" d="M37,6.36a6.17,6.17,0,0,0,3.39,3.12C42.7,10.19,38.18,10.91,37,6.36Z"/><path class="cls-28" d="M22.21,9.73s5,1.84,9-.31S28,13.47,22.21,9.73Z"/><path class="cls-27" d="M68.47,66.93s-4.22-4.59-8.74-5.08S63.88,59.4,68.47,66.93Z"/><path class="cls-27" d="M51.42,66s3.14-2.51,5.93-2.79S54.7,61.69,51.42,66Z"/><path class="cls-29" d="M50.68,66a6.29,6.29,0,0,1,2.84-2.78C55.34,62.48,50.89,62.88,50.68,66Z"/><path class="cls-28" d="M63.5,63.57s-4.88-1.86-9-.37S58,60.11,63.5,63.57Z"/><path class="cls-27" d="M16.11,6.62s1.52,6.54,3.84,6.54S17.75,12,16.11,6.62Z"/><path class="cls-28" d="M16.11,6.62s3,5.06,5.31,5.72S18.65,13.21,16.11,6.62Z"/><path class="cls-28" d="M51.83,8.09a10.6,10.6,0,0,1-5.76,3.1C42.47,11.8,49.91,11.87,51.83,8.09Z"/><path class="cls-27" d="M71.73,6.4S71.25,9.72,69.91,10,71,8.83,71.73,6.4Z"/><path class="cls-30" d="M123.15,65.86s-.55-2.79-6.44-2.42S121.86,60.71,123.15,65.86Z"/><path class="cls-27" d="M105.58,65.86c-.07.18,3-4.43,11.71-4.9S108.31,58.81,105.58,65.86Z"/><path class="cls-28" d="M123.31,64.56s-3.19-3.55-9.37-1.89C108.24,64.2,119.5,58.76,123.31,64.56Z"/><path class="cls-30" d="M105.09,66.06s.45-3,1.8-3.26S105.81,63.89,105.09,66.06Z"/><path class="cls-27" d="M31.24,65.7s-.47-3.29-5.25-3.41S30.17,59.63,31.24,65.7Z"/><path class="cls-27" d="M14.32,64.86c-.09.2,3.39-4.75,12.05-4.71S17.66,57.17,14.32,64.86Z"/><path class="cls-28" d="M31.38,64.41A7,7,0,0,0,23.9,61C18.88,61.72,29.23,57.71,31.38,64.41Z"/><path class="cls-30" d="M13.71,64.62s.72-3.28,2.08-3.53S14.62,62.24,13.71,64.62Z"/><path class="cls-27" d="M72.38,5.78s-.51,4.5,5.48,4.83S70.6,13.67,72.38,5.78Z"/><path class="cls-27" d="M86.86,6.37s-4,5.13-9.44,5.55S82.58,14.49,86.86,6.37Z"/><path class="cls-27" d="M87.84,6.4s.07,3-1.63,3.29S87.26,8.44,87.84,6.4Z"/><path class="cls-27" d="M106.07,7.06s-2.14,3.58-5.63,3.85S103.64,13.57,106.07,7.06Z"/><path class="cls-27" d="M89.19,6.37c0-.09,3,5.13,7.19,5.49S90.53,9.46,89.19,6.37Z"/><path class="cls-27" d="M107.52,6.89s-.22,4.08,6.43,4.47S107.81,14.59,107.52,6.89Z"/><path class="cls-27" d="M120.74,7.16s-2,2.83-4.61,3.35S119.14,12.42,120.74,7.16Z"/><path class="cls-27" d="M106.65,6.43s-.07,6.34,2.47,6.18S106.69,11.07,106.65,6.43Z"/><path class="cls-27" d="M122,6.17s-3.16,6.24-1.6,6.24S121.1,9,122,6.17Z"/><path class="cls-28" d="M91.77,7.68s4.17,3.06,8.2,2.86S95.32,12,91.77,7.68Z"/><path class="cls-28" d="M71.83,6.83s.18,3.85,3.41,4.5S71.22,13,71.83,6.83Z"/><path class="cls-28" d="M87.08,6.63a12.06,12.06,0,0,1-3.56,3.88C81.6,11.56,86.21,10.51,87.08,6.63Z"/><path class="cls-28" d="M106,7.32a6.09,6.09,0,0,1-1.45,2.92C103.46,11.23,106.47,11.73,106,7.32Z"/><path class="cls-28" d="M108.21,8.47a6.43,6.43,0,0,0,5.7,2.63C118,11,110.17,11.27,108.21,8.47Z"/><path class="cls-28" d="M121.17,6.17a9.93,9.93,0,0,1-2.18,4.4C117.29,12.42,121.14,10.28,121.17,6.17Z"/><path class="cls-27" d="M83.85,64.74s.25-2.71-7.46-3S83.52,59.63,83.85,64.74Z"/><path class="cls-27" d="M68.51,64.57a11.33,11.33,0,0,1,5.35-2.23C76.94,62,70.36,61.07,68.51,64.57Z"/><path class="cls-27" d="M84.87,65.05s.08-4.22-2.87-4.11S84.82,62,84.87,65.05Z"/><path class="cls-30" d="M85.62,64.46a3.71,3.71,0,0,1,1.69-1.94C88.57,61.86,85.08,61.53,85.62,64.46Z"/><path class="cls-28" d="M83.05,63.7s-1.85-1.79-6.62-1.75S80.78,61.84,83.05,63.7Z"/><path class="cls-28" d="M68,65.23a6,6,0,0,1,2.53-2.93C72.51,61.07,68,62.49,68,65.23Z"/><path class="cls-27" d="M51,66.22s.8-4.06-7.86-5.36S51.57,58.46,51,66.22Z"/><path class="cls-27" d="M33.68,64.15a12,12,0,0,1,6.47-2.74C43.69,61.25,36.44,59.09,33.68,64.15Z"/><path class="cls-28" d="M50.27,65.16s-1.75-2.92-7.14-3.42S48.06,62.09,50.27,65.16Z"/><path class="cls-28" d="M33,65.09A9.47,9.47,0,0,1,36.4,61C38.87,59.34,33.55,61,33,65.09Z"/><path class="cls-23" d="M107.15,6a11.39,11.39,0,0,1-.76,2.31c-.44.84-.82,1.61-.26,1.81S107.39,6.74,107.15,6Z"/><path class="cls-23" d="M107.35,6A4,4,0,0,1,108,8c-.12.81.54,1.12,1,.78S108.28,6.47,107.35,6Z"/><path class="cls-24" d="M105.4,6.15a1.37,1.37,0,0,0,1.17-.21h0l0,0a1.59,1.59,0,0,0-1.66-.18.19.19,0,0,0-.1.06l.06,0-.06,0C104.81,5.87,105,6,105.4,6.15Z"/><path class="cls-24" d="M104.95,5.74c-.25.08-.06.16.46.41s1.2-.23,1.2-.23A1.59,1.59,0,0,0,104.95,5.74Z"/><path class="cls-23" d="M106.85,5.56c-.32-.23-1.69-1.2-2.19-.88s-.21,1.61.38,2,2-.76,2-.76S107.08,5.76,106.85,5.56Zm-1.45.59c-.51-.25-.7-.33-.46-.41a1.59,1.59,0,0,1,1.66.18S105.92,6.4,105.4,6.15Z"/><path class="cls-25" d="M105.4,6.15c-.39-.19-.6-.28-.56-.35s-.06,0,0,.12a1.06,1.06,0,0,0,1,.52,2.66,2.66,0,0,0,.87-.49h-.1A1.37,1.37,0,0,1,105.4,6.15Z"/><path class="cls-25" d="M107,6l0,0s.07-.18-.16-.37-1.69-1.2-2.19-.88a.83.83,0,0,0-.25.82,1.7,1.7,0,0,1,.39-.17C105.45,5.13,106.54,5.7,107,6Z"/><path class="cls-25" d="M106.84,5.73a5.55,5.55,0,0,0-1.52-.79c-.47-.05-.12.16.19.29s.16,0,0-.07,0-.13.33,0Z"/><path class="cls-23" d="M107.44,5.89s1.57.94,2.08.46.57-1.8,0-2-1.74.91-2,1.19S107.44,5.89,107.44,5.89Zm.4-.07a1.57,1.57,0,0,1,1.6-.42c.26,0,.09.15-.38.47S107.84,5.82,107.84,5.82Z"/><path class="cls-25" d="M109.07,5.87c.36-.24.54-.36.49-.43s.1.08.09.18a1,1,0,0,1-.92.59,2.8,2.8,0,0,1-.94-.36l.09,0A1.39,1.39,0,0,0,109.07,5.87Z"/><path class="cls-25" d="M107.47,5.9h0s-.1-.17.1-.39,1.45-1.43,2-1.19a.86.86,0,0,1,.39.77,1.79,1.79,0,0,0-.42-.11C108.85,4.86,107.86,5.58,107.47,5.9Z"/><path class="cls-25" d="M107.58,5.66a5.33,5.33,0,0,1,1.36-1c.46-.12.15.14-.14.32s-.16,0,0-.06,0-.13-.32.08Z"/><path class="cls-24" d="M109.48,5.13c-.37-.47-1.86.59-1.86.59C108.94,6.11,109.85,5.6,109.48,5.13Z"/><path class="cls-25" d="M107.19,6.18a12.64,12.64,0,0,1-.72,3.34c-.21.36-.12.6-.44.53l.11.05C106.66,10.28,107.3,7.22,107.19,6.18Z"/><path class="cls-25" d="M108.15,7.68a2.65,2.65,0,0,0-.55-1.24A3.07,3.07,0,0,1,108,8c-.09.63.28,1,.68.91C108.22,8.73,108.15,8.17,108.15,7.68Z"/><path class="cls-26" d="M108.92,8.79s.29-.06.06-.7a2.82,2.82,0,0,0-.24-.52,2.77,2.77,0,0,1,.2.61c0,.17,0,.47-.15.53S108.74,8.9,108.92,8.79Z"/><path class="cls-23" d="M107.64,5.79c0,.17-.07.31-.17.31l-.43,0c-.11,0-.2-.12-.21-.29h0c0-.17.07-.3.17-.31l.43,0c.11,0,.2.12.21.29Z"/><path class="cls-25" d="M107.08,5.83c.2,0,.34-.12.42-.1h.13c0-.14-.11-.24-.21-.24l-.43,0c-.1,0-.17.12-.17.26C106.87,5.74,107,5.83,107.08,5.83Z"/><path class="cls-23" d="M121.51,5.21a11.2,11.2,0,0,1,.42,2.38c0,.93,0,1.77.63,1.73S122.1,5.8,121.51,5.21Z"/><path class="cls-23" d="M121.7,5.15s1.26.8,1.54,1.58,1,.8,1.3.29S122.77,5.21,121.7,5.15Z"/><path class="cls-24" d="M120,6.05c.51,0,.87-.51,1-.64l-.16.05.16-.05,0,0c-1.14-.13-1.4.32-1.58.49s-.06.07-.06.09h0C119.35,6,119.58,6,120,6.05Z"/><path class="cls-24" d="M119.42,5.86c-.19.17,0,.17.61.19s1-.67,1-.67C119.86,5.25,119.6,5.69,119.42,5.86Z"/><path class="cls-23" d="M121,5c-.39-.08-2.09-.42-2.4.06s.58,1.54,1.3,1.67,1.42-1.45,1.42-1.45S121.35,5,121,5Zm-1,1.1c-.58,0-.79,0-.61-.19s.44-.61,1.58-.49C121,5.38,120.61,6.07,120,6.05Z"/><path class="cls-25" d="M120,6.05c-.45,0-.67,0-.67-.1s0,0,0,.12a1.13,1.13,0,0,0,1.14.08,2.35,2.35,0,0,0,.55-.78l-.09,0C120.9,5.54,120.53,6.07,120,6.05Z"/><path class="cls-25" d="M121.36,5.25v0s0-.19-.33-.27-2.09-.42-2.4.06a.81.81,0,0,0,.17.83,1.54,1.54,0,0,1,.27-.31C119.57,5.11,120.83,5.2,121.36,5.25Z"/><path class="cls-25" d="M121.12,5.11A5.91,5.91,0,0,0,119.37,5c-.45.14,0,.19.31.19s.15-.05,0-.06,0-.13.31-.1Z"/><path class="cls-23" d="M121.74,5s1.86.23,2.1-.4-.34-1.85-1-1.85-1.13,1.5-1.25,1.86A.35.35,0,0,0,121.74,5Zm.33-.22a1.45,1.45,0,0,1,1.25-1c.25-.06.15.1-.12.57S122.06,4.8,122.06,4.8Z"/><path class="cls-25" d="M123.19,4.36c.2-.36.31-.54.24-.57s.13,0,.17.13a.91.91,0,0,1-.55.89,2.88,2.88,0,0,1-1,0l.07-.05C122.27,4.8,123,4.77,123.19,4.36Z"/><path class="cls-25" d="M121.76,5h0a.35.35,0,0,1-.1-.39c.11-.35.63-1.86,1.25-1.86a1,1,0,0,1,.72.54,1.83,1.83,0,0,0-.43.06C122.51,3.54,122,4.57,121.76,5Z"/><path class="cls-25" d="M121.75,4.76a4.69,4.69,0,0,1,.75-1.43c.36-.29.2.07,0,.34s-.12.09,0,0-.1-.1-.25.2S121.75,4.76,121.75,4.76Z"/><path class="cls-24" d="M123.21,3.54c-.56-.27-1.4,1.26-1.4,1.26C123.19,4.63,123.77,3.81,123.21,3.54Z"/><path class="cls-25" d="M121.64,5.38a12.78,12.78,0,0,1,.94,3.29c0,.4.18.59-.15.65h.12C123.12,9.28,122.24,6.27,121.64,5.38Z"/><path class="cls-25" d="M123.22,6.36a3,3,0,0,0-1.09-.9,3.41,3.41,0,0,1,1.1,1.27c.22.6.71.75,1,.56C123.79,7.27,123.46,6.8,123.22,6.36Z"/><path class="cls-26" d="M124.45,7.05s.23-.17-.28-.65A3.18,3.18,0,0,0,123.7,6a3.09,3.09,0,0,1,.48.47c.08.15.23.42.12.54S124.34,7.22,124.45,7.05Z"/><path class="cls-23" d="M121.87,4.85c.09.15.08.3,0,.35l-.38.19c-.09,0-.24,0-.33-.18h0c-.09-.15-.08-.3,0-.35l.38-.19c.09,0,.24,0,.33.18Z"/><path class="cls-25" d="M121.38,5.1c.18-.08.25-.24.33-.26l.12,0c-.09-.12-.22-.18-.3-.13l-.38.19c-.08,0-.1.17,0,.3C121.14,5.1,121.27,5.15,121.38,5.1Z"/><path class="cls-23" d="M53.7,5.31a11.18,11.18,0,0,1,.42,2.38c0,.93,0,1.77.63,1.73S54.28,5.9,53.7,5.31Z"/><path class="cls-23" d="M53.88,5.24s1.26.8,1.54,1.58,1,.8,1.3.29S55,5.31,53.88,5.24Z"/><path class="cls-24" d="M52.21,6.15c.51,0,.87-.51,1-.64L53,5.56l.16-.05,0,0c-1.14-.13-1.4.32-1.58.48s-.06.07-.06.09h0C51.54,6.13,51.76,6.14,52.21,6.15Z"/><path class="cls-24" d="M51.6,6c-.19.17,0,.17.61.19s1-.67,1-.67C52,5.35,51.79,5.79,51.6,6Z"/><path class="cls-23" d="M53.23,5.05c-.4-.08-2.1-.42-2.4.06s.58,1.54,1.3,1.66,1.42-1.45,1.42-1.45S53.54,5.14,53.23,5.05Zm-1,1.1c-.58,0-.79,0-.61-.19s.44-.61,1.58-.48C53.19,5.48,52.79,6.17,52.21,6.15Z"/><path class="cls-25" d="M52.21,6.15c-.45,0-.67,0-.67-.1s0,0,0,.12a1.13,1.13,0,0,0,1.14.08,2.35,2.35,0,0,0,.55-.78l-.09,0C53.08,5.64,52.72,6.17,52.21,6.15Z"/><path class="cls-25" d="M53.55,5.35v0s0-.19-.33-.27-2.1-.42-2.4.06A.81.81,0,0,0,51,6a1.53,1.53,0,0,1,.27-.31C51.76,5.21,53,5.29,53.55,5.35Z"/><path class="cls-25" d="M53.3,5.21a6,6,0,0,0-1.75-.12c-.45.14,0,.19.31.19s.15-.05,0-.06,0-.13.31-.1Z"/><path class="cls-23" d="M53.92,5.12s1.86.23,2.1-.4-.34-1.85-1-1.85-1.13,1.5-1.25,1.86A.35.35,0,0,0,53.92,5.12Zm.33-.22a1.45,1.45,0,0,1,1.25-1c.25-.06.15.1-.12.57S54.25,4.9,54.25,4.9Z"/><path class="cls-25" d="M55.38,4.46c.2-.36.31-.54.24-.57s.13,0,.17.13a.92.92,0,0,1-.55.89,2.91,2.91,0,0,1-1,0l.07-.05C54.46,4.9,55.15,4.87,55.38,4.46Z"/><path class="cls-25" d="M53.95,5.12h0a.35.35,0,0,1-.1-.39c.11-.35.63-1.86,1.25-1.86a1,1,0,0,1,.72.55,1.8,1.8,0,0,0-.43.06C54.7,3.64,54.16,4.67,53.95,5.12Z"/><path class="cls-25" d="M53.94,4.86a4.69,4.69,0,0,1,.75-1.43c.36-.29.2.07,0,.34s-.12.09,0,0-.1-.1-.25.2S53.94,4.86,53.94,4.86Z"/><path class="cls-24" d="M55.4,3.64C54.84,3.36,54,4.9,54,4.9,55.38,4.73,56,3.91,55.4,3.64Z"/><path class="cls-25" d="M53.83,5.47a12.75,12.75,0,0,1,.94,3.29c0,.4.18.59-.15.65h.12C55.31,9.38,54.42,6.37,53.83,5.47Z"/><path class="cls-25" d="M55.41,6.46a3,3,0,0,0-1.09-.9,3.41,3.41,0,0,1,1.1,1.27c.21.6.71.75,1,.56C56,7.37,55.64,6.9,55.41,6.46Z"/><path class="cls-26" d="M56.63,7.15s.23-.17-.28-.65a3.22,3.22,0,0,0-.47-.38,3.12,3.12,0,0,1,.48.47c.08.15.23.42.12.54S56.53,7.32,56.63,7.15Z"/><path class="cls-23" d="M54.05,4.94c.09.15.09.3,0,.35l-.38.19c-.09,0-.24,0-.33-.18h0c-.09-.15-.09-.3,0-.35l.38-.19c.09,0,.24,0,.33.18Z"/><path class="cls-25" d="M53.57,5.2c.18-.08.25-.24.33-.26l.12,0c-.09-.12-.22-.18-.3-.13L53.34,5c-.08,0-.1.17,0,.3C53.33,5.2,53.46,5.25,53.57,5.2Z"/><path class="cls-23" d="M88,5.87a11.19,11.19,0,0,1,.42,2.38c0,.93,0,1.77.63,1.73S88.63,6.46,88,5.87Z"/><path class="cls-23" d="M88.23,5.81s1.26.8,1.54,1.58,1,.8,1.3.29S89.3,5.87,88.23,5.81Z"/><path class="cls-24" d="M86.55,6.72c.51,0,.88-.51,1-.64l-.16.05.16-.05,0,0c-1.14-.13-1.4.32-1.58.48s-.06.07-.06.09h0C85.88,6.7,86.11,6.7,86.55,6.72Z"/><path class="cls-24" d="M85.95,6.53c-.19.17,0,.17.6.19s1-.67,1-.67C86.39,5.92,86.14,6.36,85.95,6.53Z"/><path class="cls-23" d="M87.58,5.62c-.4-.08-2.1-.42-2.4.06s.58,1.54,1.3,1.67S87.9,5.9,87.9,5.9,87.88,5.71,87.58,5.62Zm-1,1.1c-.58,0-.79,0-.6-.19s.44-.61,1.58-.48C87.53,6,87.14,6.74,86.55,6.72Z"/><path class="cls-25" d="M86.55,6.72c-.45,0-.67,0-.67-.1s0,0,0,.12a1.13,1.13,0,0,0,1.14.08A2.36,2.36,0,0,0,87.6,6l-.09,0C87.43,6.21,87.06,6.74,86.55,6.72Z"/><path class="cls-25" d="M87.89,5.92v0s0-.19-.33-.27-2.1-.42-2.4.06a.82.82,0,0,0,.17.84,1.52,1.52,0,0,1,.27-.31C86.1,5.78,87.36,5.86,87.89,5.92Z"/><path class="cls-25" d="M87.65,5.78a5.94,5.94,0,0,0-1.75-.12c-.45.14,0,.19.31.19s.15-.05,0-.06,0-.13.31-.09Z"/><path class="cls-23" d="M88.27,5.68s1.86.23,2.1-.4-.34-1.85-1-1.85-1.13,1.5-1.25,1.86A.35.35,0,0,0,88.27,5.68Zm.33-.22a1.44,1.44,0,0,1,1.25-1c.25-.06.15.1-.12.57S88.59,5.46,88.59,5.46Z"/><path class="cls-25" d="M89.73,5c.21-.36.31-.54.24-.57s.13,0,.17.13a.91.91,0,0,1-.55.89,2.91,2.91,0,0,1-1,0l.07-.05C88.8,5.46,89.49,5.44,89.73,5Z"/><path class="cls-25" d="M88.29,5.69h0a.35.35,0,0,1-.1-.39c.11-.35.63-1.86,1.25-1.86a1,1,0,0,1,.72.55A1.79,1.79,0,0,0,89.7,4C89,4.21,88.5,5.24,88.29,5.69Z"/><path class="cls-25" d="M88.28,5.42A4.69,4.69,0,0,1,89,4c.36-.29.2.07,0,.34s-.13.09-.05-.05-.1-.1-.25.2S88.28,5.42,88.28,5.42Z"/><path class="cls-24" d="M89.74,4.2c-.56-.27-1.4,1.26-1.4,1.26C89.72,5.3,90.3,4.48,89.74,4.2Z"/><path class="cls-25" d="M88.17,6a12.73,12.73,0,0,1,.94,3.29c0,.4.18.59-.15.65h.12C89.65,9.94,88.77,6.94,88.17,6Z"/><path class="cls-25" d="M89.76,7a3,3,0,0,0-1.09-.9,3.4,3.4,0,0,1,1.1,1.27c.21.6.71.75,1,.56C90.32,7.94,90,7.46,89.76,7Z"/><path class="cls-26" d="M91,7.72s.23-.17-.28-.65a3.2,3.2,0,0,0-.47-.38,3.08,3.08,0,0,1,.48.47c.08.15.23.42.12.54S90.87,7.89,91,7.72Z"/><path class="cls-23" d="M88.4,5.51c.09.15.08.3,0,.35L88,6.05c-.09,0-.24,0-.33-.18h0c-.09-.15-.09-.3,0-.35l.38-.19c.09,0,.24,0,.33.18Z"/><path class="cls-25" d="M87.91,5.77c.18-.08.25-.24.33-.26l.12,0c-.09-.12-.22-.18-.3-.13l-.38.19c-.08,0-.09.17,0,.3C87.68,5.77,87.8,5.82,87.91,5.77Z"/><path class="cls-23" d="M35.41,5.31a11.38,11.38,0,0,1-.76,2.31c-.44.84-.82,1.61-.26,1.8S35.65,6.07,35.41,5.31Z"/><path class="cls-23" d="M35.6,5.33a4,4,0,0,1,.63,2c-.12.81.54,1.12,1,.78S36.54,5.81,35.6,5.33Z"/><path class="cls-24" d="M33.66,5.49a1.38,1.38,0,0,0,1.17-.21h0l0,0a1.59,1.59,0,0,0-1.66-.18c-.06,0-.09,0-.1.06l.06,0-.06,0C33.07,5.21,33.27,5.3,33.66,5.49Z"/><path class="cls-24" d="M33.21,5.08c-.25.08-.06.16.46.41s1.2-.23,1.2-.23A1.59,1.59,0,0,0,33.21,5.08Z"/><path class="cls-23" d="M35.11,4.9c-.32-.23-1.69-1.2-2.19-.88s-.21,1.62.38,2,2-.76,2-.76S35.34,5.1,35.11,4.9Zm-1.45.59c-.51-.25-.7-.33-.46-.41a1.59,1.59,0,0,1,1.66.18S34.18,5.74,33.66,5.49Z"/><path class="cls-25" d="M33.66,5.49c-.39-.19-.6-.28-.56-.35s-.06,0,0,.12a1.06,1.06,0,0,0,1,.52,2.67,2.67,0,0,0,.87-.49h-.09A1.38,1.38,0,0,1,33.66,5.49Z"/><path class="cls-25" d="M35.25,5.29l0,0s.07-.18-.16-.37S33.42,3.7,32.91,4a.83.83,0,0,0-.25.82,1.7,1.7,0,0,1,.39-.17C33.7,4.47,34.8,5,35.25,5.29Z"/><path class="cls-25" d="M35.1,5.07a5.53,5.53,0,0,0-1.52-.79c-.48-.05-.12.16.19.29s.16,0,0-.07,0-.13.33,0Z"/><path class="cls-23" d="M35.7,5.23s1.57.94,2.08.46.57-1.8,0-2-1.74.91-2,1.19S35.7,5.23,35.7,5.23Zm.4-.07a1.57,1.57,0,0,1,1.61-.42c.26,0,.09.15-.38.47S36.1,5.16,36.1,5.16Z"/><path class="cls-25" d="M37.33,5.21c.36-.24.54-.37.49-.43s.1.08.09.18a1,1,0,0,1-.92.59A2.79,2.79,0,0,1,36,5.19l.09,0A1.4,1.4,0,0,0,37.33,5.21Z"/><path class="cls-25" d="M35.72,5.24h0s-.1-.17.1-.39,1.45-1.43,2-1.19a.85.85,0,0,1,.39.77,1.74,1.74,0,0,0-.42-.11C37.1,4.2,36.12,4.92,35.72,5.24Z"/><path class="cls-25" d="M35.84,5A5.29,5.29,0,0,1,37.2,4c.46-.12.15.14-.14.32s-.16,0,0-.06,0-.13-.32.08Z"/><path class="cls-24" d="M37.74,4.47c-.37-.47-1.86.59-1.86.59C37.19,5.45,38.11,4.94,37.74,4.47Z"/><path class="cls-25" d="M35.44,5.51a12.63,12.63,0,0,1-.72,3.34c-.21.36-.12.6-.44.53l.11.05C34.92,9.62,35.55,6.56,35.44,5.51Z"/><path class="cls-25" d="M36.4,7a2.65,2.65,0,0,0-.55-1.24,3.07,3.07,0,0,1,.39,1.57c-.09.63.28,1,.68.91C36.48,8.07,36.4,7.51,36.4,7Z"/><path class="cls-26" d="M37.17,8.13s.29-.06.06-.7A2.85,2.85,0,0,0,37,6.9a2.79,2.79,0,0,1,.2.62c0,.16,0,.47-.15.53S37,8.24,37.17,8.13Z"/><path class="cls-23" d="M35.9,5.13c0,.17-.07.3-.17.31l-.43,0c-.11,0-.2-.12-.21-.29h0c0-.17.07-.31.17-.31l.43,0c.11,0,.2.12.21.29Z"/><path class="cls-25" d="M35.34,5.17c.2,0,.34-.12.42-.1h.13c0-.14-.11-.24-.21-.24l-.43,0c-.1,0-.17.12-.17.26C35.12,5.07,35.22,5.17,35.34,5.17Z"/><path class="cls-23" d="M15.94,5.88a11.2,11.2,0,0,1,.42,2.38c0,.93,0,1.77.63,1.73S16.52,6.47,15.94,5.88Z"/><path class="cls-23" d="M16.13,5.82s1.26.8,1.54,1.58,1,.8,1.3.29S17.2,5.88,16.13,5.82Z"/><path class="cls-24" d="M14.45,6.72c.51,0,.88-.51,1-.64l-.16.05.16-.05,0,0c-1.14-.13-1.4.32-1.58.49s-.06.07-.06.09h0C13.78,6.7,14,6.71,14.45,6.72Z"/><path class="cls-24" d="M13.85,6.53c-.19.17,0,.17.61.19s1-.67,1-.67C14.29,5.92,14,6.36,13.85,6.53Z"/><path class="cls-23" d="M15.48,5.63c-.4-.08-2.09-.42-2.4.06s.58,1.54,1.3,1.67S15.8,5.9,15.8,5.9,15.78,5.71,15.48,5.63Zm-1,1.1c-.58,0-.79,0-.61-.19s.44-.61,1.58-.49C15.43,6,15,6.74,14.45,6.72Z"/><path class="cls-25" d="M14.45,6.72c-.45,0-.67,0-.67-.1s0,0,0,.12A1.13,1.13,0,0,0,15,6.83,2.37,2.37,0,0,0,15.5,6l-.09,0C15.33,6.21,15,6.74,14.45,6.72Z"/><path class="cls-25" d="M15.79,5.92v0s0-.19-.33-.27-2.09-.42-2.4.06a.82.82,0,0,0,.17.83,1.52,1.52,0,0,1,.27-.31C14,5.78,15.26,5.86,15.79,5.92Z"/><path class="cls-25" d="M15.55,5.79a5.91,5.91,0,0,0-1.75-.12c-.45.14,0,.19.31.19s.15-.05,0-.06,0-.13.31-.1Z"/><path class="cls-23" d="M16.17,5.69s1.86.23,2.1-.4-.34-1.85-1-1.85-1.13,1.5-1.25,1.86A.35.35,0,0,0,16.17,5.69Zm.33-.22a1.45,1.45,0,0,1,1.25-1c.25-.06.15.1-.12.57S16.49,5.47,16.49,5.47Z"/><path class="cls-25" d="M17.62,5c.2-.36.31-.54.24-.57s.13,0,.17.13a.92.92,0,0,1-.55.89,2.92,2.92,0,0,1-1,0l.07-.06C16.7,5.47,17.39,5.44,17.62,5Z"/><path class="cls-25" d="M16.19,5.69h0a.35.35,0,0,1-.1-.39c.11-.35.63-1.86,1.25-1.86A1,1,0,0,1,18,4,1.83,1.83,0,0,0,17.6,4C16.94,4.21,16.4,5.24,16.19,5.69Z"/><path class="cls-25" d="M16.18,5.43A4.68,4.68,0,0,1,16.93,4c.36-.29.2.07,0,.34s-.12.09,0-.05-.1-.1-.25.2S16.18,5.43,16.18,5.43Z"/><path class="cls-24" d="M17.64,4.21c-.56-.27-1.4,1.26-1.4,1.26C17.62,5.3,18.2,4.48,17.64,4.21Z"/><path class="cls-25" d="M16.07,6A12.73,12.73,0,0,1,17,9.34c0,.4.18.59-.15.65H17C17.55,9.95,16.67,6.94,16.07,6Z"/><path class="cls-25" d="M17.65,7a3,3,0,0,0-1.09-.9,3.41,3.41,0,0,1,1.1,1.27c.21.6.71.75,1,.56C18.22,7.94,17.89,7.47,17.65,7Z"/><path class="cls-26" d="M18.88,7.72s.23-.17-.28-.65a3.2,3.2,0,0,0-.47-.38,3.08,3.08,0,0,1,.48.48c.08.15.23.42.12.54S18.77,7.89,18.88,7.72Z"/><path class="cls-23" d="M16.3,5.52c.09.15.08.3,0,.35l-.38.19c-.09,0-.24,0-.33-.18h0c-.09-.14-.08-.3,0-.35L16,5.34c.09,0,.24,0,.33.18Z"/><path class="cls-25" d="M15.81,5.77c.18-.08.25-.24.33-.26l.12,0c-.09-.12-.22-.17-.3-.13l-.38.19c-.08,0-.1.17,0,.3C15.57,5.77,15.7,5.83,15.81,5.77Z"/><path class="cls-16" d="M16.37,64.33a2.24,2.24,0,0,1-1.91.16c-.88-.21-1.54-.64-1.58-1-.06.38.62.85,1.56,1.07S16.2,64.67,16.37,64.33Z"/><path class="cls-17" d="M14.25,64.1,13.49,66s.34.4.59,0,1-1.64,1-1.64Z"/><path class="cls-18" d="M14.08,65.94c.33-.52,1-1.64,1-1.64l-.82-.2-.2.48a2.87,2.87,0,0,0,.42.19c0,.11-.4,1.17-.93,1.27A.31.31,0,0,0,14.08,65.94Z"/><path class="cls-19" d="M16.38,64.33c-.12.4-1,.54-2,.31s-1.66-.74-1.55-1.14,1-.54,2-.31S16.49,63.93,16.38,64.33Z"/><path class="cls-20" d="M16.39,64.28c-.11.38-1,.51-2,.28s-1.67-.73-1.55-1.11,1-.51,2-.28S16.5,63.9,16.39,64.28Z"/><path class="cls-21" d="M14.41,64.62c-.91-.22-1.6-.65-1.62-1.09h0a.34.34,0,0,1,0-.1h0c.1-.31.54-.44,1.09-.44h0a4.15,4.15,0,0,1,1,.12h0c.91.22,1.6.65,1.62,1.09h0a.35.35,0,0,1,0,.1h0l-.07,0,.07,0c-.1.31-.54.44-1.09.44h0a4.2,4.2,0,0,1-1-.12Zm1.91-.35h0a.25.25,0,0,0,0-.07h0c0-.3-.62-.76-1.52-1h0a4,4,0,0,0-.92-.11h0c-.54,0-.91.15-1,.35h0a.24.24,0,0,0,0,.07h0c0,.3.63.76,1.52,1h0a4.05,4.05,0,0,0,.92.11h0c.54,0,.91-.15,1-.34Z"/><path class="cls-22" d="M15.16,64.05c-.07.23-.59.3-1.17.16s-1-.43-.93-.66.59-.3,1.17-.16S15.23,63.83,15.16,64.05Z"/><path class="cls-23" d="M13.79,66a12.32,12.32,0,0,1-1.55,2c-.72.66-1.36,1.27-.89,1.63S13.74,66.76,13.79,66Z"/><path class="cls-23" d="M14,66a3.9,3.9,0,0,1-.13,2.1c-.41.73.11,1.22.7,1S14.68,66.77,14,66Z"/><path class="cls-24" d="M12.07,65.62c.35.34,1,.19,1.18.15l-.15-.06.15.06h0a1.53,1.53,0,0,0-1.5-.66.18.18,0,0,0-.12,0,.14.14,0,0,1,0,0,.14.14,0,0,0,0,0C11.61,65.18,11.77,65.33,12.07,65.62Z"/><path class="cls-24" d="M11.79,65.1c-.26,0-.11.13.28.52s1.22.14,1.22.14A1.53,1.53,0,0,0,11.79,65.1Z"/><path class="cls-23" d="M13.65,65.5c-.22-.31-1.16-1.63-1.75-1.48s-.78,1.46-.37,2,2.14-.13,2.14-.13A.34.34,0,0,0,13.65,65.5Zm-1.58.13c-.4-.39-.55-.52-.28-.52a1.53,1.53,0,0,1,1.5.66S12.47,66,12.07,65.62Z"/><path class="cls-25" d="M12.07,65.62c-.3-.29-.46-.44-.4-.49s-.06,0-.07.1a1,1,0,0,0,.75.79,2.86,2.86,0,0,0,1-.21l-.09,0C13.09,65.82,12.42,66,12.07,65.62Z"/><path class="cls-25" d="M13.65,65.91h0a.34.34,0,0,0,0-.4c-.22-.31-1.16-1.63-1.75-1.48a.89.89,0,0,0-.53.7,1.79,1.79,0,0,1,.43,0C12.48,64.67,13.31,65.53,13.65,65.91Z"/><path class="cls-25" d="M13.58,65.65a5.05,5.05,0,0,0-1.15-1.19c-.43-.19-.17.11.08.33s.15.06,0-.06.06-.12.3.13Z"/><path class="cls-23" d="M14.09,66s1.14,1.35,1.8,1.05,1.19-1.53.76-1.92-2,.35-2.33.53S14.09,66,14.09,66Zm.4.05a1.59,1.59,0,0,1,1.67.08c.23.12,0,.17-.53.33S14.5,66,14.5,66Z"/><path class="cls-25" d="M15.64,66.44c.42-.13.64-.18.62-.26s.07.1,0,.2a1.1,1.1,0,0,1-1.09.28,2.55,2.55,0,0,1-.76-.62h.09A1.34,1.34,0,0,0,15.64,66.44Z"/><path class="cls-25" d="M14.11,66l0,0s0-.19.23-.34,1.89-.92,2.33-.53a.81.81,0,0,1,.09.84,1.69,1.69,0,0,0-.35-.23A3.62,3.62,0,0,0,14.11,66Z"/><path class="cls-25" d="M14.31,65.8A5.74,5.74,0,0,1,16,65.26c.48,0,.09.17-.25.26s-.16,0,0-.07,0-.13-.33,0Z"/><path class="cls-24" d="M16.29,65.86c-.19-.55-2,0-2,0C15.43,66.63,16.48,66.41,16.29,65.86Z"/><path class="cls-25" d="M13.75,66.17a13.56,13.56,0,0,1-1.89,2.94c-.33.27-.33.53-.61.37l.08.08C11.77,69.89,13.48,67.19,13.75,66.17Z"/><path class="cls-25" d="M14.11,67.88A2.54,2.54,0,0,0,14,66.54a3,3,0,0,1-.2,1.6c-.31.56-.08,1,.31,1.06C13.8,68.89,13.93,68.34,14.11,67.88Z"/><path class="cls-26" d="M14.44,69.15s.3,0,.31-.64a2.7,2.7,0,0,0,0-.57,2.67,2.67,0,0,1,0,.64c-.06.16-.16.45-.33.46S14.23,69.2,14.44,69.15Z"/><path class="cls-23" d="M14.32,65.94c0,.16-.17.27-.28.24l-.42-.11c-.1,0-.15-.18-.1-.34h0c0-.16.17-.27.28-.24l.42.11c.1,0,.15.18.1.34Z"/><path class="cls-25" d="M13.77,65.81c.19.05.36,0,.44,0l.12,0c0-.14,0-.26-.11-.29l-.42-.11c-.09,0-.2.06-.26.19C13.61,65.66,13.66,65.78,13.77,65.81Z"/><path class="cls-16" d="M33.15,63.43c-.1.36-.8.71-1.68.84s-1.69,0-1.89-.35c.12.37.95.55,1.9.42S33.14,63.8,33.15,63.43Z"/><path class="cls-17" d="M31.11,64l.13,2s.49.24.53-.25.18-1.86.18-1.86Z"/><path class="cls-18" d="M31.76,65.73c.07-.6.18-1.86.18-1.86l-.84.11,0,.51a2.81,2.81,0,0,0,.47,0c0,.11.15,1.21-.29,1.5C31.46,66.05,31.74,66.09,31.76,65.73Z"/><path class="cls-19" d="M33.16,63.42c.07.41-.68.85-1.67,1s-1.85-.08-1.92-.49.68-.85,1.67-1S33.09,63,33.16,63.42Z"/><path class="cls-20" d="M33.15,63.37c.07.39-.68.82-1.67,1s-1.85-.06-1.92-.45.68-.82,1.67-1S33.08,63,33.15,63.37Z"/><path class="cls-21" d="M29.49,63.89a.33.33,0,0,1,0-.06h0c0-.45.78-.83,1.74-1h0a4.65,4.65,0,0,1,.62,0h0c.72,0,1.3.18,1.38.55h0a.45.45,0,0,1,0,.06h0c0,.45-.78.83-1.74,1h0a4.56,4.56,0,0,1-.62,0h0c-.72,0-1.3-.18-1.37-.55ZM31.24,63c-.94.12-1.64.54-1.62.85h0a.28.28,0,0,0,0,0h0c0,.24.53.45,1.24.44h0a4.06,4.06,0,0,0,.6,0h0c.94-.12,1.64-.54,1.62-.85h0a.22.22,0,0,0,0,0h0c0-.24-.53-.45-1.24-.45h0a4.08,4.08,0,0,0-.59,0Z"/><path class="cls-22" d="M31.92,63.61c0,.23-.41.49-1,.57s-1.1,0-1.14-.27.41-.49,1-.57S31.88,63.38,31.92,63.61Z"/><path class="cls-23" d="M31,66a12.37,12.37,0,0,1-1.55,2c-.72.66-1.36,1.27-.9,1.63S31,66.76,31,66Z"/><path class="cls-23" d="M31.2,66a3.9,3.9,0,0,1-.13,2.1c-.41.73.11,1.22.7,1S31.91,66.77,31.2,66Z"/><path class="cls-24" d="M29.3,65.62c.35.34,1,.19,1.18.15l-.15-.06.15.06h0A1.53,1.53,0,0,0,29,65.1a.18.18,0,0,0-.12,0,.14.14,0,0,1,0,0,.14.14,0,0,0,0,0C28.84,65.18,29,65.33,29.3,65.62Z"/><path class="cls-24" d="M29,65.1c-.26,0-.11.13.28.52s1.22.14,1.22.14A1.53,1.53,0,0,0,29,65.1Z"/><path class="cls-23" d="M30.88,65.5c-.22-.31-1.16-1.63-1.75-1.48s-.78,1.46-.37,2,2.14-.13,2.14-.13A.34.34,0,0,0,30.88,65.5Zm-1.58.13c-.4-.39-.55-.52-.28-.52a1.53,1.53,0,0,1,1.5.66S29.7,66,29.3,65.62Z"/><path class="cls-25" d="M29.3,65.62c-.3-.29-.46-.44-.4-.49s-.06,0-.07.1a1,1,0,0,0,.75.79,2.86,2.86,0,0,0,1-.21l-.09,0C30.32,65.82,29.65,66,29.3,65.62Z"/><path class="cls-25" d="M30.88,65.91h0a.34.34,0,0,0,0-.4c-.22-.31-1.16-1.63-1.75-1.48a.89.89,0,0,0-.53.7,1.79,1.79,0,0,1,.43,0C29.71,64.67,30.54,65.53,30.88,65.91Z"/><path class="cls-25" d="M30.81,65.65a5,5,0,0,0-1.15-1.19c-.43-.19-.17.11.08.33s.15.06,0-.06.06-.12.3.13Z"/><path class="cls-23" d="M31.32,66s1.15,1.35,1.8,1.05,1.19-1.53.76-1.92-2,.35-2.33.53S31.32,66,31.32,66Zm.4.05a1.59,1.59,0,0,1,1.67.08c.23.12,0,.17-.53.33S31.73,66,31.73,66Z"/><path class="cls-25" d="M32.87,66.44c.42-.13.64-.18.62-.26s.07.1,0,.2a1.1,1.1,0,0,1-1.09.28,2.56,2.56,0,0,1-.76-.62h.09A1.34,1.34,0,0,0,32.87,66.44Z"/><path class="cls-25" d="M31.34,66l0,0s0-.19.23-.34,1.89-.92,2.33-.53A.81.81,0,0,1,34,66a1.69,1.69,0,0,0-.35-.23A3.62,3.62,0,0,0,31.34,66Z"/><path class="cls-25" d="M31.54,65.8a5.75,5.75,0,0,1,1.65-.54c.48,0,.09.17-.25.26s-.16,0,0-.07,0-.13-.33,0Z"/><path class="cls-24" d="M33.52,65.86c-.18-.55-2,0-2,0C32.66,66.63,33.71,66.41,33.52,65.86Z"/><path class="cls-25" d="M31,66.17a13.56,13.56,0,0,1-1.89,2.94c-.33.27-.33.53-.61.37l.08.08C29,69.89,30.71,67.19,31,66.17Z"/><path class="cls-25" d="M31.34,67.88a2.54,2.54,0,0,0-.08-1.33,3,3,0,0,1-.2,1.6c-.31.56-.08,1,.31,1.06C31,68.89,31.17,68.34,31.34,67.88Z"/><path class="cls-26" d="M31.67,69.15s.3,0,.31-.64a2.69,2.69,0,0,0,0-.57,2.68,2.68,0,0,1,0,.64c-.06.16-.16.45-.33.46S31.47,69.2,31.67,69.15Z"/><path class="cls-23" d="M31.55,65.94c0,.16-.17.27-.28.24l-.42-.11c-.1,0-.15-.18-.1-.34h0c0-.16.17-.27.28-.24l.42.11c.1,0,.15.18.1.34Z"/><path class="cls-25" d="M31,65.81c.19.05.36,0,.44,0l.12,0c0-.14,0-.26-.11-.29L31,65.49c-.09,0-.2.06-.26.19C30.84,65.66,30.89,65.78,31,65.81Z"/><path class="cls-16" d="M68.77,63c.08.36-.39.95-1.13,1.4a2.19,2.19,0,0,1-1.88.41c.28.29,1.12.14,1.92-.35S68.94,63.38,68.77,63Z"/><path class="cls-17" d="M67.18,64.31l1.05,1.76s.56,0,.36-.43-.7-1.76-.7-1.76Z"/><path class="cls-18" d="M68.59,65.65c-.22-.57-.7-1.76-.7-1.76l-.71.42.27.45a3,3,0,0,0,.44-.16c.08.09.7,1,.44,1.47C68.47,66.06,68.74,66,68.59,65.65Z"/><path class="cls-19" d="M68.77,63c.25.34-.21,1-1,1.54s-1.71.64-2,.3.21-1,1-1.54S68.52,62.69,68.77,63Z"/><path class="cls-20" d="M68.74,63c.24.33-.23,1-1.07,1.51s-1.71.65-1.95.32.23-1,1.07-1.51S68.5,62.66,68.74,63Z"/><path class="cls-21" d="M65.67,64.86a.39.39,0,0,1-.08-.24h0c0-.4.47-.93,1.16-1.36h0a3.14,3.14,0,0,1,1.51-.51h0a.65.65,0,0,1,.54.2h0l-.06,0-.06,0a.5.5,0,0,0-.42-.15h0a3,3,0,0,0-1.43.49h0c-.68.41-1.11.94-1.1,1.26h0a.28.28,0,0,0,.05.17h0a.51.51,0,0,0,.42.15h0a3,3,0,0,0,1.43-.49h0c.67-.41,1.11-.94,1.1-1.25h0a.27.27,0,0,0-.05-.17h0l.06,0,.06,0a.39.39,0,0,1,.07.24h0c0,.4-.47.93-1.16,1.36h0a3.16,3.16,0,0,1-1.51.51h0a.65.65,0,0,1-.54-.2Z"/><path class="cls-22" d="M67.74,63.67c.15.2-.14.6-.63.9s-1,.39-1.16.19.14-.6.64-.9S67.6,63.48,67.74,63.67Z"/><path class="cls-23" d="M68.05,66.13a11.41,11.41,0,0,1-.8,2.3c-.46.83-.85,1.59-.29,1.8S68.28,66.89,68.05,66.13Z"/><path class="cls-23" d="M68.25,66.15a4,4,0,0,1,.59,2c-.14.81.52,1.13,1,.79S69.18,66.64,68.25,66.15Z"/><path class="cls-24" d="M66.3,66.28a1.38,1.38,0,0,0,1.18-.19l-.17,0,.17,0,0,0a1.59,1.59,0,0,0-1.66-.21.18.18,0,0,0-.1.06l.06,0-.06,0C65.71,66,65.91,66.08,66.3,66.28Z"/><path class="cls-24" d="M65.85,65.86c-.25.08-.06.16.45.42s1.21-.21,1.21-.21A1.59,1.59,0,0,0,65.85,65.86Z"/><path class="cls-23" d="M67.76,65.71c-.31-.24-1.67-1.23-2.18-.91s-.24,1.61.34,2,2-.73,2-.73S68,65.91,67.76,65.71Zm-1.46.57c-.51-.25-.7-.34-.45-.42a1.59,1.59,0,0,1,1.66.21S66.81,66.53,66.3,66.28Z"/><path class="cls-25" d="M66.3,66.28c-.39-.19-.59-.29-.55-.36s-.06,0,0,.12a1.05,1.05,0,0,0,1,.54,2.69,2.69,0,0,0,.88-.48h-.09A1.38,1.38,0,0,1,66.3,66.28Z"/><path class="cls-25" d="M67.9,66.1h0s.07-.18-.16-.38-1.67-1.23-2.18-.91a.83.83,0,0,0-.26.81,1.72,1.72,0,0,1,.4-.17C66.37,65.25,67.45,65.84,67.9,66.1Z"/><path class="cls-25" d="M67.75,65.88a5.52,5.52,0,0,0-1.5-.81c-.47-.06-.13.16.19.3s.16,0,0-.07,0-.13.33,0Z"/><path class="cls-23" d="M68.35,66s1.55,1,2.07.49.61-1.79.06-2-1.76.89-2,1.16S68.35,66,68.35,66Zm.4-.07a1.58,1.58,0,0,1,1.61-.39c.26,0,.08.15-.39.46S68.75,66,68.75,66Z"/><path class="cls-25" d="M70,66.05c.36-.24.54-.36.5-.42s.1.08.09.19a1,1,0,0,1-.94.57,2.76,2.76,0,0,1-.93-.37l.09,0A1.39,1.39,0,0,0,70,66.05Z"/><path class="cls-25" d="M68.37,66.06h0s-.1-.17.1-.39,1.48-1.41,2-1.16a.85.85,0,0,1,.37.78,1.8,1.8,0,0,0-.42-.12C69.77,65,68.77,65.74,68.37,66.06Z"/><path class="cls-25" d="M68.49,65.82a5.34,5.34,0,0,1,1.38-1c.46-.11.15.14-.14.32s-.16,0,0-.06,0-.13-.32.08Z"/><path class="cls-24" d="M70.4,65.32c-.36-.47-1.87.56-1.87.56C69.84,66.29,70.76,65.79,70.4,65.32Z"/><path class="cls-25" d="M68.09,66.33a12.69,12.69,0,0,1-.78,3.32c-.22.35-.13.6-.45.52l.11.06C67.48,70.42,68.17,67.37,68.09,66.33Z"/><path class="cls-25" d="M69,67.85a2.63,2.63,0,0,0-.53-1.25,3.06,3.06,0,0,1,.36,1.58c-.1.62.26,1,.66.92C69.07,68.9,69,68.34,69,67.85Z"/><path class="cls-26" d="M69.76,69s.29-.06.07-.7a2.79,2.79,0,0,0-.23-.53,2.75,2.75,0,0,1,.19.62c0,.17,0,.47-.16.53S69.59,69.07,69.76,69Z"/><path class="cls-23" d="M68.55,65.95c0,.17-.07.3-.18.31l-.43,0c-.11,0-.2-.13-.21-.29h0c0-.17.07-.3.18-.31l.43,0c.11,0,.2.13.21.29Z"/><path class="cls-25" d="M68,66c.2,0,.34-.11.43-.1h.13c0-.14-.11-.24-.2-.24l-.43,0c-.1,0-.17.11-.18.26C67.77,65.88,67.86,66,68,66Z"/><path class="cls-16" d="M53.47,63.91c-.2.32-1,.49-1.87.39s-1.62-.44-1.72-.8c0,.38.75.76,1.71.87S53.35,64.27,53.47,63.91Z"/><path class="cls-17" d="M51.34,63.93l-.48,2s.4.35.58-.11.74-1.75.74-1.75Z"/><path class="cls-18" d="M51.45,65.78c.25-.56.74-1.75.74-1.75l-.84-.1-.12.5a3,3,0,0,0,.45.13c0,.11-.22,1.2-.73,1.37A.31.31,0,0,0,51.45,65.78Z"/><path class="cls-19" d="M53.48,63.9c-.05.41-.91.65-1.9.55s-1.76-.53-1.7-.94.91-.65,1.9-.54S53.53,63.49,53.48,63.9Z"/><path class="cls-20" d="M53.48,63.85c-.05.39-.9.62-1.9.52s-1.76-.52-1.71-.91.9-.62,1.9-.52S53.53,63.46,53.48,63.85Z"/><path class="cls-21" d="M51.58,64.43c-1-.11-1.75-.48-1.77-.93h0a.21.21,0,0,1,0,0h0c.07-.4.7-.59,1.48-.6h0a4.12,4.12,0,0,1,.49,0h0c1,.11,1.75.48,1.77.93h0a.42.42,0,0,1,0,0h0c-.07.4-.7.59-1.48.6h0l-.49,0Zm1.84-.59h0v0h0c0-.31-.7-.71-1.65-.81h0l-.48,0h0c-.76,0-1.33.23-1.34.49h0a.13.13,0,0,0,0,0h0c0,.31.7.71,1.65.81h0l.48,0h0c.76,0,1.33-.23,1.34-.49Z"/><path class="cls-22" d="M52.23,63.78c0,.23-.54.37-1.13.31s-1-.31-1-.54.54-.37,1.13-.31S52.26,63.54,52.23,63.78Z"/><path class="cls-23" d="M51.26,66a11.39,11.39,0,0,1-.8,2.3c-.46.83-.85,1.59-.29,1.8S51.49,66.81,51.26,66Z"/><path class="cls-23" d="M51.46,66.06a4,4,0,0,1,.59,2c-.14.81.52,1.13,1,.79S52.38,66.55,51.46,66.06Z"/><path class="cls-24" d="M49.51,66.19A1.38,1.38,0,0,0,50.69,66l-.17,0,.17,0,0,0a1.59,1.59,0,0,0-1.66-.21.18.18,0,0,0-.1.06l.06,0-.06,0C48.92,65.9,49.12,66,49.51,66.19Z"/><path class="cls-24" d="M49.06,65.78c-.25.07-.06.16.45.41S50.72,66,50.72,66A1.59,1.59,0,0,0,49.06,65.78Z"/><path class="cls-23" d="M51,65.63c-.31-.24-1.66-1.23-2.18-.92s-.24,1.61.34,2,2-.73,2-.73S51.2,65.83,51,65.63Zm-1.46.56c-.51-.25-.7-.34-.45-.41a1.59,1.59,0,0,1,1.66.21S50,66.45,49.51,66.19Z"/><path class="cls-25" d="M49.51,66.19c-.39-.19-.59-.29-.55-.36s-.06,0,0,.12a1,1,0,0,0,1,.54,2.69,2.69,0,0,0,.87-.48h-.09A1.38,1.38,0,0,1,49.51,66.19Z"/><path class="cls-25" d="M51.11,66l0,0s.07-.18-.16-.38-1.66-1.23-2.18-.92a.83.83,0,0,0-.26.82,1.71,1.71,0,0,1,.4-.17C49.57,65.17,50.66,65.75,51.11,66Z"/><path class="cls-25" d="M51,65.8a5.49,5.49,0,0,0-1.5-.81c-.47-.06-.12.16.19.3s.16,0,0-.07,0-.13.33,0Z"/><path class="cls-23" d="M51.56,66s1.55,1,2.07.49.61-1.79.06-2-1.75.89-2,1.16S51.56,66,51.56,66Zm.4-.07a1.58,1.58,0,0,1,1.61-.39c.26,0,.08.15-.39.46S52,65.9,52,65.9Z"/><path class="cls-25" d="M53.18,66c.36-.24.54-.36.5-.42s.1.08.09.18a1,1,0,0,1-.94.57,2.77,2.77,0,0,1-.93-.37l.09,0A1.39,1.39,0,0,0,53.18,66Z"/><path class="cls-25" d="M51.58,66h0s-.1-.17.1-.39,1.48-1.41,2-1.16a.85.85,0,0,1,.37.78,1.72,1.72,0,0,0-.42-.12C53,65,52,65.66,51.58,66Z"/><path class="cls-25" d="M51.7,65.74a5.34,5.34,0,0,1,1.38-1c.46-.11.15.14-.14.32s-.16,0,0-.06,0-.13-.32.08Z"/><path class="cls-24" d="M53.61,65.24c-.36-.47-1.87.56-1.87.56C53,66.21,54,65.71,53.61,65.24Z"/><path class="cls-25" d="M51.29,66.24a12.66,12.66,0,0,1-.78,3.32c-.22.35-.13.6-.45.52l.11.06C50.69,70.34,51.38,67.29,51.29,66.24Z"/><path class="cls-25" d="M52.22,67.76a2.64,2.64,0,0,0-.53-1.25,3.07,3.07,0,0,1,.36,1.58c-.1.62.26,1,.66.92C52.28,68.81,52.21,68.25,52.22,67.76Z"/><path class="cls-26" d="M53,68.88s.29-.06.07-.7a2.89,2.89,0,0,0-.23-.53,2.77,2.77,0,0,1,.19.62c0,.17,0,.47-.16.53S52.8,69,53,68.88Z"/><path class="cls-23" d="M51.75,65.86c0,.17-.07.3-.18.31l-.43,0c-.11,0-.2-.13-.21-.29h0c0-.17.07-.3.18-.31h.43c.11,0,.2.13.21.29Z"/><path class="cls-25" d="M51.19,65.9c.2,0,.34-.11.43-.1h.13c0-.14-.11-.24-.2-.24h-.43c-.1,0-.17.11-.18.26C51,65.8,51.07,65.9,51.19,65.9Z"/><path class="cls-27" d="M85.54,64.64a10.73,10.73,0,0,1,6.07-2.53l-1.68-.23A6.85,6.85,0,0,0,85.54,64.64Z"/><path class="cls-30" d="M89.94,61.88l1.68.23.46,0C94.6,62,92.53,61.31,89.94,61.88Z"/><path class="cls-30" d="M98.93,62.33l-.54,0a27.15,27.15,0,0,1,6.13,2.2,15.29,15.29,0,0,0-4.24-2.4C99.84,62.23,99.39,62.28,98.93,62.33Z"/><path class="cls-27" d="M100.28,62.17a11.93,11.93,0,0,0-3.48-.72c-2.39-.12-.82.26,1.6.92l.54,0C99.39,62.28,99.84,62.23,100.28,62.17Z"/><path class="cls-31" d="M94.64,62.39l-.87-.06Z"/><path class="cls-28" d="M102.15,64.22a13.42,13.42,0,0,0-5.72-1.78c-.59,0-1.19,0-1.79-.05A28.45,28.45,0,0,1,102.15,64.22Z"/><path class="cls-16" d="M87.42,64.29c-.2.32-1,.49-1.87.39s-1.62-.44-1.72-.8c0,.38.75.76,1.71.87S87.31,64.65,87.42,64.29Z"/><path class="cls-17" d="M85.3,64.31l-.48,2s.4.35.58-.11.74-1.75.74-1.75Z"/><path class="cls-18" d="M85.4,66.16c.25-.56.74-1.75.74-1.75l-.84-.1-.12.5a2.9,2.9,0,0,0,.45.13c0,.11-.22,1.2-.73,1.37A.31.31,0,0,0,85.4,66.16Z"/><path class="cls-19" d="M87.43,64.28c-.06.41-.91.65-1.9.55s-1.76-.53-1.7-.94.91-.65,1.9-.55S87.49,63.87,87.43,64.28Z"/><path class="cls-20" d="M87.44,64.23c-.05.39-.9.62-1.9.52s-1.76-.52-1.71-.91.9-.62,1.9-.51S87.49,63.84,87.44,64.23Z"/><path class="cls-21" d="M85.53,64.81c-1-.11-1.75-.48-1.77-.93h0a.21.21,0,0,1,0,0h0c.07-.4.7-.59,1.48-.6h0a4.31,4.31,0,0,1,.49,0h0c1,.11,1.75.48,1.77.93h0a.4.4,0,0,1,0,0h0c-.07.4-.7.59-1.48.6h0a4.31,4.31,0,0,1-.49,0Zm1.84-.59h0v0h0c0-.31-.7-.71-1.65-.81h0l-.48,0h0c-.76,0-1.33.23-1.34.49h0a.13.13,0,0,0,0,0h0c0,.31.7.71,1.65.81h0l.48,0h0c.77,0,1.33-.23,1.34-.49Z"/><path class="cls-22" d="M86.19,64.16c0,.23-.54.37-1.13.31s-1-.31-1-.54.54-.37,1.13-.31S86.22,63.93,86.19,64.16Z"/><path class="cls-23" d="M85.21,66.42a11.46,11.46,0,0,1-.8,2.3c-.46.83-.85,1.59-.29,1.8S85.44,67.19,85.21,66.42Z"/><path class="cls-23" d="M85.41,66.44a4,4,0,0,1,.59,2c-.14.81.52,1.13,1,.79S86.34,66.93,85.41,66.44Z"/><path class="cls-24" d="M83.46,66.57a1.39,1.39,0,0,0,1.18-.19l-.17,0,.17,0,0,0A1.59,1.59,0,0,0,83,66.16a.18.18,0,0,0-.1.06l.06,0-.06,0C82.88,66.28,83.07,66.38,83.46,66.57Z"/><path class="cls-24" d="M83,66.16c-.25.08-.06.16.45.41s1.21-.21,1.21-.21A1.59,1.59,0,0,0,83,66.16Z"/><path class="cls-23" d="M84.92,66c-.31-.24-1.66-1.23-2.17-.92s-.24,1.61.34,2,2-.73,2-.73S85.15,66.21,84.92,66Zm-1.46.56c-.51-.25-.7-.34-.45-.41a1.59,1.59,0,0,1,1.66.21S84,66.83,83.46,66.57Z"/><path class="cls-25" d="M83.46,66.57c-.39-.2-.59-.29-.55-.36s-.06,0,0,.12a1,1,0,0,0,1,.54,2.69,2.69,0,0,0,.87-.48h-.09A1.39,1.39,0,0,1,83.46,66.57Z"/><path class="cls-25" d="M85.06,66.4l0,0s.07-.18-.16-.38-1.66-1.23-2.17-.92a.83.83,0,0,0-.26.82,1.7,1.7,0,0,1,.4-.17C83.53,65.55,84.61,66.14,85.06,66.4Z"/><path class="cls-25" d="M84.91,66.18a5.51,5.51,0,0,0-1.5-.81c-.47-.06-.12.15.19.3s.16,0,0-.07,0-.13.33,0Z"/><path class="cls-23" d="M85.51,66.34s1.55,1,2.07.49.61-1.79.06-2-1.75.89-2,1.15S85.51,66.34,85.51,66.34Zm.4-.07a1.58,1.58,0,0,1,1.61-.39c.26,0,.08.15-.39.46S85.91,66.28,85.91,66.28Z"/><path class="cls-25" d="M87.14,66.35c.36-.24.54-.36.5-.42s.1.08.09.19a1,1,0,0,1-.94.57,2.78,2.78,0,0,1-.93-.37l.09,0A1.39,1.39,0,0,0,87.14,66.35Z"/><path class="cls-25" d="M85.53,66.36h0s-.1-.17.1-.39,1.48-1.4,2-1.15a.85.85,0,0,1,.37.78,1.7,1.7,0,0,0-.42-.12C86.93,65.34,85.94,66,85.53,66.36Z"/><path class="cls-25" d="M85.65,66.12a5.34,5.34,0,0,1,1.38-1c.46-.11.15.14-.14.32s-.16,0,0-.06,0-.13-.32.08Z"/><path class="cls-24" d="M87.56,65.62c-.36-.47-1.87.56-1.87.56C87,66.59,87.92,66.09,87.56,65.62Z"/><path class="cls-25" d="M85.25,66.62a12.66,12.66,0,0,1-.78,3.32c-.22.35-.13.6-.45.52l.11.05C84.64,70.72,85.34,67.67,85.25,66.62Z"/><path class="cls-25" d="M86.18,68.15a2.64,2.64,0,0,0-.53-1.25A3.07,3.07,0,0,1,86,68.48c-.1.62.26,1,.66.92C86.23,69.19,86.17,68.63,86.18,68.15Z"/><path class="cls-26" d="M86.93,69.26s.29-.06.07-.7a2.86,2.86,0,0,0-.23-.53,2.76,2.76,0,0,1,.19.62c0,.17,0,.47-.16.53S86.75,69.37,86.93,69.26Z"/><path class="cls-23" d="M85.71,66.24c0,.17-.07.3-.18.31l-.43,0c-.11,0-.2-.13-.21-.29h0c0-.17.07-.31.18-.31l.43,0c.11,0,.2.13.21.29Z"/><path class="cls-25" d="M85.15,66.28c.2,0,.34-.11.43-.1h.13c0-.14-.11-.24-.2-.24l-.43,0c-.1,0-.17.11-.18.26C84.94,66.18,85,66.28,85.15,66.28Z"/><path class="cls-16" d="M107,64.42c-.1.36-.8.71-1.68.84s-1.69,0-1.89-.35c.12.37.95.55,1.9.42S106.95,64.8,107,64.42Z"/><path class="cls-17" d="M104.91,65l.13,2s.49.24.53-.25.18-1.86.18-1.86Z"/><path class="cls-18" d="M105.57,66.73c.07-.6.18-1.86.18-1.86l-.84.11,0,.51a2.86,2.86,0,0,0,.47,0c0,.11.15,1.21-.29,1.5C105.27,67,105.54,67.09,105.57,66.73Z"/><path class="cls-19" d="M107,64.42c.07.41-.68.85-1.67,1s-1.85-.08-1.92-.49.68-.85,1.67-1S106.89,64,107,64.42Z"/><path class="cls-20" d="M107,64.37c.07.39-.68.82-1.67,1s-1.85-.06-1.92-.45.68-.82,1.67-1S106.88,64,107,64.37Z"/><path class="cls-21" d="M103.29,64.89a.3.3,0,0,1,0-.06h0c0-.45.78-.83,1.74-1h0a4.55,4.55,0,0,1,.62,0h0c.72,0,1.3.18,1.38.55h0a.57.57,0,0,1,0,.06h0c0,.45-.78.83-1.74,1h0a4.55,4.55,0,0,1-.62,0h0c-.72,0-1.3-.18-1.37-.55ZM105,64c-.94.13-1.64.54-1.62.85h0a.23.23,0,0,0,0,0h0c0,.24.53.45,1.24.45h0a4.24,4.24,0,0,0,.6,0h0c.94-.12,1.64-.54,1.62-.85h0a.26.26,0,0,0,0,0h0c0-.24-.54-.45-1.24-.45h0a4.29,4.29,0,0,0-.59,0Z"/><path class="cls-22" d="M105.72,64.61c0,.23-.41.49-1,.57s-1.1,0-1.14-.27.41-.49,1-.57S105.68,64.37,105.72,64.61Z"/><path class="cls-23" d="M104.82,67a12.27,12.27,0,0,1-1.55,2c-.72.66-1.36,1.27-.89,1.63S104.78,67.76,104.82,67Z"/><path class="cls-23" d="M105,67a3.9,3.9,0,0,1-.13,2.1c-.41.73.11,1.22.7,1S105.72,67.77,105,67Z"/><path class="cls-24" d="M103.11,66.62a1.39,1.39,0,0,0,1.18.15l-.15-.06.15.06h0a1.54,1.54,0,0,0-1.5-.66.18.18,0,0,0-.12,0,.16.16,0,0,1,0,0,.16.16,0,0,0,0,0C102.65,66.18,102.8,66.33,103.11,66.62Z"/><path class="cls-24" d="M102.82,66.1c-.26,0-.11.13.28.52s1.22.14,1.22.14A1.54,1.54,0,0,0,102.82,66.1Z"/><path class="cls-23" d="M104.69,66.49c-.22-.31-1.16-1.63-1.75-1.48s-.78,1.47-.37,2,2.14-.13,2.14-.13A.34.34,0,0,0,104.69,66.49Zm-1.58.13c-.4-.39-.55-.52-.28-.52a1.54,1.54,0,0,1,1.5.66S103.51,67,103.11,66.62Z"/><path class="cls-25" d="M103.11,66.62c-.3-.29-.46-.44-.4-.49s-.06,0-.07.1a1,1,0,0,0,.75.79,2.87,2.87,0,0,0,1-.21l-.09,0A1.39,1.39,0,0,1,103.11,66.62Z"/><path class="cls-25" d="M104.68,66.9h0a.34.34,0,0,0,0-.4c-.22-.31-1.16-1.63-1.75-1.48a.89.89,0,0,0-.53.7,1.77,1.77,0,0,1,.43,0C103.52,65.66,104.35,66.52,104.68,66.9Z"/><path class="cls-25" d="M104.61,66.65a5,5,0,0,0-1.15-1.19c-.43-.19-.17.11.08.33s.15.06,0-.06.07-.12.3.13Z"/><path class="cls-23" d="M105.13,67s1.14,1.35,1.8,1.05,1.19-1.53.76-1.92-2,.35-2.33.53S105.13,67,105.13,67Zm.4.05a1.59,1.59,0,0,1,1.67.08c.23.12,0,.17-.53.33S105.53,67,105.53,67Z"/><path class="cls-25" d="M106.68,67.44c.42-.13.64-.19.62-.26s.07.1,0,.2a1.1,1.1,0,0,1-1.09.28,2.55,2.55,0,0,1-.76-.62h.09A1.35,1.35,0,0,0,106.68,67.44Z"/><path class="cls-25" d="M105.15,67v0s0-.19.23-.34,1.89-.92,2.33-.53a.81.81,0,0,1,.09.84,1.62,1.62,0,0,0-.36-.23A3.63,3.63,0,0,0,105.15,67Z"/><path class="cls-25" d="M105.34,66.8a5.75,5.75,0,0,1,1.65-.54c.48,0,.09.17-.25.26s-.16,0,0-.07,0-.13-.33,0Z"/><path class="cls-24" d="M107.33,66.86c-.18-.55-2,0-2,0C106.46,67.63,107.51,67.41,107.33,66.86Z"/><path class="cls-25" d="M104.79,67.17a13.49,13.49,0,0,1-1.89,2.94c-.33.27-.33.53-.61.37l.08.08C102.81,70.89,104.51,68.19,104.79,67.17Z"/><path class="cls-25" d="M105.15,68.88a2.53,2.53,0,0,0-.08-1.33,3,3,0,0,1-.2,1.6c-.31.56-.08,1,.31,1.06C104.84,69.89,105,69.34,105.15,68.88Z"/><path class="cls-26" d="M105.48,70.15s.3,0,.31-.64a2.69,2.69,0,0,0,0-.57,2.71,2.71,0,0,1,0,.64c-.06.16-.16.45-.33.46S105.27,70.2,105.48,70.15Z"/><path class="cls-23" d="M105.35,66.93c0,.16-.17.27-.28.24l-.42-.11c-.1,0-.15-.18-.1-.34h0c0-.16.17-.27.28-.24l.42.11c.1,0,.15.18.1.34Z"/><path class="cls-25" d="M104.81,66.81c.19.05.36,0,.44,0l.12,0c0-.14,0-.26-.11-.29l-.42-.11c-.09,0-.2.06-.26.19C104.64,66.66,104.69,66.78,104.81,66.81Z"/><path class="cls-27" d="M12.94,27.48a24.19,24.19,0,0,1,1.91,11.94c-.72,6,3.17-3.94-1.76-11.89S12.78,27.43,12.94,27.48Z"/><path class="cls-27" d="M12.91,48.28s4.42-4.55,3-14S20.54,41.67,12.91,48.28Z"/><path class="cls-28" d="M13,47.07a48.13,48.13,0,0,0,1.35-10.6c-.17-4.37,1,4.37-.11,6.79s2.27-2.73,1.7-6.79S17.87,42,13,47.07Z"/><path class="cls-27" d="M122.53,49s-3,3.5-1.45,10.28S117.22,54.15,122.53,49Z"/><path class="cls-28" d="M122.55,49.88a33.9,33.9,0,0,0-.41,7.73c.37,3.16-1-3.12-.29-4.92s-1.54,2.08-.89,5S119.19,53.79,122.55,49.88Z"/><path class="cls-27" d="M15.06,8.44a35.26,35.26,0,0,0-.45,8.23c.4,3.4.34,4.32,0,6s2.08-.83.8-6.94A20.08,20.08,0,0,1,15.06,8.44Z"/><path class="cls-27" d="M13.29,27.31s4-2.15,3.64-8.58S20.39,24.32,13.29,27.31Z"/><path class="cls-28" d="M15.28,9.31a35.35,35.35,0,0,0,.57,6.58,12.36,12.36,0,0,1-.62,7.25c-.85,1.54,2.33-1.39,1.14-6.74S15.28,9.31,15.28,9.31Z"/><path class="cls-27" d="M13.29,50.46s.91,5.91.51,8.85,1.31-.15.34-5.4,2.39,2.42.45,6.74S19,56.33,13.29,50.46Z"/><path class="cls-28" d="M13.38,62.62a14.65,14.65,0,0,0,1-6.76C14,52,16.17,56.48,13.38,62.62Z"/><path class="cls-27" d="M120.26,47.7s-1.32-7.56-.45-11.29-2.37.16-.91,6.87-4.18-3.15-.46-8.6S110.31,40,120.26,47.7Z"/><path class="cls-28" d="M120.75,32.21a14.2,14.2,0,0,0-2.1,8.59C119.08,45.76,115.4,39.93,120.75,32.21Z"/><path class="cls-27" d="M120.62,28.75s-1.18-7.46-.7-11.16-1.63.2-.38,6.81-3-3-.62-8.5S113.49,21.39,120.62,28.75Z"/><path class="cls-28" d="M120.42,13.42A18.69,18.69,0,0,0,119.27,22C119.73,26.86,117,21.17,120.42,13.42Z"/><path class="cls-28" d="M17.56,62.65a25.51,25.51,0,0,1,5.4-.82C25.28,61.83,21.82,60.7,17.56,62.65Z"/><path class="cls-23" d="M12.53,48.82A11.91,11.91,0,0,1,13.75,51c.32.88.63,1.68,1.19,1.47S13.29,49.22,12.53,48.82Z"/><path class="cls-23" d="M12.69,48.71a4.89,4.89,0,0,1,2,1.07c.53.66,1.25.47,1.34-.09S13.73,48.47,12.69,48.71Z"/><path class="cls-24" d="M11.4,50c.49-.13.66-.73.69-.88l-.13.1.13-.1v0c-1.13.2-1.22.69-1.34.91,0,.05,0,.08,0,.11l.06,0-.06,0C10.76,50.21,11,50.15,11.4,50Z"/><path class="cls-24" d="M10.76,50c-.12.21.08.15.64,0s.7-.92.7-.92C11,49.33,10.88,49.82,10.76,50Z"/><path class="cls-23" d="M12,48.71c-.4,0-2.14.19-2.26.73s1.08,1.3,1.81,1.22.85-1.78.85-1.78S12.32,48.71,12,48.71ZM11.4,50c-.56.14-.76.2-.64,0s.21-.71,1.34-.91C12.1,49.13,12,49.9,11.4,50Z"/><path class="cls-25" d="M11.4,50c-.43.11-.64.17-.67.1s0,0,.07.1A1.11,1.11,0,0,0,11.92,50a2.2,2.2,0,0,0,.25-.9l-.07.05C12.06,49.31,11.9,49.92,11.4,50Z"/><path class="cls-25" d="M12.4,48.9v0s-.09-.17-.4-.17-2.14.19-2.26.73c-.05.24.15.52.45.75a1.35,1.35,0,0,1,.15-.37C10.65,49.27,11.88,49,12.4,48.9Z"/><path class="cls-25" d="M12.12,48.84a5.86,5.86,0,0,0-1.7.38c-.38.26,0,.19.36.09s.13-.09,0-.05-.09-.11.27-.18Z"/><path class="cls-23" d="M12.68,48.58s1.85-.31,1.86-1-1-1.66-1.54-1.49-.56,1.75-.55,2.12A.37.37,0,0,0,12.68,48.58Zm.23-.3A1.33,1.33,0,0,1,13.75,47c.22-.13.18.05.08.57S12.91,48.28,12.91,48.28Z"/><path class="cls-25" d="M13.84,47.54c.07-.4.11-.6,0-.61s.13,0,.21.07a.87.87,0,0,1-.22,1,2.82,2.82,0,0,1-1,.33l0-.07C13.11,48.22,13.76,48,13.84,47.54Z"/><path class="cls-25" d="M12.7,48.57h0a.37.37,0,0,1-.23-.34c0-.37,0-1.94.55-2.12a1,1,0,0,1,.87.32,1.73,1.73,0,0,0-.39.18C12.91,47,12.75,48.09,12.7,48.57Z"/><path class="cls-25" d="M12.6,48.33a4.43,4.43,0,0,1,.22-1.57c.24-.37.21,0,.14.32s-.09.12-.06,0-.13-.06-.17.26S12.6,48.33,12.6,48.33Z"/><path class="cls-24" d="M13.57,46.75c-.62-.1-.89,1.6-.89,1.6C13.93,47.8,14.2,46.86,13.57,46.75Z"/><path class="cls-25" d="M12.71,48.94a13.7,13.7,0,0,1,2,2.86c.12.39.37.51.08.66l.12,0C15.46,52.24,13.58,49.63,12.71,48.94Z"/><path class="cls-25" d="M14.55,49.43a3.25,3.25,0,0,0-1.35-.55,3.74,3.74,0,0,1,1.48.89c.41.51.93.51,1.19.23C15.41,50.14,14.93,49.78,14.55,49.43Z"/><path class="cls-26" d="M16,49.75s.16-.23-.49-.54a3.56,3.56,0,0,0-.57-.23,3.33,3.33,0,0,1,.62.32c.13.12.37.33.3.48S15.91,49.94,16,49.75Z"/><path class="cls-23" d="M12.74,48.38c.13.11.18.26.11.33l-.3.29c-.07.07-.24,0-.37-.08h0c-.13-.11-.18-.26-.11-.33l.3-.29c.07-.07.24,0,.38.08Z"/><path class="cls-25" d="M12.37,48.76c.14-.13.15-.3.23-.34l.1-.07c-.12-.08-.27-.11-.33,0l-.3.29c-.07.06,0,.19.07.3C12.14,48.82,12.28,48.84,12.37,48.76Z"/><path class="cls-23" d="M12.75,27.54a11.13,11.13,0,0,1,.29,2.4c0,.93-.07,1.77.54,1.75S13.3,28.15,12.75,27.54Z"/><path class="cls-23" d="M12.94,27.48a4.43,4.43,0,0,1,1.45,1.65c.24.79,1,.85,1.29.35S14,27.59,12.94,27.48Z"/><path class="cls-24" d="M11.22,28.31a1.28,1.28,0,0,0,1-.6l-.16,0,.16,0,0,0a1.55,1.55,0,0,0-1.61.42s-.07.07-.07.09h0C10.55,28.27,10.77,28.28,11.22,28.31Z"/><path class="cls-24" d="M10.62,28.1c-.2.16,0,.17.59.22s1-.63,1-.63A1.55,1.55,0,0,0,10.62,28.1Z"/><path class="cls-23" d="M12.3,27.26c-.39-.1-2.07-.51-2.4,0s.5,1.56,1.21,1.72,1.5-1.39,1.5-1.39S12.6,27.36,12.3,27.26Zm-1.08,1.05c-.58,0-.79-.06-.59-.22a1.55,1.55,0,0,1,1.61-.42S11.8,28.36,11.22,28.31Z"/><path class="cls-25" d="M11.22,28.31c-.44,0-.67,0-.66-.12s0,0,0,.12a1.12,1.12,0,0,0,1.13.13,2.39,2.39,0,0,0,.59-.76l-.09,0A1.28,1.28,0,0,1,11.22,28.31Z"/><path class="cls-25" d="M12.6,27.57v0s0-.19-.31-.29-2.07-.51-2.4,0a.81.81,0,0,0,.13.84,1.5,1.5,0,0,1,.29-.29C10.82,27.36,12.07,27.49,12.6,27.57Z"/><path class="cls-25" d="M12.36,27.43a5.9,5.9,0,0,0-1.74-.19c-.46.12,0,.19.3.2s.15,0,0-.06,0-.13.32-.08Z"/><path class="cls-23" d="M13,27.36s1.85.31,2.12-.31-.24-1.86-.85-1.89S13,26.61,12.9,27A.35.35,0,0,0,13,27.36Zm.34-.21a1.47,1.47,0,0,1,1.3-1c.26-.05.14.11-.15.56S13.32,27.15,13.32,27.15Z"/><path class="cls-25" d="M14.47,26.76c.22-.35.34-.52.27-.56s.12,0,.16.14a.93.93,0,0,1-.6.87,2.92,2.92,0,0,1-1,0l.08-.05C13.53,27.16,14.22,27.16,14.47,26.76Z"/><path class="cls-25" d="M13,27.36h0a.35.35,0,0,1-.08-.4c.13-.35.73-1.83,1.34-1.8a1,1,0,0,1,.69.58,1.83,1.83,0,0,0-.43,0C13.84,25.92,13.24,26.92,13,27.36Z"/><path class="cls-25" d="M13,27.1a4.75,4.75,0,0,1,.83-1.4c.37-.27.2.07,0,.34s-.13.09,0-.05-.09-.1-.26.19S13,27.1,13,27.1Z"/><path class="cls-24" d="M14.54,25.94c-.54-.3-1.46,1.2-1.46,1.2C14.45,27,15.08,26.24,14.54,25.94Z"/><path class="cls-25" d="M12.87,27.71A12.68,12.68,0,0,1,13.64,31c0,.4.15.6-.18.64h.12C14.14,31.67,13.42,28.63,12.87,27.71Z"/><path class="cls-25" d="M14.4,28.76a3,3,0,0,0-1-.95,3.36,3.36,0,0,1,1,1.31c.18.61.67.78,1,.6C14.92,29.7,14.61,29.21,14.4,28.76Z"/><path class="cls-26" d="M15.58,29.51s.24-.16-.24-.66a3.24,3.24,0,0,0-.44-.4,3.07,3.07,0,0,1,.45.49c.07.15.21.43.09.54S15.47,29.67,15.58,29.51Z"/><path class="cls-23" d="M13.12,27.19c.08.15.07.31,0,.35l-.39.17c-.1,0-.24,0-.32-.19h0c-.08-.15-.07-.3,0-.35L12.8,27c.1,0,.24,0,.32.19Z"/><path class="cls-25" d="M12.62,27.43c.18-.08.26-.23.35-.24l.12,0C13,27,12.89,27,12.8,27l-.39.17c-.09,0-.1.17,0,.3C12.39,27.42,12.51,27.47,12.62,27.43Z"/><path class="cls-23" d="M123.87,29.1a11.92,11.92,0,0,0-1.22,2.14c-.32.88-.63,1.68-1.19,1.47S123.11,29.5,123.87,29.1Z"/><path class="cls-23" d="M123.71,29a4.89,4.89,0,0,0-2,1.07c-.53.66-1.25.47-1.34-.09S122.67,28.75,123.71,29Z"/><path class="cls-24" d="M125,30.32c-.49-.13-.66-.73-.69-.88l.13.1-.13-.1v0c1.13.2,1.22.69,1.34.91,0,.05,0,.08,0,.11l-.06,0,.06,0C125.64,30.49,125.42,30.43,125,30.32Z"/><path class="cls-24" d="M125.63,30.31c.12.21-.08.15-.64,0s-.7-.92-.7-.92C125.42,29.61,125.51,30.1,125.63,30.31Z"/><path class="cls-23" d="M124,29.16s.12,1.7.85,1.78,1.93-.67,1.81-1.22-1.85-.7-2.26-.74S124,29.16,124,29.16Zm.3.25c1.13.2,1.22.69,1.34.91s-.08.15-.64,0S124.29,29.41,124.29,29.41Z"/><path class="cls-25" d="M125,30.32c.43.11.65.17.67.1s0,0-.07.1a1.11,1.11,0,0,1-1.11-.24,2.2,2.2,0,0,1-.25-.89l.07.05C124.34,29.59,124.5,30.2,125,30.32Z"/><path class="cls-25" d="M124,29.18v0s.09-.17.4-.17,2.14.19,2.26.74c.05.24-.15.52-.45.75a1.42,1.42,0,0,0-.15-.37C125.74,29.56,124.52,29.28,124,29.18Z"/><path class="cls-25" d="M124.27,29.12a5.85,5.85,0,0,1,1.7.38c.38.26,0,.19-.36.09s-.13-.09,0-.05.09-.11-.27-.18Z"/><path class="cls-23" d="M124,28.51c0-.37,0-1.94-.55-2.11s-1.55.82-1.54,1.49,1.86,1,1.86,1A.38.38,0,0,0,124,28.51Zm-1.39-.69c-.09-.52-.13-.71.08-.57a1.33,1.33,0,0,1,.84,1.31S122.65,28.34,122.56,27.82Z"/><path class="cls-25" d="M122.56,27.82c-.07-.4-.11-.6,0-.61s-.13,0-.21.08a.86.86,0,0,0,.22,1,2.81,2.81,0,0,0,1,.33l-.05-.07C123.29,28.5,122.64,28.28,122.56,27.82Z"/><path class="cls-25" d="M123.69,28.85h0a.38.38,0,0,0,.23-.34c0-.37,0-1.94-.55-2.11a1,1,0,0,0-.87.32,1.62,1.62,0,0,1,.39.18C123.49,27.24,123.65,28.37,123.69,28.85Z"/><path class="cls-25" d="M123.79,28.61a4.44,4.44,0,0,0-.22-1.57c-.24-.38-.21,0-.14.32s.09.12.06,0,.13-.07.16.26S123.79,28.61,123.79,28.61Z"/><path class="cls-24" d="M122.83,27c.63-.1.89,1.6.89,1.6C122.47,28.08,122.2,27.14,122.83,27Z"/><path class="cls-25" d="M123.69,29.22a13.73,13.73,0,0,0-2,2.86c-.12.39-.37.51-.08.66l-.12,0C120.94,32.52,122.81,29.91,123.69,29.22Z"/><path class="cls-25" d="M121.84,29.71a3.24,3.24,0,0,1,1.34-.55,3.74,3.74,0,0,0-1.48.89c-.41.51-.93.51-1.19.23C121,30.42,121.47,30.06,121.84,29.71Z"/><path class="cls-26" d="M120.44,30s-.16-.23.49-.54a3.51,3.51,0,0,1,.57-.23,3.38,3.38,0,0,0-.62.32c-.13.12-.37.33-.3.48S120.48,30.22,120.44,30Z"/><path class="cls-23" d="M123.66,28.66c-.13.11-.18.26-.11.33l.3.29c.07.07.24,0,.38-.08h0c.13-.11.18-.26.11-.33l-.3-.29c-.07-.07-.24,0-.37.08Z"/><path class="cls-25" d="M124,29c-.14-.13-.15-.3-.23-.34l-.1-.07c.12-.09.27-.11.33,0l.3.29c.06.06,0,.19-.07.3C124.25,29.11,124.11,29.12,124,29Z"/><path class="cls-23" d="M122.18,50.4a11.14,11.14,0,0,0-.29,2.4c0,.93.07,1.77-.54,1.75S121.63,51,122.18,50.4Z"/><path class="cls-23" d="M122,50.34A4.43,4.43,0,0,0,120.54,52c-.24.79-1,.85-1.29.35S120.93,50.45,122,50.34Z"/><path class="cls-24" d="M123.71,51.18a1.28,1.28,0,0,1-1-.6l.16,0-.16,0,0,0a1.55,1.55,0,0,1,1.61.42s.07.07.07.09h0C124.38,51.13,124.16,51.14,123.71,51.18Z"/><path class="cls-24" d="M124.31,51c.2.16,0,.17-.59.22s-1-.63-1-.63A1.55,1.55,0,0,1,124.31,51Z"/><path class="cls-23" d="M122.32,50.41s.78,1.55,1.5,1.39,1.54-1.25,1.21-1.72-2-.06-2.4,0S122.32,50.41,122.32,50.41Zm.38.13a1.55,1.55,0,0,1,1.61.42c.2.16,0,.17-.59.22S122.7,50.54,122.7,50.54Z"/><path class="cls-25" d="M123.71,51.18c.44,0,.67,0,.66-.13s0,0,0,.12a1.12,1.12,0,0,1-1.14.13,2.39,2.39,0,0,1-.59-.75l.09,0A1.28,1.28,0,0,0,123.71,51.18Z"/><path class="cls-25" d="M122.33,50.43v0s0-.19.31-.29,2.07-.51,2.4,0a.81.81,0,0,1-.12.84,1.53,1.53,0,0,0-.29-.29C124.11,50.22,122.86,50.35,122.33,50.43Z"/><path class="cls-25" d="M122.57,50.29a5.92,5.92,0,0,1,1.74-.19c.46.12,0,.19-.3.2s-.15,0,0-.06,0-.13-.32-.08Z"/><path class="cls-23" d="M122,49.82c-.13-.35-.73-1.83-1.34-1.8s-1.12,1.27-.86,1.89,2.12.31,2.12.31A.35.35,0,0,0,122,49.82Zm-1.57-.2c-.29-.46-.4-.62-.15-.56a1.46,1.46,0,0,1,1.3,1S120.75,50.08,120.46,49.62Z"/><path class="cls-25" d="M120.46,49.62c-.22-.35-.34-.52-.27-.56s-.12,0-.16.14a.92.92,0,0,0,.6.87,2.9,2.9,0,0,0,1,0l-.08-.05C121.4,50,120.71,50,120.46,49.62Z"/><path class="cls-25" d="M121.92,50.22h0a.35.35,0,0,0,.08-.4c-.13-.35-.73-1.83-1.34-1.8a1,1,0,0,0-.69.58,1.7,1.7,0,0,1,.43,0C121.1,48.78,121.69,49.78,121.92,50.22Z"/><path class="cls-25" d="M121.92,50a4.73,4.73,0,0,0-.83-1.4c-.37-.27-.2.07,0,.34s.13.09,0-.05.09-.1.26.19S121.92,50,121.92,50Z"/><path class="cls-24" d="M120.4,48.8c.54-.3,1.46,1.2,1.46,1.2C120.48,49.9,119.85,49.1,120.4,48.8Z"/><path class="cls-25" d="M122.06,50.57a12.62,12.62,0,0,0-.77,3.33c0,.4-.15.6.18.64h-.12C120.79,54.53,121.52,51.49,122.06,50.57Z"/><path class="cls-25" d="M120.53,51.62a3,3,0,0,1,1-.95,3.39,3.39,0,0,0-1,1.31c-.18.61-.66.78-1,.6C120,52.56,120.32,52.07,120.53,51.62Z"/><path class="cls-26" d="M119.35,52.37s-.24-.16.24-.67a3.14,3.14,0,0,1,.44-.4,3,3,0,0,0-.45.49c-.07.15-.21.43-.09.54S119.46,52.53,119.35,52.37Z"/><path class="cls-23" d="M121.81,50.05c-.08.15-.07.3,0,.35l.39.17c.1,0,.24,0,.32-.19h0c.08-.15.07-.31,0-.35l-.39-.17c-.1,0-.24,0-.32.19Z"/><path class="cls-25" d="M122.31,50.29c-.18-.08-.26-.23-.35-.24l-.12,0c.08-.12.21-.19.29-.15l.39.17c.09,0,.1.17,0,.3C122.54,50.28,122.42,50.33,122.31,50.29Z"/><path class="cls-16" d="M122.66,48.94a2.25,2.25,0,0,0,1.92-.13c.83-.34,1.4-.86,1.38-1.23.12.36-.46.93-1.34,1.29S122.89,49.25,122.66,48.94Z"/><path class="cls-17" d="M124.7,48.39l1.1,1.74s-.27.44-.59.05-1.28-1.47-1.28-1.47Z"/><path class="cls-18" d="M125.21,50.18c-.42-.46-1.28-1.47-1.28-1.47l.77-.32.28.45a2.93,2.93,0,0,1-.38.25c0,.11.61,1.09,1.15,1.11A.32.32,0,0,1,125.21,50.18Z"/><path class="cls-19" d="M122.65,48.94c.19.38,1.08.38,2,0s1.5-1,1.31-1.36-1.08-.38-2,0S122.46,48.56,122.65,48.94Z"/><path class="cls-20" d="M122.63,48.9c.18.36,1.07.35,2,0s1.51-1,1.33-1.33-1.07-.35-2,0S122.45,48.54,122.63,48.9Z"/><path class="cls-21" d="M124.64,48.93a3.64,3.64,0,0,1-1.32.29h0c-.36,0-.64-.09-.75-.3l.06,0-.06,0h0a.37.37,0,0,1,0-.16h0c0-.42.59-.91,1.4-1.25h0a3.65,3.65,0,0,1,1.32-.29h0c.36,0,.64.09.75.3h0a.37.37,0,0,1,0,.17h0c0,.41-.59.91-1.4,1.25Zm1.24-1.36c-.06-.14-.29-.23-.62-.23h0a3.49,3.49,0,0,0-1.26.28h0c-.79.32-1.33.83-1.32,1.13h0a.23.23,0,0,0,0,.11h0c.06.14.29.23.63.23h0a3.49,3.49,0,0,0,1.26-.28h0c.79-.32,1.33-.83,1.32-1.13h0a.24.24,0,0,0,0-.11Z"/><path class="cls-22" d="M122.79,48.87c.11.22.64.21,1.18,0s.9-.58.79-.79-.64-.21-1.18,0S122.69,48.65,122.79,48.87Z"/><path class="cls-16" d="M123.59,26.31c.09.36.78.73,1.66.87s1.69,0,1.9-.31c-.12.36-1,.53-1.91.38S123.59,26.68,123.59,26.31Z"/><path class="cls-17" d="M125.62,26.89l-.18,2s-.5.23-.52-.26-.14-1.87-.14-1.87Z"/><path class="cls-18" d="M124.93,28.63c-.06-.6-.14-1.87-.14-1.87l.84.13,0,.51a3.13,3.13,0,0,1-.47,0c0,.11-.18,1.21.25,1.5C125.22,29,124.94,29,124.93,28.63Z"/><path class="cls-19" d="M123.59,26.3c-.08.41.66.87,1.64,1s1.85,0,1.93-.45-.66-.87-1.64-1S123.67,25.89,123.59,26.3Z"/><path class="cls-20" d="M123.6,26.25c-.08.39.66.83,1.65,1s1.85,0,1.93-.42-.66-.83-1.65-1S123.67,25.86,123.6,26.25Z"/><path class="cls-21" d="M127.24,26.84c-.08.36-.63.52-1.31.53h0a4.4,4.4,0,0,1-.7-.06h0c-1-.16-1.69-.55-1.71-1h0a.38.38,0,0,1,0-.07h0c.08-.36.63-.52,1.31-.53h0a4.4,4.4,0,0,1,.7.06h0c1,.16,1.69.55,1.71,1h0a.39.39,0,0,1,0,.07Zm-2.4-1h0c-.66,0-1.12.19-1.15.42h0a.23.23,0,0,0,0,0h0c0,.3.67.73,1.6.88h0a4.32,4.32,0,0,0,.67.06h0c.67,0,1.14-.19,1.17-.42h0a.25.25,0,0,0,0,0h0c0-.3-.67-.73-1.6-.87h0a4.23,4.23,0,0,0-.67-.06Z"/><path class="cls-22" d="M124.82,26.51c0,.23.39.5,1,.59s1.1,0,1.15-.25-.39-.5-1-.59S124.86,26.28,124.82,26.51Z"/><path class="cls-16" d="M124.43,63.07c.08.36-.39.95-1.13,1.4a2.19,2.19,0,0,1-1.88.41c.28.29,1.12.14,1.92-.35S124.6,63.41,124.43,63.07Z"/><path class="cls-17" d="M122.84,64.35l1.05,1.76s.56,0,.36-.43-.7-1.76-.7-1.76Z"/><path class="cls-18" d="M124.25,65.68c-.22-.57-.7-1.76-.7-1.76l-.71.42.27.45a2.86,2.86,0,0,0,.43-.16c.08.09.7,1,.44,1.47C124.13,66.09,124.39,66,124.25,65.68Z"/><path class="cls-19" d="M124.43,63.06c.25.34-.21,1-1,1.54s-1.71.64-2,.3.21-1,1-1.54S124.18,62.72,124.43,63.06Z"/><path class="cls-20" d="M124.4,63c.24.33-.23,1-1.07,1.51s-1.71.65-1.95.32.23-1,1.07-1.51S124.16,62.69,124.4,63Z"/><path class="cls-21" d="M121.33,64.89a.4.4,0,0,1-.08-.24h0c0-.4.47-.93,1.16-1.36h0a3.15,3.15,0,0,1,1.51-.51h0a.65.65,0,0,1,.54.2h0l-.06,0-.06,0a.51.51,0,0,0-.42-.15h0a3,3,0,0,0-1.43.49h0c-.68.41-1.11.94-1.1,1.25h0a.28.28,0,0,0,.05.17h0a.51.51,0,0,0,.42.15h0a3,3,0,0,0,1.43-.49h0c.67-.41,1.1-.94,1.1-1.25h0a.28.28,0,0,0-.05-.17h0l.06,0,.06,0a.4.4,0,0,1,.07.24h0c0,.4-.47.93-1.16,1.36h0a3.16,3.16,0,0,1-1.51.51h0a.65.65,0,0,1-.54-.2Z"/><path class="cls-22" d="M123.4,63.71c.15.2-.14.6-.64.9s-1,.39-1.16.19.14-.6.64-.9S123.26,63.51,123.4,63.71Z"/></g></g></g></svg>