<svg xmlns="http://www.w3.org/2000/svg" viewBox="0 0 48.22 20.05"><defs><style>.cls-1{fill:#9d5224;}.cls-2{fill:#612e05;}.cls-3{fill:#804118;}.cls-4{fill:#562504;}.cls-5{fill:#723412;}.cls-6{fill:#e3cdbf;}.cls-7{fill:#240500;}.cls-8{fill:#391b00;}.cls-9{fill:#462500;}.cls-10{fill:#d3c8bf;}.cls-11{fill:#4f2200;}.cls-12{font-size:11.77px;fill:#fff;font-family:PWBrusheez, PWBrusheez;}</style></defs><title>restart</title><g id="Layer_2" data-name="Layer 2"><g id="Layer_1-2" data-name="Layer 1"><path class="cls-1" d="M38.7,3.53c.78-.7,7.52-.05,7.94-.05s1.59-1.42,1.59-1.77S47.07.32,46.44.49A17.64,17.64,0,0,1,42,.74c-18.67-2.45-42,2-42,2l.88.62,34.41,8.16L39,3.91c-.42,0-.6-.09-.27-.39Z"/><path class="cls-2" d="M47.12,4.18A15.48,15.48,0,0,1,41.36,4a8.35,8.35,0,0,0-1.73-.08H39l-3.68,7.6,8.18,1.94a5.29,5.29,0,0,1,.59,0c1.4.09,3.39-8,3.88-8.43.08-.53-.31-.39-.82-.85Z"/><path class="cls-2" d="M3.05,10.91l-.45,0C3.19,10.93,3.69,10.91,3.05,10.91Z"/><path class="cls-2" d="M44.83,14.25A7.68,7.68,0,0,1,42,13.8a3.35,3.35,0,0,1,1.52-.35L.88,3.36,0,2.74s.51,7.34.74,7.55c.43.39.45.49.88.59a7.34,7.34,0,0,0,1,.05l.45,0c.63,0,.14,0-.45,0a2.77,2.77,0,0,0-1.66.5,24.38,24.38,0,0,0,.2,4,1.62,1.62,0,0,0,1.21.83c.84.09.89.14,0,.13s-.84.35-.85.61c0,1.49.74,2.92,1.23,3S8,18.74,12.36,18.58c5.34.29,23.81-.95,28.31-.92a8.61,8.61,0,0,0,6.7-2.86l-.58-.53a6,6,0,0,0-2,0Z"/><path d="M7.07,17.07h.1a.57.57,0,0,1,.49-.61.63.63,0,0,1,0,1.23.56.56,0,0,1-.49-.62H7a.8.8,0,0,0,.7.88.9.9,0,0,0,0-1.75.81.81,0,0,0-.71.87Z"/><path class="cls-3" d="M4.33,19.86c.52-.07,1-.08,1.57-.14,1.5-.16,3-.26,4.51-.38q1.41-.11,2.83-.16c5.34.29,23.81-.94,28.31-.92s5.62-1.11,5.62-1.11l.22-2.45a12.49,12.49,0,0,0-1.69.17,7.67,7.67,0,0,1-2.88-.45,3.78,3.78,0,0,1,2.11-.34c1.4.09,2.18.18,2.67-.25a46.45,46.45,0,0,0,.39-9,15.43,15.43,0,0,1-5.76-.2,8.39,8.39,0,0,0-1.73-.07c-.84,0-1.41,0-.93-.38.78-.7,7.52-.05,7.94-.05s.71-1.84.71-2.19-.28-1-.91-.79a17.66,17.66,0,0,1-4.42.24c-18.67-2.45-42,2-42,2S.92,4,1,4.93l0,.31c0,.49.07,1,.12,1.59.06.76.12,1.54.19,2.21s.12,1.15.18,1.48.08.38.12.38c.28,0,2.88.1,3.3.19s.07.44-1,.43A3.28,3.28,0,0,0,1.82,12a10,10,0,0,0-.08,2.41c0,.78.06,1.38.06,1.38a1.38,1.38,0,0,0,1.12.68c.84.09,1.19.53.35.53s-.82.11-.91.35a1.92,1.92,0,0,0,0,.7s.22,2,.48,2,1.49-.19,1.49-.19Z"/><path class="cls-4" d="M2.41,16.43h0Z"/><path class="cls-5" d="M47.68,13.3s-6.11.15-7.24.41S26.65,15.06,23.16,15l-.57,0c-.72-.06-1.86-.08-3.13-.09-2.83,0-6.28.07-7.06.13-1.08.08-8.46,1.35-9.87,1.36h0c.26,0,.8,0,1.53.05a24.75,24.75,0,0,0,4.59-.39,40.81,40.81,0,0,1,7.49-.76,20.7,20.7,0,0,1,2.83.19,9.79,9.79,0,0,0,1.24.06c5.31,0,21.54-1.71,23.14-1.71a22.83,22.83,0,0,0,4.29-.59Z"/><path class="cls-4" d="M2.4,16.43Z"/><path class="cls-5" d="M2.46,18.81h0Zm36.43-2.48s-4.92.12-5.82.32S22,17.73,19.16,17.72l-.45,0c-.58,0-1.5-.07-2.52-.07-2.27,0-5,.06-5.67.1-.88.06-6.91,1.08-8,1.08H2.47c.09,0,.6,0,1.35,0a20.23,20.23,0,0,0,3.7-.31,33.19,33.19,0,0,1,6-.6,16.74,16.74,0,0,1,2.28.15,8.2,8.2,0,0,0,1,.05c4.27,0,17.33-1.36,18.61-1.35a18.62,18.62,0,0,0,3.45-.47Z"/><path class="cls-6" d="M48.06,7.95h0Z"/><path class="cls-5" d="M48.06,7.95c-.18,0-3.95.79-5.21.95s-12.93,2.31-14.62,2.48-12.51,1.43-14,1.52c-1.14.06-8.11.73-11.19,1,3.43-.16,13.38-.64,17-.91,4.43-.33,12.51-1.87,15-2.21S47.77,8,48.05,8h0Z"/><path class="cls-4" d="M1.73,14l-.13,0h.13s0,0,0,0Z"/><path class="cls-5" d="M3.06,13.92,1.88,14l-.15,0s0,0,0,0l1.33-.13Z"/><path class="cls-5" d="M13.88,1.57C15,2.19,26.93,3,29.39,3s14.12-.37,15.45-.37a4,4,0,0,0,2.39-.6c-.21.26-12.43.38-17.77.44h-.72c-5.49,0-14.86-1-14.86-1Z"/><path class="cls-6" d="M48,4.8h0c0,.2,0,.59.06,1.11a.17.17,0,0,0,.08-.06c0-.18-.14-1.05-.14-1.05Z"/><path class="cls-5" d="M48,4.8h0s-.42.17-.77.35c0,0-11.18,2.23-14.06,2.3S25.78,8.82,24.73,9l-.08,0c.25,0,8.64-1,10.47-1S47.07,6.42,48.06,5.91C48,5.39,48,5,48,4.8Z"/><path class="cls-4" d="M1.06,6.08h0Z"/><path class="cls-5" d="M7.87,6.07c-3.07,0-6.35,0-6.81,0h0c.83,0,10.52.48,11.53.49s11,.31,11,.31S17.42,9.57,16.37,10s-8.51,1.8-9.49,2-5.13,1.47-5.13,1.47,3.44-.51,5.48-.94,6.32-.59,9.84-2.23S25.3,6.71,25.3,6.71s-10-.48-13.13-.59c-1.05,0-2.65-.05-4.3-.06Z"/><path class="cls-5" d="M5.92,10.69a6.68,6.68,0,0,0-1,.4l1-.4ZM1.42,8.18h0s4.49.55,6,.55,5.27,0,4.07.11a36.55,36.55,0,0,0-5.54,1.85c.28-.09.63-.19,1-.29,1.41-.35,9-2,7.31-2.07S1.55,8.18,1.42,8.18Z"/><ellipse class="cls-7" cx="6.83" cy="3.45" rx="0.77" ry="0.63" transform="translate(3.35 10.26) rotate(-89.73)"/><ellipse class="cls-8" cx="6.93" cy="3.43" rx="0.77" ry="0.63" transform="translate(3.47 10.34) rotate(-89.73)"/><ellipse class="cls-9" cx="6.93" cy="3.43" rx="0.64" ry="0.52" transform="translate(3.47 10.34) rotate(-89.72)"/><ellipse class="cls-7" cx="41.7" cy="2.38" rx="0.77" ry="0.63" transform="translate(39.17 44.07) rotate(-89.79)"/><ellipse class="cls-8" cx="41.81" cy="2.36" rx="0.77" ry="0.63" transform="translate(39.25 44.16) rotate(-89.73)"/><ellipse class="cls-9" cx="41.81" cy="2.36" rx="0.64" ry="0.52" transform="translate(39.28 44.16) rotate(-89.77)"/><ellipse class="cls-7" cx="41.81" cy="16.68" rx="0.77" ry="0.63" transform="matrix(0, -1, 1, 0, 24.94, 58.41)"/><ellipse class="cls-8" cx="41.92" cy="16.65" rx="0.77" ry="0.63" transform="translate(25.07 58.49) rotate(-89.73)"/><ellipse class="cls-9" cx="41.92" cy="16.65" rx="0.64" ry="0.52" transform="translate(25.06 58.49) rotate(-89.72)"/><ellipse class="cls-7" cx="7.53" cy="18.1" rx="0.77" ry="0.63" transform="translate(-10.59 25.57) rotate(-89.79)"/><ellipse class="cls-8" cx="7.64" cy="18.08" rx="0.77" ry="0.63" transform="translate(-10.47 25.63) rotate(-89.73)"/><ellipse class="cls-9" cx="7.64" cy="18.08" rx="0.64" ry="0.52" transform="translate(-10.48 25.62) rotate(-89.7)"/><circle class="cls-10" cx="6.17" cy="19.78" transform="translate(-4.72 2.16) rotate(-14.39)"/><path class="cls-11" d="M43.21,3.92v.4A16.3,16.3,0,0,0,40.52,4C40.78,3.91,42.57,3.92,43.21,3.92Z"/><text class="cls-12" transform="translate(5.41 13.92)">Restart</text></g></g></svg>